<svg width="42" height="42" viewBox="0 0 42 42" fill="none" xmlns="http://www.w3.org/2000/svg">
<path d="M12.4688 15.0938C12.4688 14.5716 12.2613 14.0708 11.8921 13.7016C11.5229 13.3324 11.0221 13.125 10.5 13.125C9.97786 13.125 9.4771 13.3324 9.10788 13.7016C8.73867 14.0708 8.53125 14.5716 8.53125 15.0938H9.84375C9.84375 14.9197 9.91289 14.7528 10.036 14.6297C10.159 14.5066 10.326 14.4375 10.5 14.4375C10.674 14.4375 10.841 14.5066 10.964 14.6297C11.0871 14.7528 11.1562 14.9197 11.1562 15.0938H12.4688Z" fill="#005DAC"/>
<path d="M18.375 14.4375C18.549 14.4375 18.716 14.5066 18.839 14.6297C18.9621 14.7528 19.0312 14.9197 19.0312 15.0938H20.3438C20.3438 14.5716 20.1363 14.0708 19.7671 13.7016C19.3979 13.3324 18.8971 13.125 18.375 13.125C17.8529 13.125 17.3521 13.3324 16.9829 13.7016C16.6137 14.0708 16.4063 14.5716 16.4062 15.0938H17.7188C17.7188 14.9197 17.7879 14.7528 17.911 14.6297C18.034 14.5066 18.201 14.4375 18.375 14.4375Z" fill="#005DAC"/>
<path d="M17.7188 19.0312H16.4062C16.4062 19.1947 15.708 19.6875 14.4375 19.6875C13.167 19.6875 12.4688 19.1947 12.4688 19.0312H11.1562C11.1562 20.1534 12.5665 21 14.4375 21C16.3085 21 17.7188 20.1534 17.7188 19.0312Z" fill="#005DAC"/>
<path d="M38.7188 24.9375H21.6562C21.1346 24.9391 20.6347 25.147 20.2659 25.5159C19.897 25.8847 19.6891 26.3846 19.6875 26.9062V26.9259L17.7188 26.4009V24.2812C19.0722 23.7133 20.2566 22.8063 21.1578 21.6477C22.0589 20.4891 22.6465 19.1179 22.8638 17.6663C23.4171 17.5751 23.9376 17.3428 24.375 16.9916C24.8123 16.6405 25.1516 16.1825 25.3601 15.6619C25.5686 15.1412 25.6393 14.5756 25.5652 14.0197C25.4912 13.4638 25.275 12.9364 24.9375 12.4884V11.8125C24.9375 9.02773 23.8313 6.35701 21.8621 4.38788C19.893 2.41875 17.2223 1.3125 14.4375 1.3125C11.6527 1.3125 8.98201 2.41875 7.01288 4.38788C5.04375 6.35701 3.9375 9.02773 3.9375 11.8125V12.4884C3.51297 13.0497 3.28262 13.7338 3.28125 14.4375C3.28027 15.2118 3.55414 15.9613 4.05407 16.5526C4.55401 17.1438 5.24757 17.5385 6.01125 17.6663C6.22945 19.1176 6.81733 20.4884 7.71837 21.6468C8.6194 22.8053 9.8033 23.7125 11.1562 24.2812V26.4009L2.76281 28.6388C2.3466 28.7544 1.97961 29.003 1.71778 29.3465C1.45594 29.6901 1.31362 30.1099 1.3125 30.5419V40.0312C1.3125 40.2053 1.38164 40.3722 1.50471 40.4953C1.62778 40.6184 1.7947 40.6875 1.96875 40.6875H40.0312C40.2053 40.6875 40.3722 40.6184 40.4953 40.4953C40.6184 40.3722 40.6875 40.2053 40.6875 40.0312V26.9062C40.6859 26.3846 40.478 25.8847 40.1091 25.5159C39.7403 25.147 39.2404 24.9391 38.7188 24.9375ZM24.2812 14.4375C24.2825 14.9585 24.0772 15.4588 23.7103 15.8288C23.5006 16.0339 23.247 16.1887 22.9688 16.2816V12.5869C23.3512 12.7231 23.6823 12.9738 23.9172 13.305C24.152 13.6361 24.2792 14.0315 24.2812 14.4375ZM5.90625 16.2881C5.63236 16.1901 5.382 16.0358 5.17125 15.8353C4.93603 15.6002 4.7642 15.3094 4.67179 14.9899C4.57939 14.6704 4.56941 14.3327 4.64281 14.0084C4.7162 13.684 4.87056 13.3835 5.0915 13.1349C5.31243 12.8864 5.59273 12.6978 5.90625 12.5869V16.2881ZM5.26969 11.4253C5.34148 9.64316 5.93146 7.92063 6.96735 6.46869C8.00325 5.01675 9.4401 3.89843 11.1019 3.2507C12.7637 2.60296 14.5784 2.45393 16.3236 2.82186C18.0689 3.18979 19.6689 4.05871 20.9278 5.32219C22.5632 6.94257 23.5205 9.12467 23.6053 11.4253C23.1973 11.2482 22.7573 11.1566 22.3125 11.1562H20.0156L18.2437 8.79375C18.1796 8.71675 18.0994 8.65479 18.0086 8.61228C17.9179 8.56976 17.8189 8.54772 17.7188 8.54772C17.6186 8.54772 17.5196 8.56976 17.4289 8.61228C17.3381 8.65479 17.2579 8.71675 17.1938 8.79375L15.4219 11.1562H13.4531L11.6812 8.79375C11.6171 8.71675 11.5369 8.65479 11.4461 8.61228C11.3554 8.56976 11.2564 8.54772 11.1562 8.54772C11.0561 8.54772 10.9571 8.56976 10.8664 8.61228C10.7756 8.65479 10.6954 8.71675 10.6313 8.79375L8.85938 11.1562H6.5625C6.11778 11.1574 5.67794 11.2489 5.26969 11.4253ZM7.21875 16.4062V12.4688H9.1875C9.28925 12.468 9.38949 12.444 9.48051 12.3985C9.57152 12.353 9.65089 12.2872 9.7125 12.2063L11.1562 10.2834L12.6 12.2063C12.6616 12.2872 12.741 12.353 12.832 12.3985C12.923 12.444 13.0232 12.468 13.125 12.4688H15.75C15.8518 12.468 15.952 12.444 16.043 12.3985C16.134 12.353 16.2134 12.2872 16.275 12.2063L17.7188 10.2834L19.1625 12.2063C19.2241 12.2872 19.3035 12.353 19.3945 12.3985C19.4855 12.444 19.5857 12.468 19.6875 12.4688H21.6562V16.4062C21.6562 18.3208 20.8957 20.1569 19.5419 21.5107C18.1881 22.8645 16.352 23.625 14.4375 23.625C12.523 23.625 10.6869 22.8645 9.33307 21.5107C7.97929 20.1569 7.21875 18.3208 7.21875 16.4062ZM11.9831 27.5428C12.123 27.5052 12.2464 27.4223 12.3343 27.3072C12.4221 27.192 12.4694 27.0511 12.4688 26.9062V24.7013C13.7624 25.0162 15.1126 25.0162 16.4062 24.7013V26.9062C16.4056 27.0511 16.4529 27.192 16.5407 27.3072C16.6286 27.4223 16.752 27.5052 16.8919 27.5428L18.1716 27.8775L14.4375 30.6797L10.7034 27.8775L11.9831 27.5428ZM19.6875 39.375H13.7812C13.6072 39.375 13.4403 39.3059 13.3172 39.1828C13.1941 39.0597 13.125 38.8928 13.125 38.7188V38.0625H19.6875V39.375ZM19.6875 36.75H12.4688C12.2947 36.75 12.1278 36.8191 12.0047 36.9422C11.8816 37.0653 11.8125 37.2322 11.8125 37.4062V38.7188C11.8143 38.9426 11.8542 39.1646 11.9306 39.375H2.625V30.5419C2.62622 30.3975 2.6742 30.2575 2.76176 30.1427C2.84932 30.0279 2.97172 29.9446 3.11062 29.9053L9.08906 28.3106L14.0437 32.025C14.1573 32.1102 14.2955 32.1562 14.4375 32.1562C14.5795 32.1562 14.7177 32.1102 14.8313 32.025L19.6875 28.3828V36.75ZM39.375 39.375H21V26.9062C21 26.7322 21.0691 26.5653 21.1922 26.4422C21.3153 26.3191 21.4822 26.25 21.6562 26.25H38.7188C38.8928 26.25 39.0597 26.3191 39.1828 26.4422C39.3059 26.5653 39.375 26.7322 39.375 26.9062V39.375Z" fill="#005DAC"/>
<path d="M30.1875 34.125C30.9124 34.125 31.5 33.5374 31.5 32.8125C31.5 32.0876 30.9124 31.5 30.1875 31.5C29.4626 31.5 28.875 32.0876 28.875 32.8125C28.875 33.5374 29.4626 34.125 30.1875 34.125Z" fill="#005DAC"/>
<path d="M22.9688 36.75H24.2812V38.0625H22.9688V36.75Z" fill="#005DAC"/>
<path d="M25.5938 36.75H26.9062V38.0625H25.5938V36.75Z" fill="#005DAC"/>
<path d="M28.2188 36.75H29.5312V38.0625H28.2188V36.75Z" fill="#005DAC"/>
<path d="M30.8438 36.75H32.1562V38.0625H30.8438V36.75Z" fill="#005DAC"/>
<path d="M33.4688 36.75H34.7812V38.0625H33.4688V36.75Z" fill="#005DAC"/>
<path d="M36.0938 36.75H37.4062V38.0625H36.0938V36.75Z" fill="#005DAC"/>
</svg>
