<svg width="45" height="45" viewBox="0 0 45 45" fill="none" xmlns="http://www.w3.org/2000/svg">
<g clip-path="url(#clip0_447_203)">
<path d="M42.1921 32.4968C46.5405 26.3957 45.8758 18.0368 39.9364 12.5919C37.2226 10.1042 33.7629 8.55545 30.0257 8.12294C30.0024 8.09429 29.9786 8.0659 29.9525 8.03874C26.7013 4.66154 22.0305 2.72461 17.1376 2.72461C7.82657 2.72461 0 9.66208 0 18.5449C0 21.6593 0.967412 24.6449 2.80512 27.2233L0.23792 35.2834C0.0765527 35.79 0.235283 36.3438 0.640371 36.6881C1.04616 37.033 1.61859 37.0992 2.09153 36.8587L9.89859 32.8889C11.5019 33.5793 13.2021 34.0323 14.9627 34.2384C18.3589 37.8099 23.055 39.6387 27.8596 39.6387C30.3571 39.6387 32.8455 39.1297 35.0982 38.1623L42.9057 42.1322C43.0947 42.2284 43.2994 42.2754 43.5029 42.2754C44.3926 42.2754 45.0304 41.4083 44.7593 40.5569L42.1921 32.4968ZM10.4307 30.2362C10.0615 30.0609 9.63193 30.0667 9.26763 30.252L3.70705 33.0794L5.52287 27.3783C5.65506 26.9632 5.57376 26.5097 5.30552 26.1664C3.55948 23.9314 2.63654 21.296 2.63654 18.5449C2.63654 11.2755 9.14168 5.36133 17.1376 5.36133C20.3576 5.36133 23.4574 6.33683 25.9719 8.0935C17.5038 8.94498 10.722 15.5591 10.722 23.8184C10.722 26.3872 11.3804 28.8603 12.6219 31.076C11.8702 30.8522 11.1382 30.5722 10.4307 30.2362ZM35.7296 35.5253C35.3705 35.3428 34.9407 35.3318 34.5665 35.5097C32.5112 36.4859 30.192 37.002 27.8596 37.002C19.8636 37.002 13.3585 31.0878 13.3585 23.8184C13.3585 16.5489 19.8636 10.6348 27.8596 10.6348C35.8555 10.6348 42.3606 16.5489 42.3606 23.8184C42.3606 26.5694 41.4377 29.2048 39.6916 31.4398C39.4234 31.783 39.3421 32.2365 39.4742 32.6516L41.29 38.3527L35.7296 35.5253Z" fill="#005DAC"/>
<path d="M22.4986 25.1367C23.2267 25.1367 23.817 24.5465 23.817 23.8184C23.817 23.0902 23.2267 22.5 22.4986 22.5C21.7705 22.5 21.1802 23.0902 21.1802 23.8184C21.1802 24.5465 21.7705 25.1367 22.4986 25.1367Z" fill="#005DAC"/>
<path d="M27.7718 25.1367C28.4999 25.1367 29.0901 24.5465 29.0901 23.8184C29.0901 23.0902 28.4999 22.5 27.7718 22.5C27.0437 22.5 26.4534 23.0902 26.4534 23.8184C26.4534 24.5465 27.0437 25.1367 27.7718 25.1367Z" fill="#005DAC"/>
<path d="M33.0449 25.1367C33.773 25.1367 34.3632 24.5465 34.3632 23.8184C34.3632 23.0902 33.773 22.5 33.0449 22.5C32.3168 22.5 31.7265 23.0902 31.7265 23.8184C31.7265 24.5465 32.3168 25.1367 33.0449 25.1367Z" fill="#005DAC"/>
</g>
<defs>
<clipPath id="clip0_447_203">
<rect width="45" height="45" fill="white"/>
</clipPath>
</defs>
</svg>
