<svg width="26" height="26" viewBox="0 0 26 26" fill="none" xmlns="http://www.w3.org/2000/svg">
<path d="M4.48548 9.56445L1.72921 12.3207C1.26231 12.7876 1 13.4209 1 14.0811V23.5064C1 24.3314 1.66876 25.0001 2.49378 25.0001H23.5062C24.3312 25.0001 25 24.3314 25 23.5064V14.0811C25 13.4209 24.7377 12.7876 24.2708 12.3207L21.5145 9.56445" stroke="#005DAC" stroke-width="1.5" stroke-miterlimit="10" stroke-linecap="round" stroke-linejoin="round"/>
<path d="M4.48548 14.9377V1H21.5145V14.9377" stroke="#005DAC" stroke-width="1.5" stroke-miterlimit="10" stroke-linecap="round" stroke-linejoin="round"/>
<path d="M14.8992 9.48958C14.8992 11.1029 13.9092 12.311 12.7238 12.311C11.5384 12.311 10.4902 11.1196 10.4902 9.50631C10.4902 7.89304 11.5966 6.81812 12.7821 6.81812C13.9674 6.81817 14.8992 7.87631 14.8992 9.48958Z" stroke="#005DAC" stroke-width="1.5" stroke-miterlimit="10" stroke-linecap="round" stroke-linejoin="round"/>
<path d="M12.8857 15.0415C10.528 14.9763 8.37821 13.3806 7.73987 10.9534C7.00309 8.15191 8.61452 5.22585 11.3748 4.34722C14.2943 3.41789 17.399 5.06029 18.2811 7.98292C18.5932 9.15234 18.4111 10.1697 17.9974 11.2097C17.8334 11.6221 17.2926 12.5874 16.0894 12.5874C15.4326 12.5874 14.885 11.9579 14.8886 11.2329L14.9124 6.92622" stroke="#005DAC" stroke-width="1.5" stroke-miterlimit="10" stroke-linecap="round" stroke-linejoin="round"/>
<path d="M24.8184 13.1484L13 19.5231L1.18159 13.1484" stroke="#005DAC" stroke-width="1.5" stroke-miterlimit="10" stroke-linecap="round" stroke-linejoin="round"/>
</svg>
