<svg width="44" height="44" viewBox="0 0 44 44" fill="none" xmlns="http://www.w3.org/2000/svg">
<g clip-path="url(#clip0_815_119)">
<path d="M24.9706 43.9141H17.9107C16.7314 43.9141 15.7721 42.9567 15.7721 41.7797V25.8867H11.6532C10.4739 25.8867 9.51468 24.9289 9.51468 23.7523V16.9421C9.51468 15.7652 10.4739 14.8078 11.6532 14.8078H15.7721V11.3975C15.7721 8.01602 16.836 5.13913 18.8484 3.07831C20.8699 1.00809 23.6949 -0.0859375 27.018 -0.0859375L32.4023 -0.0772095C33.5795 -0.0751953 34.5371 0.882202 34.5371 2.05713V8.38025C34.5371 9.55719 33.5782 10.5146 32.3993 10.5146L28.7741 10.5159C27.6685 10.5159 27.387 10.7372 27.3268 10.805C27.2276 10.9174 27.1095 11.2353 27.1095 12.1132V14.8074H32.1268C32.5046 14.8074 32.8705 14.9004 33.185 15.0757C33.8634 15.454 34.2852 16.1693 34.2852 16.9424L34.2825 23.7527C34.2825 24.9289 33.3232 25.8863 32.144 25.8863H27.1095V41.7797C27.1095 42.9567 26.1499 43.9141 24.9706 43.9141ZM18.3567 41.3346H24.5246V24.7319C24.5246 23.946 25.1654 23.3069 25.9525 23.3069H31.698L31.7003 17.3872H25.9521C25.1651 17.3872 24.5246 16.7481 24.5246 15.9622V12.1132C24.5246 11.1054 24.6272 9.95935 25.3894 9.09796C26.3103 8.05664 27.7617 7.93646 28.7734 7.93646L31.9526 7.93512V2.50159L27.016 2.49353C21.6754 2.49353 18.3567 5.90552 18.3567 11.3975V15.9622C18.3567 16.7477 17.7162 17.3872 16.9292 17.3872H12.0992V23.3069H16.9292C17.7162 23.3069 18.3567 23.946 18.3567 24.7319V41.3346Z" fill="#005DAC"/>
</g>
<defs>
<clipPath id="clip0_815_119">
<rect width="44" height="44" fill="white"/>
</clipPath>
</defs>
</svg>
