<svg width="44" height="38" viewBox="0 0 44 38" fill="none" xmlns="http://www.w3.org/2000/svg">
<path d="M42.9688 16.25C42.5264 15.6391 41.9431 15.144 41.2685 14.8067C40.5939 14.4694 39.8479 14.2998 39.0938 14.3125H38.5938V11.1875C38.5939 10.5639 38.4696 9.94662 38.2282 9.37171C37.9868 8.7968 37.6331 8.27583 37.1878 7.83931C36.7426 7.40279 36.2147 7.05948 35.6351 6.8295C35.0556 6.59952 34.4359 6.48749 33.8125 6.49996H23.6875C23.3087 6.49772 22.941 6.3715 22.6406 6.14059L16.3906 1.26559C15.5352 0.606919 14.4859 0.249817 13.4063 0.249961H4.90626C4.28284 0.23749 3.6632 0.349525 3.08362 0.579504C2.50404 0.809483 1.97617 1.15278 1.53092 1.58931C1.08567 2.02583 0.731981 2.5468 0.490572 3.12171C0.249162 3.69662 0.124881 4.31392 0.125006 4.93746V33.0625C0.123648 33.9274 0.373329 34.7741 0.843756 35.5C1.27611 36.1873 1.87534 36.754 2.58565 37.1474C3.29597 37.5408 4.09427 37.7481 4.90626 37.75H34.5938C35.614 37.7754 36.6146 37.4672 37.4437 36.8722C38.2728 36.2771 38.8851 35.4278 39.1875 34.4531L43.6563 20.3906C43.8713 19.6945 43.9212 18.9578 43.8018 18.239C43.6825 17.5203 43.3973 16.8392 42.9688 16.25ZM3.25001 4.93746C3.24962 4.72414 3.29292 4.513 3.37724 4.31704C3.46156 4.12109 3.58511 3.94448 3.74028 3.79809C3.89545 3.65171 4.07896 3.53864 4.27948 3.46587C4.48001 3.3931 4.69332 3.36216 4.90626 3.37496H13.4063C13.7903 3.37494 14.1636 3.50122 14.4688 3.73434L20.7188 8.60934C21.5682 9.26789 22.6126 9.62519 23.6875 9.62496H33.8125C34.0254 9.61216 34.2388 9.6431 34.4393 9.71587C34.6398 9.78864 34.8233 9.90171 34.9785 10.0481C35.1336 10.1945 35.2572 10.3711 35.3415 10.567C35.4258 10.763 35.4691 10.9741 35.4688 11.1875V14.3125H10.4688C9.45648 14.2973 8.4665 14.6103 7.64689 15.2045C6.82729 15.7988 6.22211 16.6425 5.92188 17.6093L3.25001 26.0937V4.93746ZM40.75 19.4531L36.2813 33.5156C36.181 33.8477 35.9729 34.1371 35.69 34.3379C35.4071 34.5388 35.0654 34.6398 34.7188 34.625H5.03126C4.67885 34.6242 4.33521 34.5151 4.04688 34.3125L9.04688 18.5468C9.14718 18.2147 9.35519 17.9254 9.6381 17.7245C9.92101 17.5236 10.2627 17.4226 10.6094 17.4375H39.0938C39.3571 17.4356 39.6171 17.4954 39.8532 17.6121C40.0892 17.7288 40.2947 17.8991 40.4531 18.1093C40.6019 18.2958 40.706 18.5138 40.7575 18.7468C40.8089 18.9797 40.8064 19.2213 40.75 19.4531Z" fill="#005DAC"/>
</svg>
