<svg width="36" height="36" viewBox="0 0 36 36" fill="none" xmlns="http://www.w3.org/2000/svg">
<path d="M28.5 16.725V8.85005C28.5 7.65005 27.525 6.67505 26.325 6.67505H4.425C3.225 6.67505 2.25 7.65005 2.25 8.85005V21.75C2.25 22.95 3.225 23.925 4.425 23.925H18C18.45 23.925 18.75 23.625 18.75 23.175C18.75 22.725 18.45 22.425 18 22.425H4.425C4.05 22.425 3.75 22.125 3.75 21.75V9.30005L14.175 16.5C14.55 16.725 14.925 16.875 15.375 16.875C15.825 16.875 16.2 16.725 16.575 16.5L27 9.30005V16.65C23.7 16.875 21.075 19.65 21.075 23.025C21.375 31.5 33.525 31.5 33.825 23.025C33.75 19.8 31.5 17.175 28.5 16.725ZM15.675 15.225C15.45 15.375 15.15 15.375 15 15.225L4.725 8.17505H25.95L15.675 15.225ZM27.375 27.825C24.675 27.825 22.5 25.65 22.5 22.9501C22.725 16.5 32.025 16.5 32.25 22.9501C32.25 25.65 30.075 27.825 27.375 27.825ZM30.375 22.9501C30.375 23.4 30.075 23.7001 29.625 23.7001H28.125V25.2C28.125 25.65 27.825 25.95 27.375 25.95C26.925 25.95 26.625 25.65 26.625 25.2V23.7001H25.125C24.675 23.7001 24.375 23.4 24.375 22.9501C24.375 22.5 24.675 22.2 25.125 22.2H26.625V20.7C26.625 20.25 26.925 19.95 27.375 19.95C27.825 19.95 28.125 20.25 28.125 20.7V22.2H29.625C30.075 22.2 30.375 22.575 30.375 22.9501Z" fill="#005DAC"/>
</svg>
