<svg width="42" height="42" viewBox="0 0 42 42" fill="none" xmlns="http://www.w3.org/2000/svg">
<path d="M31.3236 6.1068C31.3722 6.12965 31.4253 6.14149 31.479 6.14149C31.5327 6.14149 31.5858 6.12965 31.6344 6.1068C31.7268 6.0606 31.7688 5.9724 31.815 5.838C31.9032 5.2584 31.9494 4.4562 31.458 3.9648C30.2946 2.8056 27.573 4.2756 26.145 5.3046C26.1246 5.31315 26.1061 5.32563 26.0905 5.34134C26.0749 5.35705 26.0626 5.37567 26.0542 5.39615C26.0458 5.41662 26.0415 5.43855 26.0416 5.46068C26.0417 5.4828 26.0462 5.50469 26.0547 5.5251C26.0632 5.54551 26.0757 5.56403 26.0914 5.57961C26.1071 5.5952 26.1258 5.60753 26.1462 5.61592C26.1667 5.6243 26.1886 5.62857 26.2108 5.62848C26.2329 5.6284 26.2548 5.62395 26.2752 5.6154C27.9691 5.33035 29.7083 5.49992 31.3152 6.1068H31.3236ZM33.243 7.14C34.3399 7.86874 35.2761 8.81404 35.9943 9.91784C36.7125 11.0216 37.1974 12.2606 37.4192 13.5587C37.6411 14.8567 37.5952 16.1864 37.2844 17.4661C36.9735 18.7457 36.4044 19.9483 35.6118 21C35.4639 21.1955 35.3695 21.426 35.3379 21.6691C35.3062 21.9121 35.3384 22.1592 35.4312 22.386L35.8512 23.3646C35.8651 23.4262 35.899 23.4815 35.9476 23.5217C35.9963 23.562 36.0569 23.585 36.12 23.5872L36.7878 23.6796C36.92 23.6992 37.0442 23.7552 37.1465 23.8412C37.2489 23.9272 37.3253 24.0399 37.3674 24.1668C37.6362 24.7044 37.8588 25.3302 38.0856 25.9098C38.1301 26.0298 38.141 26.1597 38.1174 26.2854C38.0937 26.4112 38.0362 26.5282 37.9512 26.6238C37.8168 26.8002 37.6362 27.0438 37.5018 27.2034C37.4687 27.256 37.454 27.318 37.4598 27.3798L37.5018 27.4722C37.5215 27.5306 37.5571 27.5824 37.6046 27.6217C37.652 27.661 37.7095 27.6863 37.7706 27.6948L38.4426 27.783C38.575 27.8039 38.6991 27.8608 38.8013 27.9474C38.9035 28.0341 38.9799 28.1472 39.0222 28.2744C39.291 28.8078 39.5136 29.4336 39.7362 30.0132C39.7816 30.1331 39.7931 30.2631 39.7694 30.3891C39.7456 30.5151 39.6877 30.632 39.6018 30.7272C39.4735 30.9007 39.3332 31.0649 39.1818 31.2186C39.1209 31.3499 39.1061 31.4979 39.1398 31.6386L39.7656 33.0666C39.9077 33.471 39.9381 33.9063 39.8538 34.3266L39.0936 38.1654C39.0255 38.5248 38.8667 38.8609 38.6322 39.1417C38.3977 39.4225 38.0953 39.6387 37.7538 39.7698C37.4235 39.9037 37.0635 39.9474 36.7108 39.8964C36.3581 39.8455 36.0252 39.7018 35.7462 39.48L32.529 37.2498C32.1712 37.028 31.891 36.7008 31.7268 36.3132L27.4386 25.6494C27.3444 25.4196 27.1917 25.2185 26.9957 25.066C26.7997 24.9135 26.5673 24.8149 26.3214 24.78C25.4518 24.6378 24.6046 24.3823 23.8014 24.0198C23.768 23.997 23.7284 23.9849 23.688 23.9849C23.6476 23.9849 23.608 23.997 23.5746 24.0198C22.1059 24.3241 20.5878 24.2969 19.131 23.94C18.8889 23.874 18.6337 23.8722 18.3907 23.9348C18.1477 23.9974 17.9251 24.1222 17.745 24.297L17.031 25.0572C16.9871 25.0944 16.9553 25.1438 16.9396 25.1992C16.9239 25.2545 16.925 25.3133 16.9428 25.368L17.1234 26.04C17.1434 26.1684 17.1334 26.2998 17.094 26.4237C17.0546 26.5476 16.9871 26.6607 16.8966 26.754L15.54 28.1022C15.4441 28.1871 15.3292 28.2479 15.2049 28.2793C15.0807 28.3107 14.9508 28.3119 14.826 28.2828C14.6034 28.1946 14.3346 28.1484 14.112 28.0602C14.0502 28.054 13.988 28.0688 13.9356 28.1022L13.8894 28.1946C13.8425 28.2397 13.8093 28.2972 13.7937 28.3603C13.7781 28.4235 13.7807 28.4898 13.8012 28.5516L13.9356 29.1732C13.9756 29.2972 13.9799 29.4299 13.948 29.5562C13.9161 29.6825 13.8492 29.7972 13.755 29.8872L12.432 31.227C12.342 31.3212 12.2273 31.3881 12.101 31.42C11.9747 31.4519 11.842 31.4476 11.718 31.4076C11.5161 31.3262 11.3064 31.2657 11.0922 31.227C11.0304 31.2065 10.9641 31.2039 10.9009 31.2195C10.8378 31.2351 10.7803 31.2683 10.7352 31.3152L9.618 32.4324C9.32608 32.7271 8.95341 32.9288 8.547 33.012L4.7082 33.8142C4.35842 33.896 3.9934 33.8856 3.64885 33.784C3.3043 33.6824 2.99203 33.4931 2.7426 33.2346C2.4809 32.9882 2.28905 32.677 2.18651 32.3325C2.08398 31.988 2.07442 31.6226 2.1588 31.2732L2.94 27.4344C3.03383 27.0183 3.23347 26.6335 3.5196 26.3172L11.6718 18.1986C11.8492 18.0292 11.9732 17.8117 12.0288 17.5728C12.1213 17.3438 12.1213 17.0878 12.0288 16.8588C11.6382 15.2369 11.667 13.5423 12.1122 11.9346C12.5575 10.3269 13.4047 8.85904 14.574 7.6692C16.2742 5.96188 18.5549 4.95725 20.9622 4.8552C21.0572 4.84464 21.1533 4.85408 21.2445 4.88293C21.3356 4.91178 21.4197 4.95938 21.4913 5.02268C21.5629 5.08598 21.6204 5.16358 21.6602 5.25047C21.7001 5.33736 21.7212 5.43163 21.7224 5.5272C21.7323 5.62186 21.7224 5.71756 21.6933 5.80818C21.6642 5.89879 21.6165 5.98234 21.5532 6.05348C21.49 6.12462 21.4126 6.1818 21.326 6.22135C21.2394 6.2609 21.1456 6.28197 21.0504 6.2832C19.8332 6.33891 18.6437 6.66466 17.568 7.23686C16.4923 7.80906 15.5573 8.61338 14.8308 9.59154C14.1043 10.5697 13.6045 11.6972 13.3676 12.8924C13.1307 14.0876 13.1626 15.3205 13.461 16.5018C13.557 16.9904 13.5412 17.4944 13.4148 17.976C13.2856 18.449 13.0401 18.8821 12.7008 19.236L4.5276 27.3462C4.45095 27.4561 4.39015 27.5763 4.347 27.7032L3.5448 31.584C3.52355 31.6974 3.53094 31.8143 3.56631 31.9241C3.60167 32.0339 3.66389 32.1331 3.74732 32.2128C3.83075 32.2925 3.93275 32.3501 4.04407 32.3804C4.15539 32.4106 4.27251 32.4126 4.3848 32.3862L8.2278 31.6302C8.29936 31.6195 8.36797 31.5942 8.42937 31.5559C8.49077 31.5176 8.54367 31.4671 8.5848 31.4076L10.101 29.8872C10.1974 29.7871 10.3182 29.714 10.4515 29.6749C10.5849 29.6359 10.7261 29.6323 10.8612 29.6646L11.487 29.8452C11.5491 29.8652 11.6157 29.8672 11.6789 29.8508C11.7421 29.8344 11.7994 29.8005 11.844 29.7528L12.2892 29.3076C12.3361 29.2625 12.3693 29.205 12.3849 29.1419C12.4005 29.0787 12.3979 29.0124 12.3774 28.9506L12.201 28.2828C12.1717 28.1618 12.1771 28.035 12.2165 27.917C12.2558 27.7989 12.3276 27.6942 12.4236 27.615L13.2636 26.775C13.3432 26.6665 13.4555 26.5863 13.584 26.5463C13.7125 26.5062 13.8504 26.5084 13.9776 26.5524L14.6496 26.7288C14.7047 26.7353 14.7605 26.7309 14.8138 26.7158C14.8672 26.7006 14.917 26.6751 14.9604 26.6406L15.4098 26.1954C15.4593 26.1494 15.4969 26.0922 15.5196 26.0286C15.5423 25.965 15.5493 25.8969 15.54 25.83L15.3804 25.2C15.3293 25.0778 15.3189 24.9424 15.3507 24.8139C15.3824 24.6853 15.4547 24.5704 15.5568 24.486L16.7202 23.2806C17.0814 22.9329 17.5239 22.6812 18.0074 22.5484C18.4909 22.4156 18.9999 22.406 19.488 22.5204C20.8688 22.8636 22.3143 22.8491 23.688 22.4784C25.3367 22.0135 26.8003 21.0482 27.8767 19.7157C28.9531 18.3832 29.5892 16.7493 29.6971 15.0398C29.805 13.3303 29.3793 11.6294 28.479 10.1722C27.5786 8.71493 26.2479 7.57324 24.6708 6.9048C24.5993 6.88038 24.5226 6.87568 24.4487 6.89121C24.3748 6.90673 24.3064 6.94189 24.2508 6.993C23.3957 7.92155 22.6875 8.97531 22.1508 10.1178C22.1306 10.1675 22.1217 10.221 22.1247 10.2746C22.1278 10.3281 22.1427 10.3803 22.1684 10.4274C22.1942 10.4744 22.2301 10.5152 22.2735 10.5466C22.317 10.5781 22.3669 10.5994 22.4196 10.6092C23.1558 10.7474 23.8326 11.1063 24.36 11.6382C25.0267 12.3168 25.4002 13.23 25.4002 14.1813C25.4002 15.1326 25.0267 16.0458 24.36 16.7244C24.0283 17.0632 23.6324 17.3324 23.1953 17.5162C22.7583 17.7 22.2889 17.7946 21.8148 17.7946C21.3407 17.7946 20.8713 17.7 20.4343 17.5162C19.9972 17.3324 19.6013 17.0632 19.2696 16.7244C18.8489 16.3135 18.5352 15.8058 18.3559 15.2458C18.1765 14.6857 18.1369 14.0903 18.2406 13.5114C18.2885 13.3337 18.4016 13.1806 18.5574 13.0827C18.7132 12.9848 18.9002 12.9492 19.0811 12.9832C19.2619 13.0171 19.4233 13.1181 19.533 13.2658C19.6427 13.4136 19.6926 13.5973 19.6728 13.7802C19.603 14.1269 19.6239 14.4858 19.7336 14.8221C19.8432 15.1584 20.0378 15.4606 20.2986 15.6996C20.6848 16.0868 21.2044 16.3117 21.7511 16.3281C22.2977 16.3445 22.8299 16.1512 23.2386 15.7878C23.2957 15.7425 23.3371 15.6805 23.3571 15.6104C23.3771 15.5404 23.3746 15.4658 23.3501 15.3972C23.3255 15.3286 23.2801 15.2695 23.2202 15.228C23.1602 15.1866 23.0888 15.165 23.016 15.1662C22.2948 15.1314 21.6115 14.8324 21.0966 14.3262C20.3826 13.6122 20.16 12.5412 20.3364 11.3358C20.6514 9.1938 22.2138 7.0056 23.6964 5.5356C24.991 4.15238 26.5942 3.09464 28.3752 2.4486C30.0552 1.869 31.5462 2.0034 32.4828 2.94C33.4194 3.8766 33.4656 5.439 33.1086 6.72C33.0858 6.79217 33.0866 6.8697 33.1107 6.94142C33.1349 7.01314 33.1812 7.07532 33.243 7.119V7.14ZM22.1256 13.2888C22.3145 13.4877 22.5672 13.614 22.8396 13.6458C23.8644 13.8684 24.045 13.3812 23.331 12.6672C23.0622 12.3984 22.1676 11.8272 21.8568 12.1296C21.546 12.432 21.8988 13.0662 22.1256 13.2888ZM7.6104 29.3538C7.47395 29.4903 7.28888 29.5669 7.0959 29.5669C6.90293 29.5669 6.71785 29.4903 6.5814 29.3538C6.44495 29.2173 6.36829 29.0323 6.36829 28.8393C6.36829 28.6463 6.44495 28.4613 6.5814 28.3248L12.789 22.1676C12.9255 22.0311 13.1105 21.9545 13.3035 21.9545C13.4965 21.9545 13.6815 22.0311 13.818 22.1676C13.9545 22.3041 14.0311 22.4891 14.0311 22.6821C14.0311 22.8751 13.9545 23.0601 13.818 23.1966L7.6104 29.3538ZM26.7666 23.373C27.2196 23.4753 27.6403 23.6879 27.9912 23.992C28.3422 24.2961 28.6126 24.6822 28.7784 25.116L33.0666 35.7798C33.13 35.9022 33.2205 36.0084 33.3312 36.0906L36.54 38.3208C36.6385 38.3863 36.7514 38.427 36.869 38.4392C36.9867 38.4515 37.1055 38.4351 37.2154 38.3913C37.3253 38.3475 37.4229 38.2777 37.4998 38.1879C37.5768 38.098 37.6308 37.9909 37.6572 37.8756L38.4258 34.02C38.4466 33.9505 38.4533 33.8775 38.4453 33.8053C38.4374 33.7332 38.415 33.6633 38.3796 33.6L37.5774 31.584C37.5331 31.4668 37.518 31.3405 37.5333 31.2161C37.5487 31.0917 37.5941 30.9729 37.6656 30.87L38.0856 30.3366C38.1738 30.2022 38.22 30.0678 38.1738 29.9796L37.8882 29.4C37.8737 29.3387 37.8396 29.2839 37.7911 29.2437C37.7426 29.2035 37.6823 29.1803 37.6194 29.1774L36.96 29.0388C36.8284 29.0366 36.701 28.9922 36.5966 28.912C36.4922 28.8318 36.4164 28.7202 36.3804 28.5936L35.931 27.4806C35.8788 27.357 35.8596 27.2221 35.875 27.0889C35.8905 26.9557 35.9401 26.8287 36.0192 26.7204L36.4392 26.229C36.4767 26.1784 36.5006 26.119 36.5087 26.0565C36.5168 25.994 36.5088 25.9305 36.4854 25.872L36.2628 25.2462C36.2051 25.1403 36.1088 25.0606 35.994 25.0236L35.28 24.9354C35.1484 24.9332 35.021 24.8888 34.9166 24.8086C34.8122 24.7284 34.7364 24.6168 34.7004 24.4902L34.0746 22.9278C33.8781 22.4768 33.8082 21.9808 33.8726 21.4931C33.937 21.0054 34.1332 20.5445 34.44 20.16C35.3355 18.9803 35.8966 17.5812 36.0645 16.1096C36.2324 14.6381 36.0007 13.1485 35.394 11.7975C34.7872 10.4464 33.8277 9.28373 32.6162 8.43165C31.4048 7.57957 29.9862 7.06955 28.5096 6.9552C28.4377 6.95659 28.3678 6.97867 28.3082 7.01878C28.2485 7.0589 28.2017 7.11537 28.1734 7.18141C28.145 7.24745 28.1363 7.32026 28.1482 7.39113C28.1602 7.46201 28.1923 7.52793 28.2408 7.581L28.5096 7.8456C30.2192 9.65325 31.163 12.0524 31.143 14.5404C31.1392 16.1658 30.7287 17.7644 29.9489 19.1905C29.1691 20.6166 28.0448 21.8249 26.6784 22.7052C26.6125 22.7386 26.5585 22.7917 26.524 22.8571C26.4896 22.9225 26.4763 22.997 26.4859 23.0703C26.4956 23.1436 26.5278 23.2121 26.5781 23.2663C26.6284 23.3206 26.6942 23.3578 26.7666 23.373ZM36.1452 33.726C36.5022 34.6164 35.1204 35.154 34.7634 34.2594L31.458 26.04C31.101 25.2 32.4828 24.612 32.844 25.5024L36.1452 33.726Z" fill="#005DAC"/>
</svg>
