<svg width="31" height="31" viewBox="0 0 31 31" fill="none" xmlns="http://www.w3.org/2000/svg">
<path d="M30.1109 0.889728C29.7937 0.57176 29.4098 0.328386 28.9869 0.17727C28.564 0.0261547 28.1127 -0.0289123 27.6659 0.0160664C26.0557 0.172145 24.5502 0.884548 23.4084 2.0307L18.3034 7.13576L5.10718 4.23442C4.71667 4.1499 4.31114 4.16534 3.92819 4.27932C3.54523 4.39329 3.19725 4.60211 2.91651 4.88641L1.3713 6.42509C1.17536 6.61822 1.02837 6.85536 0.942563 7.11676C0.856757 7.37816 0.834617 7.65627 0.877984 7.92796C0.921352 8.19964 1.02897 8.45704 1.19189 8.67874C1.35481 8.90044 1.56832 9.08002 1.81465 9.20256L11.4249 14.0207L7.67601 17.7697L3.72497 18.1674C3.37904 18.2053 3.05262 18.3468 2.78845 18.5733C2.52429 18.7999 2.3347 19.1009 2.2445 19.4371C2.15431 19.7732 2.16771 20.1287 2.28297 20.4571C2.39822 20.7854 2.60995 21.0713 2.89043 21.2773L6.88059 24.107L9.72325 28.1102C9.92745 28.3952 10.2135 28.6113 10.5435 28.7299C10.8734 28.8484 11.2316 28.8638 11.5705 28.7739C11.9094 28.6841 12.2129 28.4933 12.4408 28.2268C12.6687 27.9603 12.8101 27.6309 12.8463 27.2821L13.244 23.3311L16.9929 19.5822L21.798 29.1859C21.9205 29.4304 22.0992 29.6423 22.3195 29.8042C22.5398 29.9661 22.7954 30.0735 23.0653 30.1174C23.3351 30.1613 23.6116 30.1405 23.8718 30.0568C24.1321 29.9731 24.3688 29.8288 24.5625 29.6358L26.1207 28.1102C26.4055 27.8298 26.6147 27.4818 26.7287 27.0988C26.8427 26.7157 26.8578 26.31 26.7727 25.9195L23.8779 12.6972L28.9699 7.59215C30.116 6.45042 30.8285 4.94492 30.9845 3.33468C31.03 2.88782 30.9751 2.43645 30.824 2.01348C30.6728 1.5905 30.4292 1.20659 30.1109 0.889728ZM27.6007 6.20342L22.3848 11.4193C22.1784 11.6231 22.0271 11.876 21.945 12.1542C21.8629 12.4324 21.8527 12.7269 21.9154 13.0102L24.8298 26.3302C24.8462 26.3995 24.8446 26.4718 24.8252 26.5403C24.8058 26.6087 24.7692 26.6711 24.7189 26.7214L23.415 28.0254L18.5968 18.4151C18.4747 18.1708 18.2964 17.9589 18.0765 17.7968C17.8566 17.6348 17.6015 17.5271 17.3319 17.4828C17.2408 17.4752 17.1492 17.4752 17.0581 17.4828C16.6004 17.4841 16.1619 17.667 15.8389 17.9913L11.8096 22.0206C11.5283 22.3029 11.3533 22.6737 11.3141 23.0703L10.9685 26.4932L8.47143 22.966C8.35821 22.8091 8.21935 22.6725 8.06068 22.5618L4.53996 20.0647L7.96289 19.7191C8.35946 19.6799 8.7303 19.5049 9.01258 19.2236L13.0419 15.1943C13.2349 15.0007 13.3792 14.764 13.4629 14.5037C13.5466 14.2434 13.5674 13.967 13.5234 13.6971C13.4795 13.4273 13.3722 13.1717 13.2103 12.9514C13.0483 12.7311 12.8364 12.5524 12.592 12.4299L2.97519 7.58563L4.27916 6.28166C4.33018 6.23237 4.39259 6.19646 4.46084 6.17712C4.52909 6.15778 4.60106 6.15562 4.67035 6.17082L17.9904 9.0852C18.2731 9.14872 18.5673 9.13958 18.8455 9.05863C19.1237 8.97768 19.3768 8.82757 19.5813 8.62229L24.7972 3.4064C25.623 2.58117 26.7119 2.07134 27.8746 1.96551C28.0313 1.95153 28.1892 1.97212 28.3372 2.02583C28.4851 2.07954 28.6195 2.16505 28.7308 2.27634C28.8421 2.38763 28.9276 2.52199 28.9813 2.66993C29.035 2.81787 29.0556 2.9758 29.0416 3.13256C28.934 4.29609 28.4218 5.38506 27.5942 6.20994L27.6007 6.20342Z" fill="#005DAC"/>
</svg>
