<svg width="22" height="22" viewBox="0 0 22 22" fill="none" xmlns="http://www.w3.org/2000/svg">
<g opacity="0.3" clip-path="url(#clip0_164_360)">
<path d="M0.35164 11.8548L8.29662 19.8C8.52341 20.0268 8.82568 20.1512 9.14799 20.1512C9.47065 20.1512 9.77275 20.0266 9.99954 19.8L10.7209 19.0784C10.9475 18.852 11.0723 18.5495 11.0723 18.2271C11.0723 17.9048 10.9475 17.5921 10.7209 17.3657L6.0859 12.7205L20.8115 12.7205C21.4754 12.7205 22 12.2007 22 11.5366L22 10.5166C22 9.85247 21.4754 9.28029 20.8115 9.28029L6.03332 9.28029L10.7207 4.60918C10.9473 4.38238 11.0722 4.08815 11.0722 3.76567C11.0722 3.44354 10.9473 3.14502 10.7207 2.91841L9.99937 2.19921C9.77257 1.97242 9.47048 1.84882 9.14781 1.84882C8.82551 1.84882 8.52323 1.97403 8.29644 2.20082L0.35146 10.1458C0.124129 10.3733 -0.000893718 10.677 8.0004e-07 10.9999C-0.000714484 11.3238 0.124129 11.6277 0.35164 11.8548Z" fill="black"/>
</g>
<defs>
<clipPath id="clip0_164_360">
<rect width="22" height="22" fill="white" transform="translate(22 22) rotate(-180)"/>
</clipPath>
</defs>
</svg>
