<svg width="34" height="34" viewBox="0 0 34 34" fill="none" xmlns="http://www.w3.org/2000/svg">
<g clip-path="url(#clip0_164_391)">
<path d="M23.1202 12.4875C22.8917 12.4875 22.6726 12.3967 22.511 12.2351C22.3494 12.0736 22.2586 11.8544 22.2586 11.6259V6.90431C22.2586 6.6758 22.1679 6.45665 22.0063 6.29507C21.8447 6.13349 21.6256 6.04271 21.397 6.04271H18.3383C18.1098 6.04271 17.8907 5.95193 17.7291 5.79035C17.5675 5.62877 17.4767 5.40962 17.4767 5.18111C17.4767 4.9526 17.5675 4.73344 17.7291 4.57186C17.8907 4.41028 18.1098 4.3195 18.3383 4.3195H21.397C22.0826 4.3195 22.74 4.59183 23.2248 5.07658C23.7095 5.56132 23.9818 6.21878 23.9818 6.90431V11.6259C23.9818 11.8544 23.8911 12.0736 23.7295 12.2351C23.5679 12.3967 23.3488 12.4875 23.1202 12.4875Z" fill="#005DAC"/>
<path d="M15.4686 34H2.58481C1.89927 34 1.24182 33.7277 0.757073 33.2429C0.272327 32.7582 0 32.1007 0 31.4152V6.90431C0 6.21878 0.272327 5.56132 0.757073 5.07658C1.24182 4.59183 1.89927 4.3195 2.58481 4.3195H5.6435C5.87201 4.3195 6.09116 4.41028 6.25275 4.57186C6.41433 4.73344 6.5051 4.9526 6.5051 5.18111C6.5051 5.40962 6.41433 5.62877 6.25275 5.79035C6.09116 5.95193 5.87201 6.04271 5.6435 6.04271H2.58481C2.3563 6.04271 2.13715 6.13349 1.97556 6.29507C1.81398 6.45665 1.72321 6.6758 1.72321 6.90431V31.4152C1.72321 31.6437 1.81398 31.8629 1.97556 32.0244C2.13715 32.186 2.3563 32.2768 2.58481 32.2768H15.4686C15.6972 32.2768 15.9163 32.3676 16.0779 32.5292C16.2395 32.6907 16.3302 32.9099 16.3302 33.1384C16.3302 33.3669 16.2395 33.5861 16.0779 33.7476C15.9163 33.9092 15.6972 34 15.4686 34Z" fill="#005DAC"/>
<path d="M5.86351 15.3831C5.7503 15.383 5.63821 15.3607 5.53364 15.3173C5.42907 15.274 5.33407 15.2104 5.25407 15.1303L3.61989 13.4962C3.53986 13.4162 3.47637 13.3212 3.43304 13.2167C3.38971 13.1121 3.3674 13.0001 3.36737 12.8869C3.36734 12.7738 3.38961 12.6617 3.43288 12.5572C3.47616 12.4526 3.53961 12.3576 3.61961 12.2776C3.6996 12.1975 3.79458 12.134 3.89911 12.0907C4.00364 12.0474 4.11569 12.0251 4.22884 12.025C4.342 12.025 4.45405 12.0473 4.55861 12.0906C4.66316 12.1338 4.75817 12.1973 4.8382 12.2773L5.86351 13.3032L8.30586 10.8579C8.46757 10.6961 8.68696 10.6051 8.91576 10.605C9.14456 10.6049 9.36403 10.6956 9.52589 10.8574C9.68776 11.0191 9.77875 11.2385 9.77886 11.4673C9.77897 11.6961 9.68818 11.9155 9.52647 12.0774L6.47237 15.1309C6.31085 15.2923 6.09186 15.383 5.86351 15.3831Z" fill="#005DAC"/>
<path d="M5.86353 22.5189C5.75036 22.5189 5.63829 22.4967 5.53372 22.4534C5.42916 22.4101 5.33413 22.3467 5.25409 22.2667L3.61991 20.632C3.46297 20.4695 3.37612 20.2518 3.37808 20.0259C3.38005 19.8 3.47066 19.5839 3.63041 19.4241C3.79016 19.2644 4.00626 19.1738 4.23217 19.1718C4.45808 19.1699 4.67572 19.2567 4.83822 19.4136L5.86353 20.439L8.30589 17.9937C8.46839 17.8368 8.68603 17.7499 8.91194 17.7519C9.13785 17.7539 9.35395 17.8445 9.5137 18.0042C9.67344 18.164 9.76406 18.3801 9.76602 18.606C9.76798 18.8319 9.68114 19.0495 9.52419 19.212L6.4701 22.2661C6.39061 22.3461 6.29611 22.4096 6.19202 22.453C6.08793 22.4964 5.97629 22.5187 5.86353 22.5189Z" fill="#005DAC"/>
<path d="M5.86351 29.6541C5.75035 29.6541 5.63828 29.6319 5.53371 29.5886C5.42914 29.5453 5.33412 29.4819 5.25407 29.4019L3.6199 27.7672C3.53263 27.6889 3.46224 27.5937 3.41304 27.4873C3.36383 27.381 3.33685 27.2657 3.33374 27.1485C3.33063 27.0313 3.35145 26.9148 3.39494 26.8059C3.43843 26.6971 3.50366 26.5983 3.58666 26.5155C3.66965 26.4328 3.76865 26.3678 3.87762 26.3246C3.98658 26.2814 4.1032 26.2609 4.22035 26.2644C4.33751 26.2678 4.45273 26.2951 4.55896 26.3446C4.6652 26.3942 4.76022 26.4648 4.83821 26.5523L5.86351 27.5776L8.30587 25.1307C8.46837 24.9737 8.68601 24.8869 8.91192 24.8888C9.13783 24.8908 9.35393 24.9814 9.51368 25.1412C9.67343 25.3009 9.76404 25.517 9.76601 25.7429C9.76797 25.9688 9.68113 26.1865 9.52418 26.349L6.47008 29.4031C6.30894 29.5635 6.0909 29.6537 5.86351 29.6541Z" fill="#005DAC"/>
<path d="M19.3797 12.329H12.364C12.1355 12.329 11.9163 12.2382 11.7547 12.0766C11.5932 11.915 11.5024 11.6959 11.5024 11.4674C11.5024 11.2389 11.5932 11.0197 11.7547 10.8581C11.9163 10.6965 12.1355 10.6058 12.364 10.6058H19.3797C19.4929 10.6058 19.6049 10.628 19.7095 10.6713C19.814 10.7146 19.909 10.7781 19.989 10.8581C20.069 10.9381 20.1324 11.0331 20.1757 11.1376C20.219 11.2422 20.2413 11.3542 20.2413 11.4674C20.2413 11.5805 20.219 11.6925 20.1757 11.7971C20.1324 11.9016 20.069 11.9966 19.989 12.0766C19.909 12.1566 19.814 12.2201 19.7095 12.2634C19.6049 12.3067 19.4929 12.329 19.3797 12.329Z" fill="#005DAC"/>
<path d="M15.4686 15.8972H12.364C12.1355 15.8972 11.9163 15.8064 11.7547 15.6448C11.5932 15.4832 11.5024 15.2641 11.5024 15.0356C11.5024 14.807 11.5932 14.5879 11.7547 14.4263C11.9163 14.2647 12.1355 14.174 12.364 14.174H15.4686C15.6971 14.174 15.9163 14.2647 16.0779 14.4263C16.2395 14.5879 16.3302 14.807 16.3302 15.0356C16.3302 15.2641 16.2395 15.4832 16.0779 15.6448C15.9163 15.8064 15.6971 15.8972 15.4686 15.8972Z" fill="#005DAC"/>
<path d="M18.3384 7.98419H5.64407C5.41556 7.98419 5.19641 7.89341 5.03483 7.73183C4.87325 7.57025 4.78247 7.3511 4.78247 7.12259V3.23963C4.78247 3.01112 4.87325 2.79197 5.03483 2.63038C5.19641 2.4688 5.41556 2.37803 5.64407 2.37803H8.86762C9.05637 1.69441 9.46415 1.09159 10.0284 0.662005C10.5927 0.232418 11.2823 -0.000213623 11.9915 -0.000213623C12.7007 -0.000213623 13.3903 0.232418 13.9546 0.662005C14.5189 1.09159 14.9266 1.69441 15.1154 2.37803H18.3389C18.5674 2.37803 18.7866 2.4688 18.9482 2.63038C19.1098 2.79197 19.2005 3.01112 19.2005 3.23963V7.12259C19.2005 7.23578 19.1782 7.34787 19.1349 7.45244C19.0916 7.55701 19.028 7.65202 18.948 7.73203C18.8679 7.81205 18.7729 7.8755 18.6683 7.91877C18.5637 7.96203 18.4516 7.98426 18.3384 7.98419ZM6.50568 6.26098H17.4768V4.10123H14.3692C14.1407 4.10123 13.9216 4.01046 13.76 3.84887C13.5984 3.68729 13.5076 3.46814 13.5076 3.23963C13.4999 2.84248 13.3367 2.46421 13.0531 2.18608C12.7695 1.90795 12.3881 1.75215 11.9909 1.75215C11.5937 1.75215 11.2123 1.90795 10.9287 2.18608C10.6451 2.46421 10.4819 2.84248 10.4742 3.23963C10.4742 3.46814 10.3834 3.68729 10.2219 3.84887C10.0603 4.01046 9.84113 4.10123 9.61262 4.10123H6.5051L6.50568 6.26098Z" fill="#005DAC"/>
<path d="M24.087 34C18.621 34 14.174 29.553 14.174 24.087C14.174 18.621 18.621 14.174 24.087 14.174C29.553 14.174 34 18.621 34 24.087C34 29.553 29.553 34 24.087 34ZM24.087 15.8972C19.571 15.8972 15.8972 19.5733 15.8972 24.087C15.8972 28.6006 19.5733 32.2768 24.087 32.2768C28.6006 32.2768 32.2768 28.6006 32.2768 24.087C32.2768 19.5733 28.6029 15.8972 24.087 15.8972Z" fill="#005DAC"/>
<path d="M25.9021 29.7339H22.2713C22.0428 29.7339 21.8237 29.6431 21.6621 29.4816C21.5005 29.32 21.4097 29.1008 21.4097 28.8723V26.7637H19.3017C19.0732 26.7637 18.854 26.6729 18.6924 26.5113C18.5308 26.3498 18.4401 26.1306 18.4401 25.9021V22.2719C18.4401 22.0434 18.5308 21.8242 18.6924 21.6626C18.854 21.501 19.0732 21.4103 19.3017 21.4103H21.4097V19.3016C21.4097 19.0731 21.5005 18.854 21.6621 18.6924C21.8237 18.5308 22.0428 18.44 22.2713 18.44H25.9021C26.1306 18.44 26.3498 18.5308 26.5114 18.6924C26.6729 18.854 26.7637 19.0731 26.7637 19.3016V21.4103H28.8724C29.1009 21.4103 29.32 21.501 29.4816 21.6626C29.6432 21.8242 29.734 22.0434 29.734 22.2719V25.9021C29.734 26.1306 29.6432 26.3498 29.4816 26.5113C29.32 26.6729 29.1009 26.7637 28.8724 26.7637H26.7637V28.8723C26.7637 29.1008 26.6729 29.32 26.5114 29.4816C26.3498 29.6431 26.1306 29.7339 25.9021 29.7339ZM23.1329 28.0107H25.0405V25.9021C25.0405 25.6736 25.1313 25.4544 25.2929 25.2928C25.4545 25.1313 25.6736 25.0405 25.9021 25.0405H28.0107V23.1335H25.9021C25.6736 23.1335 25.4545 23.0427 25.2929 22.8811C25.1313 22.7195 25.0405 22.5004 25.0405 22.2719V20.1632H23.1329V22.2719C23.1329 22.385 23.1106 22.4971 23.0673 22.6016C23.024 22.7061 22.9606 22.8011 22.8806 22.8811C22.8006 22.9611 22.7056 23.0246 22.601 23.0679C22.4965 23.1112 22.3845 23.1335 22.2713 23.1335H20.1633V25.0405H22.2713C22.3845 25.0405 22.4965 25.0628 22.601 25.1061C22.7056 25.1494 22.8006 25.2128 22.8806 25.2928C22.9606 25.3729 23.024 25.4678 23.0673 25.5724C23.1106 25.6769 23.1329 25.7889 23.1329 25.9021V28.0107Z" fill="#005DAC"/>
</g>
<defs>
<clipPath id="clip0_164_391">
<rect width="34" height="34" fill="white"/>
</clipPath>
</defs>
</svg>
