<svg width="44" height="44" viewBox="0 0 44 44" fill="none" xmlns="http://www.w3.org/2000/svg">
<g clip-path="url(#clip0_815_118)">
<path d="M43.8057 9.41335C43.5456 8.99019 43.0696 8.75034 42.574 8.79331L40.3801 8.98443L42.4772 4.7569C42.7269 4.25339 42.6283 3.64676 42.2319 3.24826C41.8354 2.84977 41.2294 2.74819 40.7247 2.99535L35.1742 5.71364C31.745 3.90328 27.4608 4.44065 24.5128 7.12611C22.0524 9.36737 20.7591 12.8141 21.0002 16.2512C14.5696 15.6067 9.12633 11.9259 5.90762 5.9785C5.69406 5.58396 5.29368 5.32589 4.8462 5.29418C4.39786 5.26299 3.96594 5.46167 3.69902 5.82235C1.70269 8.51925 1.56261 12.217 3.12762 15.2591C2.69621 15.1501 2.23713 15.0026 1.72804 14.8326C1.29191 14.6867 0.811084 14.7802 0.46106 15.0785C0.111036 15.3769 -0.0572301 15.8368 0.0176216 16.2906C0.636888 20.045 2.82624 22.9305 6.28471 24.6384C5.8344 24.7952 5.37489 24.9226 4.90765 25.02C4.44341 25.1167 4.06752 25.4564 3.92443 25.9085C3.78135 26.3605 3.89324 26.8547 4.21722 27.2009C6.70778 29.8631 10.3055 31.1734 12.8609 31.8019C9.95537 34.0773 6.8189 34.4581 2.26128 34.3016C1.73371 34.2856 1.24765 34.5828 1.02584 35.061C0.804123 35.5393 0.890147 36.104 1.24447 36.4945C3.14438 38.5888 10.0663 40.9502 17.3428 41.1272C17.6306 41.1341 17.9242 41.1379 18.2239 41.1379C23.333 41.1378 30.0852 40.0426 34.9319 35.196C38.6003 31.5277 40.8948 27.3046 41.7515 22.6446C42.4435 18.8808 42.0062 15.8667 41.796 14.4182C41.7806 14.3117 41.7641 14.1987 41.7507 14.0999L43.803 10.7921C44.0647 10.3702 44.0658 9.8365 43.8057 9.41335ZM39.1989 14.7949C39.5883 17.4783 40.773 25.6437 33.0763 33.3404C28.6024 37.8142 22.0859 38.6175 17.4066 38.5039C13.4138 38.4067 9.84245 37.6431 7.254 36.7722C8.30494 36.6433 9.24148 36.4444 10.1255 36.1697C12.5626 35.4122 14.6215 34.0491 16.6048 31.8801C16.9354 31.5186 17.037 31.0031 16.8685 30.5432C16.6999 30.0832 16.2891 29.7555 15.8033 29.6933C14.5521 29.5329 10.7927 28.9001 7.83228 26.858C8.68538 26.5091 9.50815 26.0725 10.2938 25.5513C10.7248 25.2653 10.9477 24.753 10.8628 24.2428C10.778 23.7326 10.4015 23.3197 9.90114 23.1886C7.47813 22.5533 4.55384 21.1319 3.20539 17.9588C4.06649 18.1097 5.00278 18.1462 6.00138 17.9224C6.46424 17.8187 6.83514 17.4733 6.97127 17.0188C7.10748 16.5644 6.98785 16.0718 6.65837 15.7306C4.98052 13.9928 4.35309 11.4884 4.8914 9.34537C6.65433 11.9219 8.88776 14.0902 11.4466 15.6934C14.7201 17.7443 18.5407 18.8777 22.4957 18.9708C22.8981 18.9793 23.2841 18.8037 23.5404 18.4919C23.7965 18.1802 23.895 17.7679 23.8074 17.3741C23.1269 14.3151 24.0974 11.0542 26.2799 9.06616C28.5435 7.00408 31.889 6.69127 34.4153 8.30595C34.8011 8.55251 35.2877 8.58009 35.699 8.37866L38.4096 7.05109L36.9908 9.91118C36.78 10.3361 36.815 10.8418 37.0824 11.2336C37.3496 11.6254 37.8069 11.8429 38.2802 11.8014L40.1916 11.6349L39.3111 13.0542C39.0155 13.5305 39.0768 13.9532 39.1989 14.7949Z" fill="#005DAC"/>
</g>
<defs>
<clipPath id="clip0_815_118">
<rect width="44" height="44" fill="white"/>
</clipPath>
</defs>
</svg>
