<svg width="42" height="42" viewBox="0 0 42 42" fill="none" xmlns="http://www.w3.org/2000/svg">
<path d="M11.1562 13.7812C10.6341 13.7813 10.1333 13.9887 9.76413 14.3579C9.39492 14.7271 9.1875 15.2279 9.1875 15.75H10.5C10.5 15.576 10.5691 15.409 10.6922 15.286C10.8153 15.1629 10.9822 15.0938 11.1562 15.0938C11.3303 15.0938 11.4972 15.1629 11.6203 15.286C11.7434 15.409 11.8125 15.576 11.8125 15.75H13.125C13.125 15.2279 12.9176 14.7271 12.5484 14.3579C12.1792 13.9887 11.6784 13.7813 11.1562 13.7812Z" fill="#005DAC"/>
<path d="M19.0312 15.0938C19.2053 15.0938 19.3722 15.1629 19.4953 15.286C19.6184 15.409 19.6875 15.576 19.6875 15.75H21C21 15.2279 20.7926 14.7271 20.4234 14.3579C20.0542 13.9887 19.5534 13.7813 19.0312 13.7812C18.5091 13.7813 18.0083 13.9887 17.6391 14.3579C17.2699 14.7271 17.0625 15.2279 17.0625 15.75H18.375C18.375 15.576 18.4441 15.409 18.5672 15.286C18.6903 15.1629 18.8572 15.0938 19.0312 15.0938Z" fill="#005DAC"/>
<path d="M17.0625 19.6875H15.75C15.75 19.8615 15.6809 20.0285 15.5578 20.1515C15.4347 20.2746 15.2678 20.3438 15.0938 20.3438C14.9197 20.3438 14.7528 20.2746 14.6297 20.1515C14.5066 20.0285 14.4375 19.8615 14.4375 19.6875H13.125C13.125 20.2096 13.3324 20.7104 13.7016 21.0796C14.0708 21.4488 14.5716 21.6562 15.0938 21.6562C15.6159 21.6562 16.1167 21.4488 16.4859 21.0796C16.8551 20.7104 17.0625 20.2096 17.0625 19.6875Z" fill="#005DAC"/>
<path d="M38.7188 24.9375H27.195C27.4337 24.5412 27.5607 24.0876 27.5625 23.625C27.5636 23.5085 27.5548 23.3922 27.5363 23.2772C27.9421 23.0514 28.2802 22.7212 28.5156 22.3208C28.751 21.9204 28.8752 21.4644 28.8752 21C28.8752 20.5356 28.751 20.0796 28.5156 19.6792C28.2802 19.2788 27.9421 18.9486 27.5363 18.7228C27.5548 18.6078 27.5636 18.4915 27.5625 18.375C27.5576 17.8461 27.3943 17.3309 27.0936 16.8957C26.793 16.4606 26.3689 16.1255 25.876 15.9338C26.117 15.4715 26.2452 14.9588 26.25 14.4375V12.4688C26.25 9.50993 25.0746 6.67229 22.9824 4.58009C20.8902 2.48789 18.0526 1.3125 15.0938 1.3125C12.1349 1.3125 9.29731 2.48789 7.20511 4.58009C5.11291 6.67229 3.93752 9.50993 3.93752 12.4688V14.4375C3.94151 14.9568 4.06977 15.4676 4.31158 15.9272C3.81629 16.1174 3.39013 16.453 3.08912 16.8898C2.7881 17.3267 2.62631 17.8445 2.62502 18.375C2.62396 18.4915 2.63274 18.6078 2.65127 18.7228C2.24542 18.9486 1.9073 19.2788 1.6719 19.6792C1.4365 20.0796 1.31238 20.5356 1.31238 21C1.31238 21.4644 1.4365 21.9204 1.6719 22.3208C1.9073 22.7212 2.24542 23.0514 2.65127 23.2772C2.63274 23.3922 2.62396 23.5085 2.62502 23.625C2.62533 24.1194 2.76526 24.6037 3.0287 25.0221C3.29214 25.4404 3.66838 25.7759 4.1141 25.9899C4.55982 26.2038 5.0569 26.2875 5.54811 26.2314C6.03932 26.1752 6.50469 25.9815 6.89064 25.6725C7.25364 25.9648 7.68818 26.1546 8.14925 26.2224C8.61032 26.2902 9.08113 26.2335 9.5129 26.0581C9.94466 25.8827 10.3217 25.5951 10.6049 25.225C10.888 24.8548 11.0671 24.4157 11.1235 23.9531C11.3466 24.0713 11.5763 24.1828 11.8125 24.2812V26.4009L3.41908 28.6388C3.00287 28.7544 2.63588 29.003 2.37405 29.3465C2.11221 29.6901 1.96989 30.1099 1.96877 30.5419V40.0312C1.96877 40.2053 2.03791 40.3722 2.16098 40.4953C2.28405 40.6184 2.45097 40.6875 2.62502 40.6875H40.0313C40.2053 40.6875 40.3722 40.6184 40.4953 40.4953C40.6184 40.3722 40.6875 40.2053 40.6875 40.0312V26.9062C40.686 26.3846 40.478 25.8847 40.1092 25.5159C39.7403 25.147 39.2404 24.9391 38.7188 24.9375ZM15.0938 2.625C17.5863 2.6294 19.9846 3.57847 21.8052 5.28093C23.6258 6.9834 24.7334 9.31269 24.9047 11.7994C24.5234 11.5191 24.0874 11.3224 23.625 11.2219V11.1562C23.625 10.9822 23.5559 10.8153 23.4328 10.6922C23.3097 10.5691 23.1428 10.5 22.9688 10.5H20.9475C19.7497 10.5016 18.5595 10.3087 17.4235 9.92906L15.3038 9.22031C15.1675 9.1743 15.02 9.1743 14.8838 9.22031L12.7641 9.92906C11.628 10.3087 10.4379 10.5016 9.24002 10.5H7.21877C7.04472 10.5 6.8778 10.5691 6.75473 10.6922C6.63166 10.8153 6.56252 10.9822 6.56252 11.1562V11.2219C6.10013 11.3224 5.66411 11.5191 5.28283 11.7994C5.45418 9.31269 6.56176 6.9834 8.38235 5.28093C10.2029 3.57847 12.6012 2.6294 15.0938 2.625ZM24.9375 14.4375C24.9356 14.8427 24.8084 15.2374 24.5735 15.5675C24.3385 15.8976 24.0072 16.147 23.625 16.2816V12.5869C23.8989 12.6849 24.1493 12.8392 24.36 13.0397C24.7291 13.4114 24.9366 13.9137 24.9375 14.4375ZM5.82095 13.0462C6.03202 12.8413 6.28502 12.6846 6.56252 12.5869V16.2881C6.24974 16.1774 5.97 15.9895 5.7493 15.7418C5.52859 15.4941 5.37407 15.1946 5.30008 14.8711C5.2261 14.5477 5.23506 14.2108 5.32612 13.8918C5.41718 13.5728 5.5874 13.2819 5.82095 13.0462ZM8.53127 24.9375C8.31421 24.9363 8.10077 24.8817 7.90969 24.7788C7.71861 24.6758 7.55573 24.5275 7.43533 24.3469C7.37253 24.2614 7.2905 24.1919 7.19588 24.144C7.10126 24.0962 6.99669 24.0712 6.89064 24.0712C6.78459 24.0712 6.68003 24.0962 6.5854 24.144C6.49078 24.1919 6.40875 24.2614 6.34595 24.3469C6.16536 24.6153 5.89198 24.8076 5.57831 24.8868C5.26463 24.966 4.93275 24.9265 4.64637 24.776C4.35999 24.6255 4.13929 24.3745 4.02663 24.0713C3.91398 23.768 3.91729 23.4338 4.03595 23.1328C4.06906 23.0462 4.08382 22.9536 4.0793 22.861C4.07478 22.7684 4.05108 22.6777 4.0097 22.5947C3.96893 22.5117 3.91098 22.4384 3.8397 22.3796C3.76842 22.3207 3.68544 22.2777 3.59627 22.2534C3.31811 22.182 3.07163 22.0201 2.89562 21.7931C2.71962 21.5662 2.6241 21.2872 2.6241 21C2.6241 20.7128 2.71962 20.4338 2.89562 20.2069C3.07163 19.9799 3.31811 19.818 3.59627 19.7466C3.68544 19.7223 3.76842 19.6793 3.8397 19.6204C3.91098 19.5616 3.96893 19.4883 4.0097 19.4053C4.05108 19.3223 4.07478 19.2316 4.0793 19.139C4.08382 19.0464 4.06906 18.9538 4.03595 18.8672C3.97188 18.711 3.93846 18.5439 3.93752 18.375C3.93625 18.1998 3.97047 18.0262 4.03814 17.8645C4.1058 17.7029 4.20549 17.5567 4.33121 17.4347C4.45692 17.3126 4.60606 17.2173 4.76961 17.1545C4.93316 17.0916 5.10774 17.0626 5.28283 17.0691C5.69299 17.3695 6.16677 17.5716 6.66752 17.6597C6.97412 19.7438 8.0427 21.6401 9.66658 22.9819C9.78069 23.1771 9.84177 23.3988 9.84377 23.625C9.84273 23.9728 9.70411 24.306 9.4582 24.5519C9.21228 24.7978 8.87904 24.9365 8.53127 24.9375ZM11.1563 27.9366L12.6394 27.5428C12.7792 27.5052 12.9027 27.4223 12.9905 27.3072C13.0784 27.192 13.1257 27.0511 13.125 26.9062V24.7013C14.4186 25.0162 15.7689 25.0162 17.0625 24.7013V26.9062C17.0619 27.0511 17.1092 27.192 17.197 27.3072C17.2848 27.4223 17.4083 27.5052 17.5481 27.5428L19.0313 27.9366V31.5H11.1563V27.9366ZM4.59377 39.375H3.28127V30.5419C3.28151 30.3973 3.32913 30.2567 3.41684 30.1418C3.50454 30.0268 3.6275 29.9438 3.76689 29.9053L4.59377 29.6822V39.375ZM11.8125 37.4062V38.7188C11.8143 38.9426 11.8542 39.1646 11.9306 39.375H5.90627V29.3344L9.84377 28.2844V32.1562C9.84377 32.3303 9.91291 32.4972 10.036 32.6203C10.159 32.7434 10.326 32.8125 10.5 32.8125H14.4375V36.75H12.4688C12.2947 36.75 12.1278 36.8191 12.0047 36.9422C11.8817 37.0653 11.8125 37.2322 11.8125 37.4062ZM19.6875 39.375H13.7813C13.6072 39.375 13.4403 39.3059 13.3172 39.1828C13.1942 39.0597 13.125 38.8928 13.125 38.7188V38.0625H19.6875V39.375ZM19.6875 36.75H15.75V32.8125H19.6875V36.75ZM19.7006 26.7553L18.375 26.4009V24.2812C18.6113 24.1828 18.841 24.0713 19.0641 23.9531C19.1084 24.3024 19.2225 24.6392 19.3994 24.9436C19.5764 25.248 19.8128 25.5137 20.0944 25.725C19.8664 26.0232 19.7297 26.3811 19.7006 26.7553ZM15.0938 23.625C13.1796 23.6238 11.3442 22.8628 9.99068 21.5093C8.63717 20.1558 7.87623 18.3204 7.87502 16.4062V11.8125H9.24002C10.5808 11.813 11.9129 11.5958 13.1841 11.1694L15.0938 10.5328L17.0035 11.1694C18.2747 11.5958 19.6067 11.813 20.9475 11.8125H22.3125V16.4062C22.3113 18.3204 21.5504 20.1558 20.1968 21.5093C18.8433 22.8628 17.0079 23.6238 15.0938 23.625ZM20.3438 23.625C20.3458 23.3988 20.4068 23.1771 20.521 22.9819C22.1448 21.6401 23.2134 19.7438 23.52 17.6597C24.0237 17.5746 24.5002 17.3723 24.9113 17.0691C25.0857 17.0639 25.2594 17.0938 25.422 17.1572C25.5847 17.2206 25.7329 17.3161 25.8578 17.4379C25.9827 17.5598 26.0818 17.7056 26.1492 17.8666C26.2166 18.0276 26.2509 18.2005 26.25 18.375C26.2491 18.5439 26.2157 18.711 26.1516 18.8672C26.1185 18.9538 26.1037 19.0464 26.1082 19.139C26.1128 19.2316 26.1365 19.3223 26.1778 19.4053C26.2186 19.4883 26.2766 19.5616 26.3478 19.6204C26.4191 19.6793 26.5021 19.7223 26.5913 19.7466C26.8694 19.818 27.1159 19.9799 27.2919 20.2069C27.4679 20.4338 27.5634 20.7128 27.5634 21C27.5634 21.2872 27.4679 21.5662 27.2919 21.7931C27.1159 22.0201 26.8694 22.182 26.5913 22.2534C26.5021 22.2777 26.4191 22.3207 26.3478 22.3796C26.2766 22.4384 26.2186 22.5117 26.1778 22.5947C26.1365 22.6777 26.1128 22.7684 26.1082 22.861C26.1037 22.9536 26.1185 23.0462 26.1516 23.1328C26.2702 23.4338 26.2736 23.768 26.1609 24.0713C26.0482 24.3745 25.8275 24.6255 25.5412 24.776C25.2548 24.9265 24.9229 24.966 24.6092 24.8868C24.2956 24.8076 24.0222 24.6153 23.8416 24.3469C23.7788 24.2614 23.6968 24.1919 23.6021 24.144C23.5075 24.0962 23.4029 24.0712 23.2969 24.0712C23.1908 24.0712 23.0863 24.0962 22.9917 24.144C22.897 24.1919 22.815 24.2614 22.7522 24.3469C22.5969 24.5826 22.3697 24.7619 22.1044 24.8583C21.8391 24.9547 21.5498 24.963 21.2794 24.8819C21.0091 24.8009 20.772 24.6348 20.6035 24.4084C20.4349 24.182 20.3438 23.9073 20.3438 23.625ZM39.375 39.375H21V26.9062C21 26.7322 21.0692 26.5653 21.1922 26.4422C21.3153 26.3191 21.4822 26.25 21.6563 26.25H38.7188C38.8928 26.25 39.0597 26.3191 39.1828 26.4422C39.3059 26.5653 39.375 26.7322 39.375 26.9062V39.375Z" fill="#005DAC"/>
<path d="M30.1875 34.125C30.9124 34.125 31.5 33.5374 31.5 32.8125C31.5 32.0876 30.9124 31.5 30.1875 31.5C29.4626 31.5 28.875 32.0876 28.875 32.8125C28.875 33.5374 29.4626 34.125 30.1875 34.125Z" fill="#005DAC"/>
<path d="M22.9688 36.75H24.2812V38.0625H22.9688V36.75Z" fill="#005DAC"/>
<path d="M25.5938 36.75H26.9062V38.0625H25.5938V36.75Z" fill="#005DAC"/>
<path d="M28.2188 36.75H29.5312V38.0625H28.2188V36.75Z" fill="#005DAC"/>
<path d="M30.8438 36.75H32.1562V38.0625H30.8438V36.75Z" fill="#005DAC"/>
<path d="M33.4688 36.75H34.7812V38.0625H33.4688V36.75Z" fill="#005DAC"/>
<path d="M36.0938 36.75H37.4062V38.0625H36.0938V36.75Z" fill="#005DAC"/>
</svg>
