<svg width="42" height="42" viewBox="0 0 42 42" fill="none" xmlns="http://www.w3.org/2000/svg">
<path d="M10.5 15.0938C10.674 15.0938 10.841 15.1629 10.964 15.286C11.0871 15.409 11.1562 15.576 11.1562 15.75H12.4688C12.4688 15.2279 12.2613 14.7271 11.8921 14.3579C11.5229 13.9887 11.0221 13.7813 10.5 13.7812C9.97786 13.7813 9.4771 13.9887 9.10788 14.3579C8.73867 14.7271 8.53125 15.2279 8.53125 15.75H9.84375C9.84375 15.576 9.91289 15.409 10.036 15.286C10.159 15.1629 10.326 15.0938 10.5 15.0938Z" fill="#005DAC"/>
<path d="M18.375 15.0938C18.549 15.0938 18.716 15.1629 18.839 15.286C18.9621 15.409 19.0312 15.576 19.0312 15.75H20.3438C20.3438 15.2279 20.1363 14.7271 19.7671 14.3579C19.3979 13.9887 18.8971 13.7813 18.375 13.7812C17.8529 13.7813 17.3521 13.9887 16.9829 14.3579C16.6137 14.7271 16.4063 15.2279 16.4062 15.75H17.7188C17.7188 15.576 17.7879 15.409 17.911 15.286C18.034 15.1629 18.201 15.0938 18.375 15.0938Z" fill="#005DAC"/>
<path d="M14.4375 21.6562C14.9596 21.6562 15.4604 21.4488 15.8296 21.0796C16.1988 20.7104 16.4062 20.2096 16.4062 19.6875H15.0938C15.0938 19.8615 15.0246 20.0285 14.9015 20.1515C14.7785 20.2746 14.6115 20.3438 14.4375 20.3438C14.2635 20.3438 14.0965 20.2746 13.9735 20.1515C13.8504 20.0285 13.7812 19.8615 13.7812 19.6875H12.4688C12.4688 20.2096 12.6762 20.7104 13.0454 21.0796C13.4146 21.4488 13.9154 21.6562 14.4375 21.6562Z" fill="#005DAC"/>
<path d="M38.7188 24.9375H25.5938V12.4688C25.5938 9.50993 24.4184 6.67229 22.3262 4.58009C20.234 2.48789 17.3963 1.3125 14.4375 1.3125C11.4787 1.3125 8.64104 2.48789 6.54884 4.58009C4.45664 6.67229 3.28125 9.50993 3.28125 12.4688V28.5009L2.76281 28.6388C2.3466 28.7544 1.97961 29.003 1.71778 29.3465C1.45594 29.6901 1.31362 30.1099 1.3125 30.5419V40.0312C1.3125 40.2053 1.38164 40.3722 1.50471 40.4953C1.62778 40.6184 1.7947 40.6875 1.96875 40.6875H40.0312C40.2053 40.6875 40.3722 40.6184 40.4953 40.4953C40.6184 40.3722 40.6875 40.2053 40.6875 40.0312V26.9062C40.6859 26.3846 40.478 25.8847 40.1091 25.5159C39.7403 25.147 39.2404 24.9391 38.7188 24.9375ZM14.4375 2.625C16.9325 2.621 19.3355 3.56724 21.1578 5.27138C22.9802 6.97553 24.0853 9.30968 24.2484 11.7994C23.733 11.4245 23.1196 11.2079 22.4831 11.1759L13.8337 7.6125C13.6049 7.51644 13.3676 7.44175 13.125 7.38938V5.25H11.8125V7.27125C11.3637 7.29712 10.9213 7.39002 10.5 7.54688V5.25H9.1875V8.30813C9.06938 8.40656 8.94469 8.49844 8.83313 8.61L6.26062 11.1825C5.67046 11.2378 5.10604 11.4509 4.62656 11.7994C4.79791 9.31269 5.90549 6.9834 7.72608 5.28093C9.54667 3.57847 11.9449 2.6294 14.4375 2.625ZM24.2812 14.4375C24.2793 14.8427 24.1522 15.2374 23.9172 15.5675C23.6823 15.8976 23.351 16.147 22.9688 16.2816V12.5869C23.2426 12.6849 23.493 12.8392 23.7037 13.0397C24.0728 13.4114 24.2804 13.9137 24.2812 14.4375ZM14.4375 30.3713L12.285 27.3525C12.4007 27.2325 12.4664 27.0729 12.4688 26.9062V24.7013C13.7624 25.0162 15.1126 25.0162 16.4062 24.7013V26.9062C16.4086 27.0729 16.4743 27.2325 16.59 27.3525L14.4375 30.3713ZM17.8828 27.8053L19.0312 28.1072V30.1875H17.7188C17.5447 30.1875 17.3778 30.2566 17.2547 30.3797C17.1316 30.5028 17.0625 30.6697 17.0625 30.8438V32.3072L15.3825 31.3031L17.8828 27.8053ZM11.1562 30.1875H9.84375V28.1072L10.9922 27.8053L13.4925 31.3031L11.8125 32.3072V30.8438C11.8125 30.6697 11.7434 30.5028 11.6203 30.3797C11.4972 30.2566 11.3303 30.1875 11.1562 30.1875ZM14.4375 23.625C12.5233 23.6238 10.6879 22.8628 9.33442 21.5093C7.9809 20.1558 7.21997 18.3204 7.21875 16.4062V12.0816L9.765 9.54187C10.2218 9.08167 10.8053 8.76788 11.4411 8.64049C12.0768 8.5131 12.7362 8.57788 13.335 8.82656L21.6562 12.2522V16.4062C21.655 18.3204 20.8941 20.1558 19.5406 21.5093C18.1871 22.8628 16.3517 23.6238 14.4375 23.625ZM5.16469 13.0462C5.37575 12.8413 5.62875 12.6846 5.90625 12.5869V16.2881C5.59347 16.1774 5.31374 15.9895 5.09303 15.7418C4.87232 15.4941 4.7178 15.1946 4.64382 14.8711C4.56983 14.5477 4.57879 14.2108 4.66985 13.8918C4.76091 13.5728 4.93113 13.2819 5.16469 13.0462ZM4.59375 17.0428C5.00983 17.3593 5.49605 17.5709 6.01125 17.6597C6.22718 19.1126 6.81411 20.4853 7.71536 21.6452C8.61661 22.8051 9.80173 23.713 11.1562 24.2812V26.4009L4.59375 28.1466V17.0428ZM11.8125 37.4062V38.7188C11.8143 38.9426 11.8542 39.1646 11.9306 39.375H7.875C7.32406 39.375 6.78708 39.2017 6.34014 38.8795C5.89319 38.5574 5.55893 38.1028 5.38471 37.5801C5.21048 37.0574 5.20513 36.4932 5.3694 35.9673C5.53367 35.4414 5.85925 34.9806 6.3 34.65L5.5125 33.6C5.07529 33.9271 4.71108 34.3417 4.44311 34.8174C4.17515 35.2932 4.00932 35.8196 3.95622 36.363C3.90311 36.9064 3.96389 37.4549 4.13468 37.9735C4.30547 38.4922 4.58251 38.9695 4.94812 39.375H2.625V30.5419C2.62525 30.3973 2.67287 30.2567 2.76057 30.1418C2.84827 30.0268 2.97123 29.9438 3.11062 29.9053L8.53125 28.4616V30.8438C8.53125 31.0178 8.60039 31.1847 8.72346 31.3078C8.84653 31.4309 9.01345 31.5 9.1875 31.5H10.5V33.4688C10.4997 33.5851 10.5305 33.6995 10.5894 33.7999C10.6482 33.9003 10.733 33.9831 10.8347 34.0397C10.9321 34.0968 11.0433 34.1263 11.1562 34.125C11.274 34.125 11.3896 34.0932 11.4909 34.0331L13.7812 32.6616V36.75H12.4688C12.2947 36.75 12.1278 36.8191 12.0047 36.9422C11.8816 37.0653 11.8125 37.2322 11.8125 37.4062ZM19.6875 39.375H13.7812C13.6072 39.375 13.4403 39.3059 13.3172 39.1828C13.1941 39.0597 13.125 38.8928 13.125 38.7188V38.0625H19.6875V39.375ZM19.6875 36.75H15.0938V32.6616L17.3841 34.0331C17.4837 34.0922 17.5972 34.1238 17.713 34.1249C17.8288 34.1259 17.9429 34.0962 18.0435 34.0389C18.1442 33.9816 18.2279 33.8986 18.2861 33.7985C18.3443 33.6983 18.375 33.5846 18.375 33.4688V31.5H19.6875V36.75ZM19.6875 26.9062V26.9259L17.7188 26.4009V24.2812C19.0733 23.713 20.2584 22.8051 21.1596 21.6452C22.0609 20.4853 22.6478 19.1126 22.8638 17.6597C23.3807 17.5767 23.8682 17.3645 24.2812 17.0428V24.9375H21.6562C21.1346 24.9391 20.6347 25.147 20.2659 25.5159C19.897 25.8847 19.6891 26.3846 19.6875 26.9062ZM39.375 39.375H21V26.9062C21 26.7322 21.0691 26.5653 21.1922 26.4422C21.3153 26.3191 21.4822 26.25 21.6562 26.25H38.7188C38.8928 26.25 39.0597 26.3191 39.1828 26.4422C39.3059 26.5653 39.375 26.7322 39.375 26.9062V39.375Z" fill="#005DAC"/>
<path d="M30.1875 34.125C30.9124 34.125 31.5 33.5374 31.5 32.8125C31.5 32.0876 30.9124 31.5 30.1875 31.5C29.4626 31.5 28.875 32.0876 28.875 32.8125C28.875 33.5374 29.4626 34.125 30.1875 34.125Z" fill="#005DAC"/>
<path d="M22.9688 36.75H24.2812V38.0625H22.9688V36.75Z" fill="#005DAC"/>
<path d="M25.5938 36.75H26.9062V38.0625H25.5938V36.75Z" fill="#005DAC"/>
<path d="M28.2188 36.75H29.5312V38.0625H28.2188V36.75Z" fill="#005DAC"/>
<path d="M30.8438 36.75H32.1562V38.0625H30.8438V36.75Z" fill="#005DAC"/>
<path d="M33.4688 36.75H34.7812V38.0625H33.4688V36.75Z" fill="#005DAC"/>
<path d="M36.0938 36.75H37.4062V38.0625H36.0938V36.75Z" fill="#005DAC"/>
</svg>
