<svg width="43" height="43" viewBox="0 0 43 43" fill="none" xmlns="http://www.w3.org/2000/svg">
<g clip-path="url(#clip0_164_434)">
<path d="M28.1186 19.5677L18.6189 14.3698C18.0726 14.071 17.427 14.0821 16.8916 14.3994C16.3559 14.7169 16.0363 15.2779 16.0363 15.9006V26.2071C16.0363 26.8268 16.3539 27.3868 16.886 27.7047C17.1639 27.8707 17.4719 27.954 17.7807 27.954C18.0634 27.954 18.3469 27.8841 18.6077 27.7437L28.1077 22.6354C28.6717 22.332 29.0237 21.7457 29.0263 21.105C29.0286 20.4643 28.6809 19.8754 28.1186 19.5677ZM18.5562 24.9105V17.2076L25.6561 21.0925L18.5562 24.9105Z" fill="#005DAC"/>
<path d="M42.6836 12.8939L42.6816 12.8742C42.6452 12.5281 42.2827 9.44955 40.7861 7.88371C39.0562 6.04195 37.095 5.81821 36.1519 5.71094C36.0738 5.70208 36.0023 5.69388 35.9383 5.68535L35.8632 5.67747C30.1785 5.26411 21.5934 5.20769 21.5075 5.20736L21.4999 5.20703L21.4924 5.20736C21.4064 5.20769 12.8213 5.26411 7.0855 5.67747L7.00972 5.68535C6.9487 5.69355 6.88144 5.7011 6.80828 5.70963C5.87593 5.81723 3.93577 6.0413 2.20097 7.94965C0.77554 9.49876 0.363493 12.5114 0.321173 12.8499L0.316252 12.8939C0.303458 13.0379 0 16.4665 0 19.9086V23.1262C0 26.5683 0.303458 29.9969 0.316252 30.1412L0.318549 30.1629C0.354964 30.5034 0.717145 33.5255 2.20688 35.092C3.83341 36.8721 5.89004 37.1076 6.99626 37.2343C7.17112 37.2543 7.3217 37.2713 7.42439 37.2894L7.52379 37.3032C10.8061 37.6155 21.0971 37.7693 21.5334 37.7756L21.5465 37.7759L21.5596 37.7756C21.6456 37.7753 30.2303 37.7188 35.915 37.3055L35.9901 37.2976C36.062 37.2881 36.1427 37.2795 36.2312 37.2704C37.1583 37.1719 39.088 36.9676 40.7989 35.0851C42.2243 33.5357 42.6367 30.5231 42.6787 30.1848L42.6836 30.1409C42.6964 29.9965 43.0002 26.5683 43.0002 23.1262V19.9086C42.9998 16.4665 42.6964 13.0382 42.6836 12.8939ZM40.48 23.1262C40.48 26.312 40.2018 29.593 40.1755 29.8942C40.0686 30.7238 39.6339 32.6299 38.9394 33.3848C37.8686 34.5629 36.7686 34.6796 35.9655 34.7646C35.8684 34.7748 35.7785 34.7846 35.6972 34.7948C30.1988 35.1924 21.9379 35.2534 21.5573 35.2557C21.1305 35.2495 10.9901 35.0943 7.80789 34.7987C7.64484 34.7722 7.46868 34.7518 7.28299 34.7308C6.34112 34.6229 5.05184 34.4753 4.06043 33.3848L4.03714 33.3598C3.35477 32.6489 2.93255 30.8666 2.82528 29.904C2.80526 29.6763 2.51985 26.3567 2.51985 23.1262V19.9086C2.51985 16.7263 2.79739 13.449 2.82429 13.1416C2.95191 12.1643 3.39479 10.3737 4.06043 9.65C5.16403 8.43616 6.32767 8.30166 7.09731 8.21275C7.17079 8.20422 7.23936 8.19635 7.30268 8.18815C12.8811 7.78857 21.2014 7.72919 21.4999 7.72689C21.7985 7.72886 30.1158 7.78857 35.6447 8.18815C35.7126 8.19668 35.7867 8.20521 35.8664 8.21439C36.6581 8.30461 37.8545 8.44109 38.9525 9.61227L38.9627 9.6231C39.6451 10.334 40.0673 12.1476 40.1746 13.1294C40.1936 13.3443 40.48 16.6712 40.48 19.9086V23.1262Z" fill="#005DAC"/>
</g>
<defs>
<clipPath id="clip0_164_434">
<rect width="43" height="43" fill="white"/>
</clipPath>
</defs>
</svg>
