<?xml version="1.0" encoding="UTF-8"?>
<svg xmlns="http://www.w3.org/2000/svg" xmlns:xlink="http://www.w3.org/1999/xlink" width="173px" height="52px" viewBox="0 0 172 52" version="1.1">
<g id="surface1">
<path style=" stroke:none;fill-rule:nonzero;fill:rgb(0%,0%,0%);fill-opacity:1;" d="M 73.476562 18.511719 C 73.476562 19.265625 73.957031 19.476562 74.5 19.476562 C 74.742188 19.476562 75.011719 19.445312 75.28125 19.355469 L 75.28125 22.105469 C 74.621094 22.34375 73.777344 22.527344 72.964844 22.527344 C 71.492188 22.527344 70.378906 21.984375 69.773438 20.894531 C 68.359375 22.011719 66.707031 22.675781 64.570312 22.675781 C 61.859375 22.675781 59.511719 21.105469 59.511719 18.238281 C 59.511719 14.554688 62.972656 13.410156 65.863281 13.410156 C 67.007812 13.410156 68.269531 13.558594 69.292969 13.800781 L 69.292969 13.289062 C 69.292969 11.839844 68.148438 10.84375 65.894531 10.84375 C 63.90625 10.84375 62.128906 11.386719 60.777344 11.929688 L 60.777344 8.308594 C 61.949219 7.914062 64.148438 7.339844 66.375 7.339844 C 70.707031 7.339844 73.476562 9.121094 73.476562 13.890625 Z M 66.824219 15.914062 C 65.289062 15.914062 63.785156 16.429688 63.785156 17.90625 C 63.785156 18.992188 64.78125 19.6875 66.042969 19.6875 C 67.21875 19.6875 68.332031 19.355469 69.292969 18.511719 L 69.292969 16.246094 C 68.660156 16.097656 67.699219 15.914062 66.824219 15.914062 Z M 66.824219 15.914062 "/>
<path style=" stroke:none;fill-rule:nonzero;fill:rgb(0%,0%,0%);fill-opacity:1;" d="M 77.320312 0.214844 L 81.503906 0.214844 L 81.503906 22.253906 L 77.320312 22.253906 Z M 77.320312 0.214844 "/>
<path style=" stroke:none;fill-rule:nonzero;fill:rgb(0%,0%,0%);fill-opacity:1;" d="M 98.019531 18.511719 C 98.019531 19.265625 98.5 19.476562 99.042969 19.476562 C 99.28125 19.476562 99.554688 19.445312 99.824219 19.355469 L 99.824219 22.105469 C 99.164062 22.34375 98.320312 22.527344 97.507812 22.527344 C 96.03125 22.527344 94.917969 21.984375 94.316406 20.894531 C 92.902344 22.011719 91.246094 22.675781 89.109375 22.675781 C 86.402344 22.675781 84.054688 21.105469 84.054688 18.238281 C 84.054688 14.554688 87.515625 13.410156 90.40625 13.410156 C 91.546875 13.410156 92.8125 13.558594 93.835938 13.800781 L 93.835938 13.289062 C 93.835938 11.839844 92.691406 10.84375 90.433594 10.84375 C 88.449219 10.84375 86.671875 11.386719 85.316406 11.929688 L 85.316406 8.308594 C 86.492188 7.914062 88.6875 7.339844 90.914062 7.339844 C 95.25 7.339844 98.019531 9.121094 98.019531 13.890625 Z M 91.367188 15.914062 C 89.832031 15.914062 88.328125 16.429688 88.328125 17.90625 C 88.328125 18.992188 89.320312 19.6875 90.585938 19.6875 C 91.757812 19.6875 92.871094 19.355469 93.835938 18.511719 L 93.835938 16.246094 C 93.203125 16.097656 92.238281 15.914062 91.367188 15.914062 Z M 91.367188 15.914062 "/>
<path style=" stroke:none;fill-rule:nonzero;fill:rgb(0%,0%,0%);fill-opacity:1;" d="M 101.800781 1.121094 L 105.984375 1.121094 L 105.984375 9.304688 C 106.886719 8.277344 108.453125 7.339844 110.738281 7.339844 C 115.316406 7.339844 117.78125 11.054688 117.78125 15.007812 C 117.78125 18.964844 115.316406 22.675781 110.738281 22.675781 C 108.0625 22.675781 106.40625 21.4375 105.503906 20.140625 L 105.503906 22.253906 L 101.800781 22.253906 Z M 113.507812 15.007812 C 113.507812 12.746094 112.09375 10.875 109.714844 10.875 C 107.882812 10.875 106.527344 12.019531 105.953125 13.289062 L 105.953125 16.730469 C 106.527344 17.996094 107.882812 19.144531 109.714844 19.144531 C 112.09375 19.144531 113.507812 17.273438 113.507812 15.007812 Z M 113.507812 15.007812 "/>
<path style=" stroke:none;fill-rule:nonzero;fill:rgb(0%,0%,0%);fill-opacity:1;" d="M 130.546875 7.765625 L 134.730469 7.765625 L 134.730469 22.253906 L 131.027344 22.253906 L 131.027344 20.414062 C 129.914062 21.710938 128.257812 22.675781 126.210938 22.675781 C 122.300781 22.675781 120.34375 20.082031 120.34375 16.730469 L 120.34375 7.765625 L 124.527344 7.765625 L 124.527344 16.1875 C 124.527344 18.117188 125.578125 19.054688 127.296875 19.054688 C 128.800781 19.054688 129.914062 18.089844 130.546875 17.214844 Z M 130.546875 7.765625 "/>
<path style=" stroke:none;fill-rule:nonzero;fill:rgb(0%,0%,0%);fill-opacity:1;" d="M 137.464844 15.007812 C 137.464844 11.054688 139.929688 7.339844 144.535156 7.339844 C 147.183594 7.339844 148.839844 8.578125 149.773438 9.875 L 149.773438 7.765625 L 153.445312 7.765625 L 153.445312 21.863281 C 153.445312 27.386719 149.382812 29.320312 145.136719 29.320312 C 142.878906 29.320312 140.773438 28.804688 139.027344 27.960938 L 139.027344 24.277344 C 140.652344 25.242188 142.609375 25.785156 144.597656 25.785156 C 147.152344 25.785156 149.292969 24.910156 149.292969 22.042969 L 149.292969 20.714844 C 148.359375 21.742188 146.824219 22.675781 144.535156 22.675781 C 139.929688 22.675781 137.464844 18.964844 137.464844 15.007812 Z M 149.292969 13.289062 C 148.71875 12.019531 147.363281 10.875 145.527344 10.875 C 143.152344 10.875 141.738281 12.746094 141.738281 15.007812 C 141.738281 17.273438 143.152344 19.144531 145.527344 19.144531 C 147.363281 19.144531 148.71875 18.027344 149.292969 16.820312 Z M 149.292969 13.289062 "/>
<path style=" stroke:none;fill-rule:nonzero;fill:rgb(0%,0%,0%);fill-opacity:1;" d="M 169.910156 18.511719 C 169.910156 19.265625 170.390625 19.476562 170.933594 19.476562 C 171.171875 19.476562 171.445312 19.445312 171.714844 19.355469 L 171.714844 22.105469 C 171.054688 22.34375 170.210938 22.527344 169.398438 22.527344 C 167.921875 22.527344 166.808594 21.984375 166.207031 20.894531 C 164.792969 22.011719 163.136719 22.675781 161 22.675781 C 158.292969 22.675781 155.945312 21.105469 155.945312 18.238281 C 155.945312 14.554688 159.40625 13.410156 162.292969 13.410156 C 163.4375 13.410156 164.703125 13.558594 165.726562 13.800781 L 165.726562 13.289062 C 165.726562 11.839844 164.582031 10.84375 162.324219 10.84375 C 160.339844 10.84375 158.5625 11.386719 157.207031 11.929688 L 157.207031 8.308594 C 158.382812 7.914062 160.578125 7.339844 162.804688 7.339844 C 167.140625 7.339844 169.910156 9.121094 169.910156 13.890625 Z M 163.257812 15.914062 C 161.722656 15.914062 160.21875 16.429688 160.21875 17.90625 C 160.21875 18.992188 161.210938 19.6875 162.476562 19.6875 C 163.648438 19.6875 164.761719 19.355469 165.726562 18.511719 L 165.726562 16.246094 C 165.09375 16.097656 164.128906 15.914062 163.257812 15.914062 Z M 163.257812 15.914062 "/>
<path style=" stroke:none;fill-rule:nonzero;fill:rgb(0%,0%,0%);fill-opacity:1;" d="M 59.519531 37.527344 C 59.519531 35.835938 60.996094 35.03125 62.71875 35.03125 C 63.757812 35.03125 64.808594 35.285156 65.558594 35.710938 L 65.558594 37.464844 C 64.820312 36.9375 63.832031 36.675781 62.859375 36.6875 C 61.90625 36.699219 61.433594 36.964844 61.433594 37.503906 C 61.433594 39.019531 66.21875 38.457031 66.21875 41.578125 C 66.21875 43.546875 64.644531 44.160156 62.808594 44.160156 C 61.59375 44.160156 60.46875 43.871094 59.570312 43.371094 L 59.570312 41.578125 C 60.570312 42.242188 61.671875 42.503906 62.671875 42.503906 C 63.683594 42.503906 64.308594 42.292969 64.308594 41.664062 C 64.308594 40.023438 59.519531 40.636719 59.519531 37.527344 Z M 59.519531 37.527344 "/>
<path style=" stroke:none;fill-rule:nonzero;fill:rgb(0%,0%,0%);fill-opacity:1;" d="M 72.09375 35.207031 L 79.332031 35.207031 L 79.332031 36.902344 L 76.644531 36.902344 L 76.644531 43.984375 L 74.78125 43.984375 L 74.78125 36.902344 L 72.09375 36.902344 Z M 72.09375 35.207031 "/>
<path style=" stroke:none;fill-rule:nonzero;fill:rgb(0%,0%,0%);fill-opacity:1;" d="M 86.679688 43.984375 L 84.742188 43.984375 L 88.320312 35.207031 L 90.34375 35.207031 L 93.90625 43.984375 L 91.96875 43.984375 L 91.332031 42.34375 L 87.332031 42.34375 Z M 89.128906 37.640625 L 87.917969 40.789062 L 90.742188 40.789062 L 89.519531 37.640625 C 89.457031 37.464844 89.394531 37.289062 89.332031 36.949219 C 89.269531 37.289062 89.207031 37.464844 89.128906 37.640625 Z M 89.128906 37.640625 "/>
<path style=" stroke:none;fill-rule:nonzero;fill:rgb(0%,0%,0%);fill-opacity:1;" d="M 102.117188 43.984375 L 100.242188 43.984375 L 100.242188 35.207031 L 103.84375 35.207031 C 105.542969 35.207031 107.316406 35.847656 107.316406 38.066406 C 107.316406 39.570312 106.46875 40.335938 105.40625 40.675781 L 108.015625 43.984375 L 105.855469 43.984375 L 103.492188 40.914062 L 102.117188 40.914062 Z M 102.117188 36.863281 L 102.117188 39.347656 L 103.929688 39.347656 C 104.71875 39.347656 105.40625 38.996094 105.40625 38.105469 C 105.40625 37.203125 104.71875 36.863281 103.929688 36.863281 Z M 102.117188 36.863281 "/>
<path style=" stroke:none;fill-rule:nonzero;fill:rgb(0%,0%,0%);fill-opacity:1;" d="M 113.554688 35.207031 L 120.792969 35.207031 L 120.792969 36.902344 L 118.105469 36.902344 L 118.105469 43.984375 L 116.242188 43.984375 L 116.242188 36.902344 L 113.554688 36.902344 Z M 113.554688 35.207031 "/>
<path style=" stroke:none;fill-rule:nonzero;fill:rgb(20.784314%,21.960784%,54.11765%);fill-opacity:1;" d="M 16.5 9.984375 C 16.636719 10.0625 16.773438 10.132812 16.910156 10.214844 C 16.988281 10.261719 17.066406 10.308594 17.148438 10.355469 C 17.421875 10.511719 17.695312 10.675781 17.972656 10.84375 C 18.03125 10.878906 18.089844 10.917969 18.148438 10.949219 C 18.277344 11.027344 18.40625 11.109375 18.535156 11.191406 C 18.632812 11.253906 18.726562 11.308594 18.824219 11.367188 C 18.949219 11.445312 19.074219 11.53125 19.203125 11.609375 C 19.304688 11.679688 19.40625 11.742188 19.507812 11.808594 C 19.632812 11.886719 19.753906 11.964844 19.878906 12.050781 C 19.988281 12.125 20.101562 12.199219 20.214844 12.269531 C 20.40625 12.398438 20.59375 12.527344 20.785156 12.652344 C 20.917969 12.742188 21.050781 12.839844 21.183594 12.925781 C 21.296875 13.007812 21.410156 13.085938 21.523438 13.167969 C 21.644531 13.253906 21.761719 13.332031 21.878906 13.414062 C 21.996094 13.5 22.109375 13.578125 22.222656 13.660156 C 22.347656 13.75 22.472656 13.839844 22.59375 13.929688 C 22.703125 14.007812 22.8125 14.085938 22.921875 14.171875 C 23.082031 14.285156 23.246094 14.40625 23.410156 14.535156 C 23.539062 14.628906 23.671875 14.726562 23.800781 14.828125 C 23.960938 14.949219 24.121094 15.070312 24.28125 15.195312 C 24.382812 15.273438 24.484375 15.351562 24.585938 15.429688 C 24.722656 15.535156 24.859375 15.640625 24.996094 15.75 C 25.097656 15.828125 25.203125 15.914062 25.304688 15.996094 C 25.449219 16.113281 25.59375 16.230469 25.742188 16.34375 C 25.832031 16.417969 25.925781 16.492188 26.015625 16.570312 C 26.203125 16.722656 26.390625 16.875 26.574219 17.027344 C 26.761719 16.875 26.945312 16.722656 27.128906 16.570312 C 27.226562 16.492188 27.328125 16.414062 27.421875 16.335938 C 27.5625 16.222656 27.699219 16.113281 27.839844 16.003906 C 27.949219 15.914062 28.054688 15.832031 28.164062 15.746094 C 28.292969 15.640625 28.425781 15.542969 28.554688 15.4375 C 28.660156 15.359375 28.769531 15.273438 28.875 15.191406 C 29.023438 15.074219 29.171875 14.964844 29.320312 14.847656 C 29.472656 14.734375 29.628906 14.617188 29.777344 14.503906 C 29.925781 14.390625 30.078125 14.28125 30.226562 14.171875 C 30.339844 14.085938 30.453125 14.003906 30.566406 13.925781 C 30.6875 13.835938 30.804688 13.75 30.921875 13.667969 C 31.039062 13.582031 31.160156 13.5 31.277344 13.414062 C 31.390625 13.332031 31.503906 13.253906 31.617188 13.175781 C 31.734375 13.089844 31.855469 13.007812 31.972656 12.925781 C 32.089844 12.84375 32.210938 12.765625 32.328125 12.679688 C 32.539062 12.539062 32.75 12.398438 32.960938 12.253906 C 33.0625 12.1875 33.167969 12.117188 33.269531 12.050781 C 33.398438 11.96875 33.523438 11.882812 33.652344 11.800781 C 33.75 11.742188 33.847656 11.679688 33.941406 11.613281 C 34.074219 11.53125 34.203125 11.445312 34.332031 11.367188 C 34.421875 11.3125 34.511719 11.253906 34.605469 11.199219 C 34.738281 11.117188 34.875 11.03125 35.007812 10.949219 C 35.042969 10.925781 35.078125 10.90625 35.113281 10.886719 C 35.414062 10.703125 35.71875 10.523438 36.019531 10.34375 C 36.09375 10.300781 36.164062 10.261719 36.238281 10.21875 C 36.378906 10.136719 36.515625 10.054688 36.65625 9.984375 C 36.722656 9.941406 36.789062 9.902344 36.855469 9.867188 C 33.367188 6.773438 29.898438 4.164062 26.574219 2.09375 C 23.253906 4.164062 19.785156 6.773438 16.296875 9.867188 C 16.363281 9.902344 16.433594 9.945312 16.5 9.984375 Z M 16.5 9.984375 "/>
<path style=" stroke:none;fill-rule:nonzero;fill:rgb(0%,62.7451%,89.019608%);fill-opacity:1;" d="M 45.269531 18.765625 C 45.125 18.84375 44.984375 18.921875 44.839844 19 C 44.765625 19.042969 44.691406 19.085938 44.617188 19.128906 C 44.476562 19.207031 44.339844 19.285156 44.195312 19.367188 C 44.125 19.410156 44.054688 19.449219 43.984375 19.488281 C 43.667969 19.671875 43.355469 19.863281 43.035156 20.058594 C 43.011719 20.066406 42.992188 20.082031 42.96875 20.097656 C 42.832031 20.183594 42.695312 20.265625 42.558594 20.351562 C 42.46875 20.402344 42.382812 20.460938 42.292969 20.511719 C 42.164062 20.597656 42.03125 20.679688 41.898438 20.765625 C 41.804688 20.828125 41.710938 20.886719 41.613281 20.949219 C 41.484375 21.03125 41.355469 21.117188 41.226562 21.199219 C 41.125 21.269531 41.027344 21.335938 40.925781 21.402344 C 40.707031 21.546875 40.492188 21.695312 40.273438 21.839844 C 40.160156 21.921875 40.046875 21.992188 39.933594 22.074219 C 39.8125 22.15625 39.691406 22.242188 39.570312 22.324219 C 39.460938 22.402344 39.347656 22.480469 39.238281 22.558594 C 39.117188 22.644531 39 22.734375 38.878906 22.816406 C 38.761719 22.902344 38.644531 22.984375 38.527344 23.070312 C 38.414062 23.152344 38.300781 23.238281 38.183594 23.320312 C 38.035156 23.429688 37.886719 23.542969 37.738281 23.652344 C 37.585938 23.765625 37.433594 23.882812 37.28125 24 C 37.132812 24.109375 36.984375 24.226562 36.835938 24.339844 C 36.726562 24.417969 36.621094 24.503906 36.511719 24.585938 C 36.382812 24.691406 36.253906 24.792969 36.121094 24.898438 C 36.015625 24.980469 35.90625 25.0625 35.796875 25.152344 C 35.691406 25.238281 35.582031 25.320312 35.476562 25.410156 C 35.695312 25.640625 35.914062 25.878906 36.132812 26.113281 C 36.203125 26.1875 36.269531 26.265625 36.339844 26.339844 C 36.511719 26.523438 36.683594 26.714844 36.855469 26.902344 C 36.933594 26.992188 37.015625 27.082031 37.097656 27.167969 C 37.265625 27.351562 37.433594 27.542969 37.597656 27.726562 C 37.671875 27.808594 37.746094 27.886719 37.816406 27.972656 C 38.054688 28.242188 38.289062 28.507812 38.523438 28.777344 C 38.757812 29.046875 38.992188 29.316406 39.222656 29.589844 C 39.296875 29.671875 39.367188 29.757812 39.4375 29.839844 C 39.601562 30.035156 39.761719 30.226562 39.921875 30.414062 C 40 30.507812 40.078125 30.601562 40.15625 30.699219 C 40.320312 30.890625 40.480469 31.089844 40.644531 31.285156 C 40.707031 31.363281 40.773438 31.441406 40.839844 31.527344 C 41.0625 31.800781 41.28125 32.066406 41.503906 32.339844 C 41.535156 32.382812 41.5625 32.417969 41.59375 32.460938 C 41.78125 32.695312 41.96875 32.929688 42.15625 33.164062 C 42.226562 33.257812 42.296875 33.347656 42.371094 33.441406 C 42.515625 33.625 42.660156 33.816406 42.808594 34.003906 C 42.882812 34.097656 42.957031 34.199219 43.03125 34.292969 C 43.125 34.417969 43.214844 34.539062 43.308594 34.660156 C 43.316406 34.65625 43.320312 34.648438 43.324219 34.648438 C 43.472656 34.53125 43.617188 34.410156 43.765625 34.292969 C 43.867188 34.214844 43.96875 34.128906 44.070312 34.050781 C 44.210938 33.941406 44.347656 33.832031 44.488281 33.726562 C 44.585938 33.648438 44.6875 33.570312 44.789062 33.496094 C 44.953125 33.363281 45.117188 33.238281 45.285156 33.113281 C 45.402344 33.023438 45.519531 32.933594 45.640625 32.84375 C 45.8125 32.71875 45.980469 32.59375 46.152344 32.464844 C 46.257812 32.386719 46.363281 32.308594 46.46875 32.234375 C 46.597656 32.140625 46.722656 32.050781 46.847656 31.957031 C 46.960938 31.878906 47.074219 31.800781 47.183594 31.722656 C 47.308594 31.632812 47.429688 31.546875 47.550781 31.464844 C 47.660156 31.386719 47.773438 31.304688 47.882812 31.226562 C 48.027344 31.132812 48.167969 31.035156 48.308594 30.9375 C 48.484375 30.820312 48.664062 30.699219 48.839844 30.582031 C 48.957031 30.503906 49.074219 30.425781 49.195312 30.347656 C 49.316406 30.265625 49.433594 30.1875 49.554688 30.109375 C 49.660156 30.042969 49.765625 29.972656 49.871094 29.90625 C 49.996094 29.828125 50.117188 29.746094 50.242188 29.675781 C 50.339844 29.609375 50.441406 29.546875 50.542969 29.484375 C 50.667969 29.40625 50.792969 29.328125 50.917969 29.25 C 50.996094 29.203125 51.074219 29.160156 51.152344 29.113281 C 51.40625 28.960938 51.65625 28.808594 51.90625 28.660156 C 51.992188 28.613281 52.078125 28.5625 52.164062 28.515625 C 52.296875 28.433594 52.429688 28.363281 52.5625 28.289062 C 52.644531 28.242188 52.730469 28.1875 52.816406 28.140625 C 52.90625 28.09375 53 28.035156 53.09375 27.988281 C 51.082031 25.179688 48.875 22.375 46.484375 19.625 C 46.183594 19.277344 45.878906 18.9375 45.578125 18.601562 C 45.535156 18.625 45.492188 18.644531 45.449219 18.671875 C 45.390625 18.703125 45.328125 18.734375 45.269531 18.765625 Z M 45.269531 18.765625 "/>
<path style=" stroke:none;fill-rule:nonzero;fill:rgb(21.568628%,41.176471%,69.01961%);fill-opacity:1;" d="M 26.699219 17.132812 C 26.765625 17.183594 26.832031 17.242188 26.898438 17.300781 C 27.070312 17.441406 27.246094 17.589844 27.417969 17.738281 C 27.511719 17.816406 27.601562 17.894531 27.695312 17.972656 C 27.847656 18.097656 27.996094 18.230469 28.148438 18.359375 C 28.242188 18.441406 28.335938 18.523438 28.425781 18.601562 C 28.59375 18.75 28.757812 18.898438 28.921875 19.042969 C 29 19.105469 29.074219 19.175781 29.148438 19.238281 C 29.382812 19.449219 29.617188 19.65625 29.851562 19.875 C 29.914062 19.929688 29.980469 19.992188 30.042969 20.050781 C 30.21875 20.214844 30.398438 20.378906 30.574219 20.539062 C 30.660156 20.617188 30.746094 20.703125 30.832031 20.78125 C 30.992188 20.933594 31.152344 21.082031 31.3125 21.234375 C 31.398438 21.316406 31.484375 21.394531 31.566406 21.472656 C 31.753906 21.652344 31.941406 21.832031 32.125 22.015625 C 32.179688 22.066406 32.234375 22.121094 32.289062 22.171875 C 32.527344 22.402344 32.765625 22.632812 33.003906 22.871094 C 33.066406 22.9375 33.132812 23 33.195312 23.070312 C 33.375 23.242188 33.550781 23.421875 33.726562 23.601562 C 33.808594 23.683594 33.890625 23.769531 33.972656 23.851562 C 34.140625 24.019531 34.304688 24.1875 34.472656 24.363281 C 34.550781 24.441406 34.625 24.519531 34.703125 24.601562 C 34.910156 24.820312 35.121094 25.039062 35.328125 25.253906 C 35.359375 25.289062 35.390625 25.324219 35.421875 25.355469 C 35.4375 25.375 35.457031 25.390625 35.476562 25.410156 C 35.582031 25.324219 35.691406 25.238281 35.796875 25.15625 C 35.90625 25.066406 36.015625 24.980469 36.121094 24.898438 C 36.253906 24.792969 36.382812 24.691406 36.511719 24.585938 C 36.621094 24.503906 36.726562 24.417969 36.835938 24.339844 C 36.984375 24.226562 37.132812 24.109375 37.28125 24 C 37.433594 23.882812 37.585938 23.769531 37.738281 23.652344 C 37.886719 23.542969 38.035156 23.433594 38.183594 23.320312 C 38.300781 23.238281 38.414062 23.152344 38.527344 23.070312 C 38.644531 22.988281 38.761719 22.902344 38.878906 22.820312 C 39 22.734375 39.117188 22.644531 39.238281 22.5625 C 39.347656 22.484375 39.460938 22.402344 39.574219 22.324219 C 39.691406 22.242188 39.8125 22.15625 39.933594 22.074219 C 40.046875 21.996094 40.160156 21.921875 40.273438 21.84375 C 40.492188 21.695312 40.710938 21.546875 40.925781 21.402344 C 41.027344 21.339844 41.125 21.269531 41.226562 21.203125 C 41.355469 21.117188 41.484375 21.035156 41.613281 20.949219 C 41.710938 20.886719 41.804688 20.828125 41.898438 20.765625 C 42.03125 20.683594 42.164062 20.597656 42.292969 20.515625 C 42.382812 20.460938 42.46875 20.402344 42.558594 20.351562 C 42.695312 20.265625 42.832031 20.183594 42.96875 20.097656 C 42.992188 20.082031 43.015625 20.066406 43.035156 20.058594 C 43.355469 19.863281 43.671875 19.675781 43.984375 19.492188 C 44.054688 19.449219 44.125 19.410156 44.195312 19.371094 C 44.339844 19.285156 44.480469 19.207031 44.617188 19.128906 C 44.691406 19.085938 44.765625 19.042969 44.839844 19.003906 C 44.984375 18.921875 45.125 18.84375 45.269531 18.765625 C 45.328125 18.734375 45.390625 18.703125 45.449219 18.671875 C 45.492188 18.644531 45.535156 18.625 45.578125 18.597656 C 42.707031 15.378906 39.773438 12.457031 36.855469 9.867188 C 36.789062 9.90625 36.722656 9.941406 36.65625 9.984375 C 36.515625 10.058594 36.378906 10.136719 36.238281 10.21875 C 36.164062 10.261719 36.09375 10.304688 36.019531 10.34375 C 35.71875 10.523438 35.417969 10.703125 35.113281 10.886719 C 35.078125 10.90625 35.042969 10.929688 35.007812 10.949219 C 34.875 11.03125 34.738281 11.117188 34.605469 11.199219 C 34.515625 11.253906 34.425781 11.3125 34.332031 11.367188 C 34.203125 11.449219 34.074219 11.53125 33.941406 11.617188 C 33.847656 11.679688 33.75 11.742188 33.652344 11.800781 C 33.527344 11.882812 33.398438 11.96875 33.269531 12.050781 C 33.167969 12.121094 33.0625 12.1875 32.960938 12.257812 C 32.75 12.398438 32.539062 12.539062 32.328125 12.679688 C 32.210938 12.765625 32.09375 12.84375 31.972656 12.929688 C 31.855469 13.007812 31.734375 13.089844 31.617188 13.175781 C 31.503906 13.253906 31.390625 13.332031 31.277344 13.414062 C 31.160156 13.5 31.039062 13.585938 30.921875 13.667969 C 30.804688 13.75 30.6875 13.835938 30.570312 13.925781 C 30.453125 14.003906 30.339844 14.085938 30.226562 14.171875 C 30.078125 14.28125 29.929688 14.390625 29.777344 14.503906 C 29.628906 14.617188 29.476562 14.734375 29.320312 14.847656 C 29.175781 14.964844 29.027344 15.074219 28.878906 15.191406 C 28.769531 15.273438 28.664062 15.359375 28.554688 15.4375 C 28.425781 15.542969 28.292969 15.640625 28.164062 15.746094 C 28.054688 15.832031 27.949219 15.914062 27.839844 16.003906 C 27.703125 16.113281 27.5625 16.222656 27.425781 16.335938 C 27.328125 16.414062 27.230469 16.492188 27.128906 16.570312 C 26.945312 16.722656 26.761719 16.875 26.578125 17.027344 C 26.617188 17.0625 26.660156 17.097656 26.699219 17.132812 Z M 26.699219 17.132812 "/>
<path style=" stroke:none;fill-rule:nonzero;fill:rgb(0%,62.7451%,89.019608%);fill-opacity:1;" d="M 0.589844 28.289062 C 0.722656 28.363281 0.855469 28.4375 0.988281 28.515625 C 1.074219 28.5625 1.160156 28.613281 1.246094 28.660156 C 1.496094 28.808594 1.742188 28.957031 1.992188 29.109375 C 2.074219 29.15625 2.152344 29.203125 2.234375 29.25 C 2.359375 29.328125 2.484375 29.40625 2.609375 29.484375 C 2.710938 29.550781 2.808594 29.613281 2.910156 29.675781 C 3.03125 29.75 3.15625 29.828125 3.28125 29.90625 C 3.386719 29.972656 3.492188 30.042969 3.597656 30.109375 C 3.71875 30.1875 3.835938 30.269531 3.957031 30.347656 C 4.074219 30.425781 4.195312 30.503906 4.3125 30.582031 C 4.492188 30.699219 4.667969 30.820312 4.84375 30.941406 C 4.984375 31.035156 5.125 31.132812 5.265625 31.230469 C 5.378906 31.308594 5.488281 31.386719 5.601562 31.464844 C 5.722656 31.546875 5.84375 31.632812 5.96875 31.722656 C 6.078125 31.800781 6.191406 31.878906 6.304688 31.957031 C 6.429688 32.050781 6.558594 32.140625 6.683594 32.238281 C 6.789062 32.308594 6.894531 32.390625 7 32.46875 C 7.171875 32.59375 7.34375 32.71875 7.515625 32.851562 C 7.632812 32.933594 7.75 33.023438 7.867188 33.113281 C 8.03125 33.238281 8.199219 33.363281 8.367188 33.496094 C 8.464844 33.570312 8.566406 33.648438 8.664062 33.726562 C 8.804688 33.832031 8.941406 33.941406 9.082031 34.050781 C 9.183594 34.132812 9.285156 34.214844 9.386719 34.292969 C 9.535156 34.410156 9.679688 34.53125 9.828125 34.652344 C 9.832031 34.652344 9.835938 34.65625 9.84375 34.660156 C 9.933594 34.539062 10.027344 34.421875 10.121094 34.296875 C 10.195312 34.199219 10.269531 34.097656 10.347656 34.003906 C 10.492188 33.816406 10.636719 33.632812 10.78125 33.441406 C 10.851562 33.347656 10.925781 33.257812 11 33.164062 C 11.179688 32.933594 11.367188 32.699219 11.550781 32.46875 C 11.585938 32.425781 11.617188 32.382812 11.652344 32.339844 C 11.871094 32.066406 12.089844 31.800781 12.3125 31.527344 C 12.378906 31.441406 12.445312 31.363281 12.511719 31.285156 C 12.671875 31.089844 12.832031 30.890625 12.992188 30.699219 C 13.070312 30.601562 13.152344 30.507812 13.230469 30.414062 C 13.390625 30.226562 13.550781 30.035156 13.710938 29.84375 C 13.785156 29.757812 13.855469 29.675781 13.929688 29.589844 C 14.160156 29.316406 14.394531 29.050781 14.628906 28.777344 C 14.863281 28.507812 15.097656 28.242188 15.335938 27.972656 C 15.40625 27.890625 15.480469 27.808594 15.554688 27.726562 C 15.722656 27.539062 15.886719 27.351562 16.050781 27.167969 C 16.136719 27.082031 16.21875 26.992188 16.300781 26.898438 C 16.46875 26.714844 16.636719 26.53125 16.808594 26.347656 C 16.878906 26.265625 16.949219 26.1875 17.019531 26.113281 C 17.238281 25.878906 17.457031 25.640625 17.675781 25.410156 C 17.566406 25.324219 17.457031 25.234375 17.351562 25.148438 C 17.246094 25.066406 17.140625 24.980469 17.035156 24.898438 C 16.898438 24.792969 16.765625 24.6875 16.632812 24.582031 C 16.527344 24.503906 16.421875 24.417969 16.320312 24.339844 C 16.164062 24.21875 16.007812 24.105469 15.851562 23.984375 C 15.714844 23.878906 15.574219 23.773438 15.4375 23.675781 C 15.28125 23.554688 15.121094 23.4375 14.964844 23.320312 C 14.851562 23.238281 14.742188 23.160156 14.628906 23.074219 C 14.511719 22.992188 14.390625 22.902344 14.269531 22.8125 C 14.152344 22.730469 14.035156 22.648438 13.917969 22.566406 C 13.804688 22.484375 13.6875 22.402344 13.574219 22.320312 C 13.457031 22.242188 13.339844 22.15625 13.222656 22.078125 C 13.097656 21.988281 12.976562 21.910156 12.851562 21.828125 C 12.648438 21.683594 12.445312 21.546875 12.242188 21.410156 C 12.132812 21.34375 12.027344 21.269531 11.921875 21.203125 C 11.796875 21.117188 11.667969 21.035156 11.542969 20.953125 C 11.445312 20.890625 11.347656 20.824219 11.25 20.765625 C 11.117188 20.683594 10.988281 20.597656 10.863281 20.519531 C 10.769531 20.460938 10.679688 20.402344 10.585938 20.347656 C 10.453125 20.261719 10.320312 20.179688 10.1875 20.097656 C 10.148438 20.078125 10.109375 20.050781 10.074219 20.03125 C 9.773438 19.847656 9.476562 19.667969 9.175781 19.496094 C 9.101562 19.453125 9.027344 19.410156 8.953125 19.371094 C 8.816406 19.285156 8.675781 19.207031 8.535156 19.128906 C 8.460938 19.085938 8.382812 19.042969 8.308594 19.003906 C 8.167969 18.921875 8.027344 18.84375 7.886719 18.765625 C 7.824219 18.734375 7.757812 18.699219 7.695312 18.667969 C 7.65625 18.644531 7.617188 18.625 7.574219 18.605469 C 7.273438 18.941406 6.96875 19.28125 6.667969 19.628906 C 4.277344 22.378906 2.070312 25.179688 0.0585938 27.992188 C 0.152344 28.039062 0.242188 28.09375 0.335938 28.144531 C 0.421875 28.191406 0.507812 28.242188 0.59375 28.289062 Z M 0.589844 28.289062 "/>
<path style=" stroke:none;fill-rule:nonzero;fill:rgb(50.196081%,81.176472%,95.686275%);fill-opacity:1;" d="M 34.414062 42.59375 C 34.339844 42.5 34.265625 42.40625 34.195312 42.316406 C 34.011719 42.085938 33.828125 41.851562 33.644531 41.617188 C 33.609375 41.578125 33.574219 41.535156 33.542969 41.492188 C 33.324219 41.21875 33.105469 40.945312 32.882812 40.679688 C 32.816406 40.59375 32.75 40.515625 32.683594 40.433594 C 32.523438 40.238281 32.363281 40.042969 32.199219 39.847656 C 32.121094 39.753906 32.042969 39.660156 31.964844 39.566406 C 31.804688 39.378906 31.640625 39.183594 31.480469 38.992188 C 31.410156 38.910156 31.335938 38.824219 31.265625 38.742188 C 31.035156 38.46875 30.800781 38.195312 30.566406 37.929688 C 30.332031 37.660156 30.09375 37.394531 29.859375 37.125 C 29.785156 37.042969 29.710938 36.960938 29.640625 36.878906 C 29.472656 36.6875 29.304688 36.503906 29.140625 36.320312 C 29.058594 36.234375 28.976562 36.136719 28.894531 36.046875 C 28.722656 35.863281 28.554688 35.675781 28.382812 35.492188 C 28.3125 35.417969 28.246094 35.339844 28.175781 35.265625 C 27.9375 35.007812 27.699219 34.757812 27.464844 34.503906 C 27.429688 34.46875 27.398438 34.4375 27.367188 34.402344 C 27.160156 34.183594 26.953125 33.96875 26.746094 33.753906 C 26.6875 33.695312 26.632812 33.640625 26.574219 33.574219 C 26.519531 33.640625 26.460938 33.695312 26.402344 33.753906 C 26.199219 33.964844 25.996094 34.179688 25.792969 34.394531 C 25.757812 34.433594 25.722656 34.46875 25.6875 34.503906 C 25.449219 34.757812 25.214844 35.007812 24.976562 35.265625 C 24.90625 35.339844 24.835938 35.417969 24.765625 35.496094 C 24.597656 35.679688 24.425781 35.863281 24.257812 36.046875 C 24.175781 36.136719 24.09375 36.230469 24.011719 36.320312 C 23.84375 36.503906 23.679688 36.6875 23.511719 36.878906 C 23.4375 36.957031 23.367188 37.039062 23.292969 37.125 C 23.054688 37.390625 22.820312 37.660156 22.585938 37.929688 C 22.351562 38.195312 22.117188 38.46875 21.886719 38.742188 C 21.8125 38.824219 21.742188 38.910156 21.671875 38.992188 C 21.507812 39.183594 21.347656 39.375 21.1875 39.566406 C 21.109375 39.660156 21.03125 39.753906 20.953125 39.847656 C 20.789062 40.042969 20.628906 40.242188 20.464844 40.4375 C 20.402344 40.515625 20.335938 40.59375 20.269531 40.671875 C 20.046875 40.945312 19.828125 41.21875 19.609375 41.492188 C 19.578125 41.535156 19.546875 41.570312 19.515625 41.609375 C 19.328125 41.84375 19.140625 42.082031 18.957031 42.316406 C 18.882812 42.410156 18.8125 42.5 18.742188 42.589844 C 18.703125 42.640625 18.664062 42.6875 18.628906 42.738281 C 18.679688 42.792969 18.734375 42.847656 18.785156 42.90625 C 18.996094 43.121094 19.203125 43.335938 19.410156 43.554688 C 19.441406 43.585938 19.472656 43.617188 19.503906 43.65625 C 19.742188 43.90625 19.980469 44.160156 20.214844 44.417969 C 20.285156 44.492188 20.355469 44.5625 20.421875 44.640625 C 20.59375 44.824219 20.765625 45.015625 20.9375 45.199219 C 21.015625 45.289062 21.097656 45.378906 21.179688 45.464844 C 21.347656 45.65625 21.515625 45.839844 21.679688 46.027344 C 21.753906 46.113281 21.828125 46.191406 21.898438 46.273438 C 22.136719 46.539062 22.371094 46.804688 22.605469 47.078125 C 22.839844 47.347656 23.074219 47.617188 23.304688 47.886719 C 23.378906 47.976562 23.449219 48.058594 23.523438 48.144531 C 23.683594 48.332031 23.84375 48.527344 24.003906 48.714844 C 24.082031 48.808594 24.160156 48.90625 24.238281 49 C 24.402344 49.195312 24.5625 49.386719 24.722656 49.582031 C 24.789062 49.667969 24.855469 49.746094 24.921875 49.824219 C 25.144531 50.097656 25.363281 50.371094 25.582031 50.640625 C 25.617188 50.683594 25.648438 50.726562 25.683594 50.769531 C 25.867188 51 26.050781 51.230469 26.234375 51.464844 C 26.308594 51.554688 26.382812 51.652344 26.453125 51.746094 C 26.496094 51.796875 26.535156 51.851562 26.574219 51.902344 C 26.617188 51.851562 26.65625 51.796875 26.699219 51.746094 C 26.769531 51.652344 26.84375 51.554688 26.914062 51.464844 C 27.101562 51.230469 27.285156 51 27.472656 50.761719 C 27.503906 50.726562 27.535156 50.683594 27.566406 50.640625 C 27.785156 50.371094 28.007812 50.097656 28.226562 49.824219 C 28.292969 49.746094 28.359375 49.667969 28.425781 49.582031 C 28.589844 49.386719 28.75 49.195312 28.910156 49 C 28.988281 48.90625 29.070312 48.808594 29.148438 48.714844 C 29.304688 48.527344 29.46875 48.332031 29.628906 48.144531 C 29.703125 48.058594 29.773438 47.976562 29.847656 47.886719 C 30.078125 47.617188 30.308594 47.347656 30.542969 47.078125 C 30.78125 46.804688 31.015625 46.539062 31.25 46.273438 C 31.324219 46.191406 31.398438 46.113281 31.46875 46.027344 C 31.636719 45.839844 31.804688 45.65625 31.972656 45.464844 C 32.050781 45.378906 32.132812 45.289062 32.214844 45.199219 C 32.386719 45.015625 32.558594 44.824219 32.726562 44.640625 C 32.796875 44.5625 32.867188 44.492188 32.933594 44.417969 C 33.171875 44.160156 33.410156 43.90625 33.648438 43.65625 C 33.679688 43.617188 33.710938 43.585938 33.742188 43.554688 C 33.949219 43.335938 34.15625 43.121094 34.363281 42.90625 C 34.417969 42.847656 34.472656 42.792969 34.523438 42.738281 C 34.488281 42.6875 34.449219 42.640625 34.414062 42.59375 Z M 34.414062 42.59375 "/>
<path style=" stroke:none;fill-rule:nonzero;fill:rgb(21.568628%,41.176471%,69.01961%);fill-opacity:1;" d="M 7.886719 18.765625 C 8.027344 18.84375 8.167969 18.921875 8.308594 19 C 8.382812 19.042969 8.460938 19.085938 8.535156 19.128906 C 8.675781 19.207031 8.8125 19.285156 8.953125 19.367188 C 9.027344 19.410156 9.101562 19.453125 9.175781 19.496094 C 9.472656 19.667969 9.773438 19.847656 10.074219 20.03125 C 10.109375 20.050781 10.148438 20.078125 10.1875 20.097656 C 10.320312 20.175781 10.453125 20.261719 10.585938 20.34375 C 10.679688 20.402344 10.769531 20.460938 10.863281 20.519531 C 10.988281 20.597656 11.117188 20.679688 11.246094 20.765625 C 11.347656 20.824219 11.445312 20.890625 11.542969 20.953125 C 11.667969 21.03125 11.796875 21.117188 11.921875 21.199219 C 12.027344 21.269531 12.132812 21.34375 12.238281 21.410156 C 12.445312 21.546875 12.648438 21.683594 12.851562 21.824219 C 12.976562 21.910156 13.097656 21.988281 13.222656 22.078125 C 13.335938 22.15625 13.453125 22.242188 13.574219 22.320312 C 13.6875 22.402344 13.800781 22.480469 13.917969 22.566406 C 14.035156 22.648438 14.152344 22.730469 14.269531 22.8125 C 14.390625 22.902344 14.507812 22.992188 14.628906 23.074219 C 14.742188 23.160156 14.851562 23.238281 14.964844 23.320312 C 15.121094 23.4375 15.277344 23.550781 15.4375 23.671875 C 15.574219 23.773438 15.714844 23.878906 15.851562 23.984375 C 16.007812 24.105469 16.164062 24.21875 16.320312 24.339844 C 16.421875 24.417969 16.527344 24.503906 16.632812 24.582031 C 16.765625 24.6875 16.898438 24.792969 17.035156 24.898438 C 17.140625 24.980469 17.246094 25.066406 17.351562 25.148438 C 17.457031 25.230469 17.566406 25.320312 17.675781 25.410156 C 17.695312 25.390625 17.710938 25.375 17.730469 25.351562 C 17.765625 25.316406 17.800781 25.277344 17.835938 25.242188 C 18.039062 25.027344 18.242188 24.816406 18.445312 24.601562 C 18.523438 24.519531 18.605469 24.441406 18.6875 24.355469 C 18.847656 24.1875 19.011719 24.019531 19.171875 23.855469 C 19.257812 23.765625 19.34375 23.683594 19.429688 23.59375 C 19.601562 23.421875 19.773438 23.246094 19.945312 23.074219 C 20.015625 23.007812 20.082031 22.9375 20.152344 22.871094 C 20.386719 22.632812 20.625 22.402344 20.859375 22.171875 C 20.921875 22.113281 20.980469 22.054688 21.042969 22 C 21.21875 21.824219 21.398438 21.652344 21.578125 21.476562 C 21.667969 21.394531 21.757812 21.308594 21.847656 21.226562 C 22 21.078125 22.15625 20.933594 22.3125 20.789062 C 22.402344 20.703125 22.492188 20.617188 22.582031 20.535156 C 22.753906 20.375 22.921875 20.21875 23.09375 20.066406 C 23.164062 19.996094 23.234375 19.933594 23.304688 19.871094 C 23.535156 19.65625 23.769531 19.453125 24 19.242188 C 24.082031 19.167969 24.164062 19.101562 24.242188 19.027344 C 24.402344 18.886719 24.558594 18.75 24.71875 18.605469 C 24.816406 18.523438 24.914062 18.4375 25.011719 18.355469 C 25.15625 18.230469 25.300781 18.101562 25.445312 17.976562 C 25.542969 17.894531 25.640625 17.8125 25.738281 17.730469 C 25.902344 17.589844 26.066406 17.453125 26.230469 17.316406 C 26.304688 17.253906 26.378906 17.1875 26.457031 17.125 C 26.496094 17.09375 26.535156 17.058594 26.574219 17.027344 C 26.390625 16.875 26.203125 16.722656 26.015625 16.570312 C 25.925781 16.492188 25.832031 16.417969 25.742188 16.34375 C 25.59375 16.230469 25.449219 16.113281 25.304688 15.996094 C 25.203125 15.914062 25.097656 15.828125 24.996094 15.75 C 24.859375 15.640625 24.722656 15.535156 24.585938 15.429688 C 24.484375 15.351562 24.382812 15.273438 24.28125 15.195312 C 24.121094 15.070312 23.960938 14.949219 23.800781 14.828125 C 23.671875 14.726562 23.539062 14.628906 23.410156 14.535156 C 23.246094 14.40625 23.082031 14.285156 22.921875 14.171875 C 22.8125 14.085938 22.703125 14.007812 22.59375 13.929688 C 22.472656 13.839844 22.347656 13.75 22.222656 13.660156 C 22.109375 13.578125 21.996094 13.5 21.878906 13.414062 C 21.761719 13.332031 21.644531 13.253906 21.523438 13.167969 C 21.410156 13.085938 21.296875 13.007812 21.183594 12.925781 C 21.050781 12.839844 20.917969 12.742188 20.785156 12.652344 C 20.59375 12.527344 20.40625 12.398438 20.214844 12.269531 C 20.101562 12.199219 19.988281 12.125 19.878906 12.050781 C 19.753906 11.964844 19.632812 11.886719 19.507812 11.808594 C 19.40625 11.742188 19.304688 11.679688 19.203125 11.609375 C 19.074219 11.53125 18.949219 11.445312 18.824219 11.367188 C 18.726562 11.308594 18.632812 11.253906 18.535156 11.191406 C 18.40625 11.109375 18.277344 11.027344 18.148438 10.949219 C 18.089844 10.917969 18.03125 10.878906 17.972656 10.84375 C 17.695312 10.675781 17.421875 10.511719 17.148438 10.355469 C 17.066406 10.308594 16.988281 10.261719 16.910156 10.214844 C 16.773438 10.132812 16.636719 10.0625 16.5 9.984375 C 16.433594 9.945312 16.363281 9.910156 16.296875 9.867188 C 13.378906 12.453125 10.445312 15.378906 7.574219 18.597656 C 7.617188 18.625 7.65625 18.644531 7.695312 18.664062 C 7.757812 18.695312 7.820312 18.734375 7.886719 18.765625 Z M 7.886719 18.765625 "/>
</g>
</svg>
