<svg width="172" height="43" viewBox="0 0 172 43" fill="none" xmlns="http://www.w3.org/2000/svg">
<g clip-path="url(#clip0_164_270)">
<path d="M22.0171 11.8994C24.6858 9.73585 27.488 7.84277 30.1567 6.22013C27.488 3.92138 24.8193 1.89308 22.0171 0C19.2149 1.75786 16.5462 3.92138 13.8774 6.22013C16.6796 7.84277 19.3483 9.73585 22.0171 11.8994Z" fill="#2F3587"/>
<path d="M15.4787 17.9844C17.6136 15.8208 19.8821 13.7925 22.1505 11.8995C19.4818 9.73594 16.6796 7.84286 14.0109 6.22021C12.543 7.57242 10.9418 8.92462 9.60744 10.412C8.53994 11.4938 7.47245 12.5756 6.53839 13.7925C9.20713 15.4152 11.8759 17.173 14.4112 19.3366C14.678 18.7957 15.0783 18.39 15.4787 17.9844Z" fill="#005DAC"/>
<path d="M7.47246 27.3145C9.47401 24.4748 11.7424 21.7704 14.2777 19.2013C11.7424 17.1729 9.0737 15.2799 6.40497 13.6572C4.0031 16.3616 1.86811 19.066 0 21.9057C2.5353 23.5283 5.0706 25.2862 7.47246 27.3145Z" fill="#30A7DF"/>
<path d="M29.8898 19.2013C32.4251 17.173 35.0939 15.2799 37.7626 13.6573C36.8286 12.5755 35.7611 11.3585 34.6936 10.2768C33.2258 8.78936 31.758 7.43716 30.2902 6.08496C27.488 7.7076 24.8192 9.60068 22.1505 11.7642C24.4189 13.6573 26.6874 15.5504 28.8224 17.8491C29.0892 18.39 29.4895 18.7957 29.8898 19.2013Z" fill="#005DAC"/>
<path d="M36.6951 27.3145C39.097 25.2862 41.6323 23.5283 44.1676 21.9057C42.2994 19.066 40.1645 16.3616 37.7626 13.6572C35.0939 15.2799 32.4251 17.0377 29.8898 19.2013C32.4251 21.7704 34.6936 24.6101 36.6951 27.3145Z" fill="#30A7DF"/>
<path d="M22.0171 43C24.0186 40.1604 26.287 37.3208 28.8223 34.6163C26.8208 31.7767 24.5524 29.0723 22.0171 26.3679C19.4818 29.0723 17.2133 31.7767 15.2118 34.6163C17.7471 37.3208 20.0155 40.0252 22.0171 43Z" fill="#6BC3D6"/>
<path d="M76.5927 27.5849C76.7261 27.5849 76.993 27.5849 77.1264 27.4497V30.8302C76.4593 31.1006 75.3918 31.3711 74.4577 31.3711C72.8565 31.3711 71.5221 30.8302 70.8549 29.7484C69.3871 30.8302 67.7859 31.6415 65.6509 31.6415C62.7153 31.6415 60.4468 29.8837 60.4468 26.9088C60.4468 23.1227 64.0496 21.9057 66.9852 21.9057C68.0527 21.9057 69.2537 22.0409 70.1877 22.3113V21.7705C70.1877 20.6887 69.2537 19.8774 67.1187 19.8774C65.1171 19.8774 63.3825 20.4183 61.9146 21.0944V16.6321C63.1156 16.2264 65.5174 15.6855 67.7859 15.6855C72.5896 15.6855 75.6586 17.3082 75.6586 22.717V26.9088C75.6586 27.3145 76.1924 27.5849 76.5927 27.5849ZM67.9193 27.8554C68.8534 27.8554 69.5205 27.7201 70.3212 27.044V25.0157C69.7874 24.8805 69.1202 24.7453 68.453 24.7453C67.2521 24.7453 66.0512 25.151 66.0512 26.3679C66.0512 27.044 66.7184 27.8554 67.9193 27.8554Z" fill="#1A1A1A"/>
<path d="M83.6649 7.84277V30.9654H78.3274V7.84277H83.6649Z" fill="#1A1A1A"/>
<path d="M101.278 27.5849C101.412 27.5849 101.679 27.5849 101.812 27.4497V30.8302C101.145 31.1006 100.078 31.3711 99.1435 31.3711C97.5423 31.3711 96.2079 30.8302 95.5407 29.7484C94.0729 30.8302 92.4716 31.6415 90.3367 31.6415C87.4011 31.6415 85.1326 29.8837 85.1326 26.9088C85.1326 23.1227 88.7354 21.9057 91.671 21.9057C92.7385 21.9057 93.9395 22.0409 94.8735 22.3113V21.7705C94.8735 20.6887 93.9395 19.8774 91.8045 19.8774C89.8029 19.8774 88.0682 20.4183 86.6004 21.0944V16.6321C87.8014 16.2264 90.2032 15.6855 92.4717 15.6855C97.2754 15.6855 100.344 17.3082 100.344 22.717V26.9088C100.344 27.3145 100.745 27.5849 101.278 27.5849ZM92.6051 27.8554C93.5392 27.8554 94.2063 27.7201 95.0069 27.044V25.0157C94.4732 24.8805 93.806 24.7453 93.1388 24.7453C91.9379 24.7453 90.737 25.151 90.737 26.3679C90.737 27.044 91.4042 27.8554 92.6051 27.8554Z" fill="#1A1A1A"/>
<path d="M108.351 8.78931V17.0377C109.285 16.0912 110.753 15.2799 112.754 15.2799C117.825 15.2799 119.96 19.4717 119.96 23.3931C119.96 27.3145 117.691 31.5063 112.754 31.5063C110.085 31.5063 108.351 30.2893 107.683 28.9371V30.9654H103.013V8.78931H108.351ZM111.42 19.7421C109.952 19.7421 108.884 20.6887 108.351 21.6352V25.1509C108.884 26.0975 109.952 27.044 111.42 27.044C113.688 27.044 114.622 25.1509 114.622 23.3931C114.622 21.6352 113.688 19.7421 111.42 19.7421Z" fill="#1A1A1A"/>
<path d="M136.372 15.8208V30.9654H131.702V29.2076C130.501 30.5598 128.9 31.3711 126.898 31.3711C122.762 31.3711 120.894 28.5315 120.894 25.151V15.6855H126.231V24.3396C126.231 25.9623 127.165 26.7736 128.5 26.7736C129.701 26.7736 130.635 26.0975 131.035 25.4214V15.6855H136.372V15.8208Z" fill="#1A1A1A"/>
<path d="M144.645 15.2798C147.314 15.2798 149.049 16.4968 149.716 17.849V15.8207H154.386V30.4244C154.386 36.5093 149.983 38.5376 145.58 38.5376C143.178 38.5376 140.909 37.9968 139.175 37.0502V32.4527C140.776 33.3993 142.911 34.0754 144.912 34.0754C147.314 34.0754 149.182 33.3993 149.182 30.6949V29.7483C148.248 30.6949 146.78 31.5062 144.779 31.5062C139.708 31.5062 137.573 27.3144 137.573 23.393C137.44 19.4716 139.708 15.2798 144.645 15.2798ZM146.113 19.742C143.845 19.742 142.911 21.6351 142.911 23.393C142.911 25.1509 143.845 27.0439 146.113 27.0439C147.581 27.0439 148.649 26.0974 149.182 25.1509V21.6351C148.649 20.6886 147.581 19.742 146.113 19.742Z" fill="#1A1A1A"/>
<path d="M171.466 27.5849C171.6 27.5849 171.867 27.5849 172 27.4497V30.8302C171.333 31.1006 170.265 31.3711 169.331 31.3711C167.73 31.3711 166.396 30.8302 165.728 29.7484C164.261 30.8302 162.659 31.6415 160.524 31.6415C157.589 31.6415 155.32 29.8837 155.32 26.9088C155.32 23.1227 158.923 21.9057 161.859 21.9057C162.926 21.9057 164.127 22.0409 165.061 22.3113V21.7705C165.061 20.6887 164.127 19.8774 161.992 19.8774C159.991 19.8774 158.256 20.4183 156.788 21.0944V16.6321C157.989 16.2264 160.391 15.6855 162.659 15.6855C167.463 15.6855 170.532 17.3082 170.532 22.717V26.9088C170.399 27.3145 170.932 27.5849 171.466 27.5849ZM162.659 27.8554C163.593 27.8554 164.261 27.7201 165.061 27.044V25.0157C164.528 24.8805 163.86 24.7453 163.193 24.7453C161.992 24.7453 160.791 25.151 160.791 26.3679C160.791 27.044 161.458 27.8554 162.659 27.8554Z" fill="#1A1A1A"/>
</g>
<defs>
<clipPath id="clip0_164_270">
<rect width="172" height="43" fill="white"/>
</clipPath>
</defs>
</svg>
