<svg width="42" height="42" viewBox="0 0 42 42" fill="none" xmlns="http://www.w3.org/2000/svg">
<path d="M12.4688 15.0938C12.4688 14.5716 12.2613 14.0708 11.8921 13.7016C11.5229 13.3324 11.0221 13.125 10.5 13.125C9.97786 13.125 9.4771 13.3324 9.10788 13.7016C8.73867 14.0708 8.53125 14.5716 8.53125 15.0938H9.84375C9.84375 14.9197 9.91289 14.7528 10.036 14.6297C10.159 14.5066 10.326 14.4375 10.5 14.4375C10.674 14.4375 10.841 14.5066 10.964 14.6297C11.0871 14.7528 11.1562 14.9197 11.1562 15.0938H12.4688Z" fill="#005DAC"/>
<path d="M18.375 14.4375C18.549 14.4375 18.716 14.5066 18.839 14.6297C18.9621 14.7528 19.0312 14.9197 19.0312 15.0938H20.3438C20.3438 14.5716 20.1363 14.0708 19.7671 13.7016C19.3979 13.3324 18.8971 13.125 18.375 13.125C17.8529 13.125 17.3521 13.3324 16.9829 13.7016C16.6137 14.0708 16.4063 14.5716 16.4062 15.0938H17.7188C17.7188 14.9197 17.7879 14.7528 17.911 14.6297C18.034 14.5066 18.201 14.4375 18.375 14.4375Z" fill="#005DAC"/>
<path d="M17.7188 19.0312H16.4062C16.4062 19.1947 15.708 19.6875 14.4375 19.6875C13.167 19.6875 12.4688 19.1947 12.4688 19.0312H11.1562C11.1562 20.1534 12.5665 21 14.4375 21C16.3085 21 17.7188 20.1534 17.7188 19.0312Z" fill="#005DAC"/>
<path d="M38.7188 24.9375H21.6562C21.1346 24.9391 20.6347 25.147 20.2659 25.5159C19.897 25.8847 19.6891 26.3846 19.6875 26.9062V26.9259L17.7188 26.4009V24.2812C19.0722 23.7133 20.2566 22.8063 21.1578 21.6477C22.0589 20.4891 22.6465 19.1179 22.8638 17.6663C23.6274 17.5385 24.321 17.1438 24.8209 16.5526C25.3209 15.9613 25.5947 15.2118 25.5938 14.4375C25.5918 13.6816 25.3299 12.9494 24.8519 12.3639C24.3739 11.7783 23.7089 11.3751 22.9688 11.2219V9.5025C23.7757 8.96267 24.4372 8.23246 24.895 7.37635C25.3528 6.52025 25.5928 5.56458 25.5938 4.59375V1.96875C25.5938 1.7947 25.5246 1.62778 25.4015 1.50471C25.2785 1.38164 25.1115 1.3125 24.9375 1.3125H11.8125C10.2468 1.31493 8.74594 1.93797 7.63883 3.04508C6.53172 4.15219 5.90868 5.65306 5.90625 7.21875V11.2219C5.15914 11.377 4.48944 11.7876 4.01237 12.3831C3.53529 12.9786 3.28068 13.7218 3.29234 14.4847C3.30399 15.2477 3.58118 15.9827 4.07622 16.5634C4.57126 17.1441 5.25319 17.534 6.00469 17.6663C6.21687 19.1214 6.80313 20.4966 7.70613 21.6573C8.60912 22.8179 9.79793 23.7243 11.1562 24.2878V26.4009L2.76281 28.6388C2.3466 28.7544 1.97961 29.003 1.71778 29.3465C1.45594 29.6901 1.31362 30.1099 1.3125 30.5419V40.0312C1.3125 40.2053 1.38164 40.3722 1.50471 40.4953C1.62778 40.6184 1.7947 40.6875 1.96875 40.6875H40.0312C40.2053 40.6875 40.3722 40.6184 40.4953 40.4953C40.6184 40.3722 40.6875 40.2053 40.6875 40.0312V26.9062C40.6859 26.3846 40.478 25.8847 40.1091 25.5159C39.7403 25.147 39.2404 24.9391 38.7188 24.9375ZM5.90625 16.2881C5.63236 16.1901 5.382 16.0358 5.17125 15.8353C4.93603 15.6002 4.7642 15.3094 4.67179 14.9899C4.57939 14.6704 4.56941 14.3327 4.64281 14.0084C4.7162 13.684 4.87056 13.3835 5.0915 13.1349C5.31243 12.8864 5.59273 12.6978 5.90625 12.5869V16.2881ZM24.2812 14.4375C24.2825 14.9585 24.0772 15.4588 23.7103 15.8288C23.5006 16.0339 23.247 16.1887 22.9688 16.2816V12.5869C23.3512 12.7231 23.6823 12.9738 23.9172 13.305C24.152 13.6361 24.2792 14.0315 24.2812 14.4375ZM7.21875 7.21875C7.22014 6.00084 7.70457 4.83321 8.56576 3.97201C9.42696 3.11082 10.5946 2.62639 11.8125 2.625H24.2812V4.59375C24.2799 5.81166 23.7954 6.97929 22.9342 7.84049C22.073 8.70168 20.9054 9.18611 19.6875 9.1875H7.21875V7.21875ZM9.33187 21.5119C8.6587 20.8435 8.12519 20.0479 7.76241 19.1713C7.39963 18.2948 7.21483 17.3549 7.21875 16.4062V10.5H19.6875C20.359 10.4993 21.0252 10.3816 21.6562 10.1522V16.4062C21.6567 17.8343 21.2336 19.2305 20.4404 20.418C19.6473 21.6056 18.5197 22.5312 17.2003 23.0778C15.881 23.6243 14.4291 23.7673 13.0285 23.4886C11.6279 23.2098 10.3414 22.5219 9.33187 21.5119ZM16.4062 24.7013V26.6766L14.4375 29.1375L12.4688 26.6766V24.7013C13.1136 24.8561 13.7743 24.9354 14.4375 24.9375C15.1007 24.9361 15.7615 24.8568 16.4062 24.7013ZM11.5697 27.6478L13.9256 30.5944C13.9865 30.672 14.0642 30.7348 14.1528 30.778C14.2415 30.8211 14.3389 30.8436 14.4375 30.8436C14.5361 30.8436 14.6335 30.8211 14.7222 30.778C14.8108 30.7348 14.8885 30.672 14.9494 30.5944L17.3053 27.6478L19.5037 28.2384L14.4375 33.8034L9.37125 28.2384L11.5697 27.6478ZM19.6875 39.375H13.7812C13.6072 39.375 13.4403 39.3059 13.3172 39.1828C13.1941 39.0597 13.125 38.8928 13.125 38.7188V38.0625H19.6875V39.375ZM19.6875 36.75H12.4688C12.2947 36.75 12.1278 36.8191 12.0047 36.9422C11.8816 37.0653 11.8125 37.2322 11.8125 37.4062V38.7188C11.8143 38.9426 11.8542 39.1646 11.9306 39.375H2.625V30.5419C2.62622 30.3975 2.6742 30.2575 2.76176 30.1427C2.84932 30.0279 2.97172 29.9446 3.11062 29.9053L7.94063 28.6191L13.9519 35.2209C14.0131 35.2891 14.088 35.3435 14.1717 35.3808C14.2553 35.4181 14.3459 35.4374 14.4375 35.4374C14.5291 35.4374 14.6197 35.4181 14.7033 35.3808C14.787 35.3435 14.8619 35.2891 14.9231 35.2209L19.6875 29.9841V36.75ZM39.375 39.375H21V26.9062C21 26.7322 21.0691 26.5653 21.1922 26.4422C21.3153 26.3191 21.4822 26.25 21.6562 26.25H38.7188C38.8928 26.25 39.0597 26.3191 39.1828 26.4422C39.3059 26.5653 39.375 26.7322 39.375 26.9062V39.375Z" fill="#005DAC"/>
<path d="M30.1875 34.125C30.9124 34.125 31.5 33.5374 31.5 32.8125C31.5 32.0876 30.9124 31.5 30.1875 31.5C29.4626 31.5 28.875 32.0876 28.875 32.8125C28.875 33.5374 29.4626 34.125 30.1875 34.125Z" fill="#005DAC"/>
<path d="M22.9688 36.75H24.2812V38.0625H22.9688V36.75Z" fill="#005DAC"/>
<path d="M25.5938 36.75H26.9062V38.0625H25.5938V36.75Z" fill="#005DAC"/>
<path d="M28.2188 36.75H29.5312V38.0625H28.2188V36.75Z" fill="#005DAC"/>
<path d="M30.8438 36.75H32.1562V38.0625H30.8438V36.75Z" fill="#005DAC"/>
<path d="M33.4688 36.75H34.7812V38.0625H33.4688V36.75Z" fill="#005DAC"/>
<path d="M36.0938 36.75H37.4062V38.0625H36.0938V36.75Z" fill="#005DAC"/>
</svg>
