<svg width="28" height="28" viewBox="0 0 28 28" fill="none" xmlns="http://www.w3.org/2000/svg">
<g clip-path="url(#clip0_164_459)">
<path d="M26.2528 20.2202C28.9586 16.424 28.545 11.2229 24.8493 7.83497C23.1607 6.28704 21.008 5.32339 18.6827 5.05427C18.6682 5.03645 18.6534 5.01878 18.6371 5.00188C16.6142 2.90052 13.7079 1.69531 10.6634 1.69531C4.86987 1.69531 0 6.01196 0 11.5391C0 13.4769 0.601945 15.3346 1.74541 16.939L0.148039 21.9541C0.0476328 22.2694 0.146398 22.6139 0.398453 22.8281C0.650945 23.0427 1.00713 23.084 1.3014 22.9343L6.15912 20.4642C7.15673 20.8938 8.21461 21.1757 9.31011 21.3039C11.4233 23.5262 14.3454 24.6641 17.3348 24.6641C18.8888 24.6641 20.4372 24.3474 21.8389 23.7454L26.6969 26.2156C26.8145 26.2754 26.9419 26.3047 27.0685 26.3047C27.6221 26.3047 28.0189 25.7652 27.8502 25.2354L26.2528 20.2202ZM6.4902 18.8136C6.26046 18.7045 5.9932 18.7082 5.76652 18.8234L2.30661 20.5827L3.43645 17.0354C3.5187 16.7771 3.46812 16.4949 3.30121 16.2813C2.21479 14.8906 1.64052 13.2508 1.64052 11.5391C1.64052 7.01586 5.68816 3.33594 10.6634 3.33594C12.6669 3.33594 14.5957 3.94291 16.1603 5.03595C10.8912 5.56577 6.67144 9.68122 6.67144 14.8203C6.67144 16.4187 7.08116 17.9575 7.85362 19.3362C7.38593 19.1969 6.93044 19.0227 6.4902 18.8136ZM22.2317 22.1046C22.0083 21.991 21.7409 21.9842 21.508 22.0949C20.2292 22.7024 18.7861 23.0234 17.3348 23.0234C12.3596 23.0234 8.31195 19.3435 8.31195 14.8203C8.31195 10.2971 12.3596 6.61719 17.3348 6.61719C22.3101 6.61719 26.3577 10.2971 26.3577 14.8203C26.3577 16.5321 25.7835 18.1719 24.697 19.5625C24.5301 19.7761 24.4795 20.0583 24.5617 20.3166L25.6916 23.8639L22.2317 22.1046Z" fill="#005DAC"/>
<path d="M13.9991 15.6406C14.4522 15.6406 14.8195 15.2734 14.8195 14.8203C14.8195 14.3673 14.4522 14 13.9991 14C13.5461 14 13.1788 14.3673 13.1788 14.8203C13.1788 15.2734 13.5461 15.6406 13.9991 15.6406Z" fill="#005DAC"/>
<path d="M17.2802 15.6406C17.7333 15.6406 18.1005 15.2734 18.1005 14.8203C18.1005 14.3673 17.7333 14 17.2802 14C16.8272 14 16.4599 14.3673 16.4599 14.8203C16.4599 15.2734 16.8272 15.6406 17.2802 15.6406Z" fill="#005DAC"/>
<path d="M20.5612 15.6406C21.0143 15.6406 21.3815 15.2734 21.3815 14.8203C21.3815 14.3673 21.0143 14 20.5612 14C20.1082 14 19.7409 14.3673 19.7409 14.8203C19.7409 15.2734 20.1082 15.6406 20.5612 15.6406Z" fill="#005DAC"/>
</g>
<defs>
<clipPath id="clip0_164_459">
<rect width="28" height="28" fill="white"/>
</clipPath>
</defs>
</svg>
