<svg width="35" height="35" viewBox="0 0 35 35" fill="none" xmlns="http://www.w3.org/2000/svg">
<g clip-path="url(#clip0_164_379)">
<path d="M32.8161 25.2753C36.1982 20.53 35.6812 14.0286 31.0616 9.79371C28.9509 7.8588 26.2601 6.65424 23.3533 6.31784C23.3352 6.29556 23.3167 6.27348 23.2964 6.25235C20.7677 3.62564 17.1348 2.11914 13.3293 2.11914C6.08734 2.11914 0 7.51495 0 14.4238C0 16.8461 0.752432 19.1682 2.18176 21.1737L0.185049 27.4427C0.059541 27.8367 0.182998 28.2674 0.498066 28.5352C0.813682 28.8034 1.25891 28.855 1.62675 28.6679L7.69891 25.5803C8.94592 26.1172 10.2683 26.4696 11.6376 26.6299C14.2792 29.4077 17.9317 30.8301 21.6686 30.8301C23.6111 30.8301 25.5465 30.4342 27.2986 29.6818L33.3711 32.7695C33.5181 32.8443 33.6773 32.8809 33.8356 32.8809C34.5276 32.8809 35.0237 32.2065 34.8128 31.5442L32.8161 25.2753ZM8.11275 23.5171C7.82558 23.3807 7.4915 23.3852 7.20816 23.5293L2.88326 25.7284L4.29557 21.2942C4.39838 20.9714 4.33515 20.6186 4.12651 20.3517C2.76849 18.6133 2.05064 16.5635 2.05064 14.4238C2.05064 8.76982 7.1102 4.16992 13.3293 4.16992C15.8337 4.16992 18.2446 4.92864 20.2003 6.29494C13.614 6.95721 8.3393 12.1015 8.3393 18.5254C8.3393 20.5234 8.85145 22.4469 9.81702 24.1702C9.23241 23.9961 8.66305 23.7784 8.11275 23.5171ZM27.7897 27.6308C27.5104 27.4888 27.1761 27.4803 26.8851 27.6186C25.2865 28.378 23.4827 28.7793 21.6686 28.7793C15.4495 28.7793 10.3899 24.1794 10.3899 18.5254C10.3899 12.8714 15.4495 8.27148 21.6686 8.27148C27.8876 8.27148 32.9472 12.8714 32.9472 18.5254C32.9472 20.6651 32.2293 22.7149 30.8712 24.4532C30.6627 24.7201 30.5994 25.0729 30.7022 25.3957L32.1145 29.8299L27.7897 27.6308Z" fill="#005DAC"/>
<path d="M17.4989 19.5508C18.0652 19.5508 18.5243 19.0917 18.5243 18.5254C18.5243 17.9591 18.0652 17.5 17.4989 17.5C16.9326 17.5 16.4735 17.9591 16.4735 18.5254C16.4735 19.0917 16.9326 19.5508 17.4989 19.5508Z" fill="#005DAC"/>
<path d="M21.6003 19.5508C22.1666 19.5508 22.6257 19.0917 22.6257 18.5254C22.6257 17.9591 22.1666 17.5 21.6003 17.5C21.034 17.5 20.5749 17.9591 20.5749 18.5254C20.5749 19.0917 21.034 19.5508 21.6003 19.5508Z" fill="#005DAC"/>
<path d="M25.7015 19.5508C26.2678 19.5508 26.7269 19.0917 26.7269 18.5254C26.7269 17.9591 26.2678 17.5 25.7015 17.5C25.1352 17.5 24.6761 17.9591 24.6761 18.5254C24.6761 19.0917 25.1352 19.5508 25.7015 19.5508Z" fill="#005DAC"/>
</g>
<defs>
<clipPath id="clip0_164_379">
<rect width="35" height="35" fill="white"/>
</clipPath>
</defs>
</svg>
