<svg width="45" height="45" viewBox="0 0 45 45" fill="none" xmlns="http://www.w3.org/2000/svg">
<g clip-path="url(#clip0_164_440)">
<path d="M43.8391 14.1616C42.297 12.6194 39.7878 12.6195 38.2453 14.1619C37.7708 14.6368 34.7417 17.6684 34.2789 18.1316V7.68393C34.2789 6.62748 33.8675 5.63432 33.1204 4.88733L29.3917 1.1584C28.6447 0.411328 27.6515 0 26.595 0H3.95667C1.77584 0 0.00158691 1.77425 0.00158691 3.95508V41.0449C0.00158691 43.2258 1.77584 45 3.95667 45H30.3239C32.5047 45 34.2789 43.2258 34.2789 41.0449V29.323L43.839 19.7549C45.3847 18.2093 45.3851 15.7074 43.8391 14.1616ZM26.3689 2.63672C26.6179 2.63672 27.0979 2.59356 27.5273 3.02282L31.2561 6.75176C31.6745 7.17021 31.6423 7.62873 31.6423 7.91016H26.3689V2.63672ZM31.6422 41.0449C31.6422 41.7719 31.0509 42.3633 30.3239 42.3633H3.95667C3.22972 42.3633 2.63831 41.7719 2.63831 41.0449V3.95508C2.63831 3.22813 3.22972 2.63672 3.95667 2.63672H23.7321V9.22852C23.7321 9.9566 24.3223 10.5469 25.0504 10.5469H31.6422V20.7706C31.6422 20.7706 27.7527 24.6634 27.7525 24.6635L25.889 26.5271C25.7443 26.6718 25.6352 26.8483 25.5705 27.0425L23.706 32.6358C23.548 33.1095 23.6713 33.6319 24.0245 33.9849C24.3781 34.3385 24.9006 34.4612 25.3736 34.3034L30.967 32.439C31.1611 32.3743 31.3376 32.2653 31.4823 32.1205L31.6422 31.9605V41.0449ZM28.6856 27.4594L30.55 29.3238L29.8378 30.036L27.0412 30.9682L27.9734 28.1715L28.6856 27.4594ZM32.4141 27.459L30.5496 25.5945C31.5425 24.6009 35.9518 20.1878 36.887 19.2518L38.7514 21.1162L32.4141 27.459ZM41.9742 17.8908L40.6151 19.251L38.7507 17.3866L40.1102 16.026C40.6245 15.5119 41.4607 15.512 41.9747 16.026C42.4886 16.5401 42.4913 17.3736 41.9742 17.8908Z" fill="#005DAC"/>
<path d="M25.0504 13.1836H6.59338C5.8653 13.1836 5.27502 13.7739 5.27502 14.502C5.27502 15.23 5.8653 15.8203 6.59338 15.8203H25.0504C25.7785 15.8203 26.3688 15.23 26.3688 14.502C26.3688 13.7739 25.7785 13.1836 25.0504 13.1836Z" fill="#005DAC"/>
<path d="M19.777 18.457H6.59338C5.8653 18.457 5.27502 19.0473 5.27502 19.7754C5.27502 20.5035 5.8653 21.0938 6.59338 21.0938H19.777C20.5051 21.0938 21.0953 20.5035 21.0953 19.7754C21.0953 19.0473 20.5051 18.457 19.777 18.457Z" fill="#005DAC"/>
<path d="M19.777 23.7305H6.59338C5.8653 23.7305 5.27502 24.3207 5.27502 25.0488C5.27502 25.7769 5.8653 26.3672 6.59338 26.3672H19.777C20.5051 26.3672 21.0953 25.7769 21.0953 25.0488C21.0953 24.3207 20.5051 23.7305 19.777 23.7305Z" fill="#005DAC"/>
<path d="M19.777 29.0039H6.59338C5.8653 29.0039 5.27502 29.5942 5.27502 30.3223C5.27502 31.0504 5.8653 31.6406 6.59338 31.6406H19.777C20.5051 31.6406 21.0953 31.0504 21.0953 30.3223C21.0953 29.5942 20.5051 29.0039 19.777 29.0039Z" fill="#005DAC"/>
<path d="M25.0504 37.0898H17.1403C16.4122 37.0898 15.8219 37.6801 15.8219 38.4082C15.8219 39.1363 16.4122 39.7266 17.1403 39.7266H25.0504C25.7785 39.7266 26.3688 39.1363 26.3688 38.4082C26.3688 37.6801 25.7785 37.0898 25.0504 37.0898Z" fill="#005DAC"/>
</g>
<defs>
<clipPath id="clip0_164_440">
<rect width="45" height="45" fill="white"/>
</clipPath>
</defs>
</svg>
