<svg width="58" height="58" viewBox="0 0 58 58" fill="none" xmlns="http://www.w3.org/2000/svg">
<path d="M29 52.2626C28.8033 52.2606 28.6093 52.2159 28.4314 52.1319L13.9769 45.4562C13.731 45.3416 13.5228 45.1594 13.3768 44.9308C13.2308 44.7021 13.1529 44.4367 13.1524 44.1654V26.0319C13.1522 25.7931 13.2123 25.5582 13.3269 25.3488C13.4415 25.1393 13.607 24.9621 13.8081 24.8335C14.0092 24.7049 14.2395 24.629 14.4777 24.6129C14.7159 24.5967 14.9543 24.6408 15.171 24.7411L29.5971 31.4168C29.843 31.5313 30.0511 31.7136 30.1971 31.9422C30.3432 32.1708 30.421 32.4363 30.4216 32.7076V50.8411C30.4223 51.028 30.3861 51.2132 30.3149 51.386C30.2437 51.5588 30.139 51.7158 30.0069 51.848C29.8747 51.9801 29.7177 52.0848 29.5449 52.156C29.3721 52.2271 29.1869 52.2634 29 52.2626ZM15.9955 43.2556L27.5784 48.6177V33.6174L15.9955 28.2552V43.2556Z" fill="#005DAC"/>
<path d="M29 52.2626C28.7283 52.263 28.462 52.1861 28.2324 52.0409C28.031 51.9123 27.8654 51.7349 27.7511 51.5251C27.6367 51.3153 27.5773 51.08 27.5784 50.8411V32.7076C27.5815 32.4332 27.6636 32.1655 27.8148 31.9366C27.9661 31.7076 28.1802 31.5272 28.4314 31.4168L42.829 24.7411C43.0457 24.6408 43.2841 24.5967 43.5223 24.6129C43.7605 24.629 43.9908 24.7049 44.1919 24.8335C44.393 24.9621 44.5585 25.1393 44.6731 25.3488C44.7877 25.5582 44.8478 25.7931 44.8476 26.0319V44.1654C44.8471 44.4367 44.7692 44.7021 44.6232 44.9308C44.4772 45.1594 44.269 45.3416 44.0231 45.4562L29.5971 52.1319C29.4105 52.22 29.2063 52.2648 29 52.2626ZM30.4216 33.6174V48.6177L42.0045 43.2556V28.2552L30.4216 33.6174Z" fill="#005DAC"/>
<path d="M29 34.1177C28.8036 34.1131 28.6101 34.0686 28.4314 33.987L13.9769 27.3226C13.7303 27.2089 13.5214 27.0268 13.3751 26.7981C13.2287 26.5693 13.1509 26.3034 13.1509 26.0319C13.1509 25.7603 13.2287 25.4944 13.3751 25.2656C13.5214 25.0369 13.7303 24.8549 13.9769 24.7411L28.4314 18.0654C28.6184 17.9784 28.8222 17.9333 29.0284 17.9333C29.2347 17.9333 29.4385 17.9784 29.6255 18.0654L44.0231 24.7411C44.2697 24.8549 44.4786 25.0369 44.6249 25.2656C44.7713 25.4944 44.8491 25.7603 44.8491 26.0319C44.8491 26.3034 44.7713 26.5693 44.6249 26.7981C44.4786 27.0268 44.2697 27.2089 44.0231 27.3226L29.5971 33.9983C29.4087 34.0799 29.2052 34.1206 29 34.1177ZM17.9573 26.0319L29 31.1495L40.0427 26.0319L29 20.9199L17.9573 26.0319Z" fill="#005DAC"/>
<path d="M29 15.6259C28.6249 15.6259 28.2651 15.4777 27.9988 15.2135C27.7325 14.9494 27.5814 14.5907 27.5784 14.2157V6.11273C27.5784 5.73571 27.7282 5.37413 27.9948 5.10753C28.2614 4.84093 28.623 4.69116 29 4.69116C29.377 4.69116 29.7386 4.84093 30.0052 5.10753C30.2718 5.37413 30.4216 5.73571 30.4216 6.11273V14.2157C30.4186 14.5907 30.2675 14.9494 30.0012 15.2135C29.7349 15.4777 29.3751 15.6259 29 15.6259Z" fill="#005DAC"/>
<path d="M1.99019 52.2228C1.66772 52.2217 1.35521 52.1109 1.10398 51.9088C0.852741 51.7066 0.677709 51.425 0.607614 51.1102C0.537519 50.7955 0.576527 50.4662 0.718234 50.1766C0.859941 49.8869 1.09593 49.654 1.38745 49.5161L9.25725 45.8428C9.42638 45.7636 9.60946 45.7186 9.79601 45.7102C9.98256 45.7018 10.1689 45.7302 10.3445 45.7938C10.5201 45.8574 10.6814 45.955 10.8192 46.081C10.9571 46.207 11.0688 46.3589 11.1479 46.528C11.2271 46.6971 11.2722 46.8802 11.2806 47.0668C11.289 47.2533 11.2605 47.4397 11.1969 47.6152C11.1333 47.7908 11.0357 47.9521 10.9097 48.09C10.7838 48.2278 10.6319 48.3395 10.4627 48.4187L2.59294 52.092C2.40419 52.1797 2.19831 52.2244 1.99019 52.2228Z" fill="#005DAC"/>
<path d="M56.0098 52.2228C55.8017 52.2238 55.596 52.1792 55.4071 52.092L47.5372 48.4187C47.1957 48.2588 46.9316 47.9698 46.8031 47.6152C46.6746 47.2607 46.6922 46.8696 46.852 46.528C47.0119 46.1864 47.3009 45.9223 47.6555 45.7938C48.0101 45.6653 48.4012 45.6829 48.7427 45.8428L56.6125 49.5161C56.9041 49.654 57.14 49.8869 57.2818 50.1766C57.4235 50.4662 57.4625 50.7955 57.3924 51.1102C57.3223 51.425 57.1472 51.7066 56.896 51.9088C56.6448 52.1109 56.3323 52.2217 56.0098 52.2228Z" fill="#005DAC"/>
<path d="M31.9569 10.4911C31.77 10.4918 31.5849 10.4554 31.4121 10.3842C31.2394 10.3129 31.0825 10.2082 30.9504 10.076L29 8.12563L27.0496 10.076C26.9178 10.2093 26.7611 10.3153 26.5883 10.388C26.4155 10.4608 26.2301 10.4987 26.0427 10.4998C25.8552 10.5008 25.6694 10.465 25.4958 10.3942C25.3222 10.3234 25.1643 10.2192 25.031 10.0874C24.8977 9.9556 24.7917 9.79883 24.719 9.62606C24.6463 9.45329 24.6083 9.26788 24.6072 9.08044C24.6062 8.89299 24.642 8.70717 24.7128 8.53359C24.7836 8.36 24.8878 8.20206 25.0196 8.06877L27.9935 5.11759C28.1256 4.9852 28.2825 4.88017 28.4552 4.80851C28.6279 4.73684 28.813 4.69995 29 4.69995C29.187 4.69995 29.3721 4.73684 29.5448 4.80851C29.7176 4.88017 29.8744 4.9852 30.0065 5.11759L32.9633 8.07445C33.1607 8.27357 33.2948 8.5266 33.3488 8.80172C33.4027 9.07685 33.3741 9.36178 33.2665 9.62069C33.1589 9.87959 32.9772 10.1009 32.7442 10.2568C32.5112 10.4127 32.2372 10.4962 31.9569 10.4968V10.4911Z" fill="#005DAC"/>
<path d="M51.9725 53.3088C51.6255 53.312 51.2893 53.1882 51.0273 52.9606C50.7653 52.7331 50.5956 52.4175 50.5501 52.0735C50.5047 51.7295 50.5866 51.3807 50.7806 51.0929C50.9745 50.8051 51.267 50.5982 51.6029 50.5112L54.2698 49.7947L53.5533 47.1335C53.4911 46.9494 53.4673 46.7544 53.4834 46.5607C53.4995 46.367 53.5551 46.1786 53.6469 46.0072C53.7387 45.8359 53.8646 45.6852 54.017 45.5644C54.1693 45.4437 54.3448 45.3554 54.5325 45.3052C54.7203 45.2549 54.9164 45.2437 55.1087 45.2722C55.301 45.3008 55.4854 45.3684 55.6505 45.471C55.8156 45.5736 55.9579 45.709 56.0686 45.8688C56.1793 46.0286 56.256 46.2094 56.2941 46.4L57.3745 50.4372C57.4719 50.8007 57.4213 51.1879 57.2337 51.5141C57.0461 51.8402 56.7368 52.0787 56.3737 52.1773L52.3365 53.2576C52.2179 53.2905 52.0956 53.3077 51.9725 53.3088Z" fill="#005DAC"/>
<path d="M6.02744 53.3088C5.90252 53.3082 5.77823 53.291 5.65784 53.2576L1.62058 52.1772C1.25598 52.0787 0.945315 51.8396 0.756662 51.5123C0.568009 51.1851 0.516748 50.7965 0.61411 50.4316L1.70587 46.3943C1.8039 46.0301 2.04259 45.7197 2.36944 45.5315C2.69629 45.3433 3.08451 45.2926 3.44872 45.3907C3.81292 45.4887 4.12327 45.7274 4.31149 46.0542C4.4997 46.3811 4.55037 46.7693 4.45235 47.1335L3.73019 49.7947L6.39705 50.5112C6.73299 50.5982 7.02549 50.8051 7.21942 51.0929C7.41335 51.3807 7.49532 51.7295 7.44986 52.0735C7.40441 52.4175 7.23468 52.7331 6.97267 52.9606C6.71066 53.1882 6.37446 53.312 6.02744 53.3088Z" fill="#005DAC"/>
</svg>
