<svg width="31" height="31" viewBox="0 0 31 31" fill="none" xmlns="http://www.w3.org/2000/svg">
<path d="M16.4688 8.71875H9.6875C9.15178 8.71875 8.71875 8.28475 8.71875 7.75C8.71875 7.21525 9.15178 6.78125 9.6875 6.78125H16.4688C17.0045 6.78125 17.4375 7.21525 17.4375 7.75C17.4375 8.28475 17.0045 8.71875 16.4688 8.71875Z" fill="#005DAC"/>
<path d="M19.375 13.5625H9.6875C9.15178 13.5625 8.71875 13.1285 8.71875 12.5938C8.71875 12.059 9.15178 11.625 9.6875 11.625H19.375C19.9107 11.625 20.3438 12.059 20.3438 12.5938C20.3438 13.1285 19.9107 13.5625 19.375 13.5625Z" fill="#005DAC"/>
<path d="M15.3644 17.4375H9.6875C9.15178 17.4375 8.71875 17.0035 8.71875 16.4688C8.71875 15.934 9.15178 15.5 9.6875 15.5H15.3644C15.9001 15.5 16.3331 15.934 16.3331 16.4688C16.3331 17.0035 15.9001 17.4375 15.3644 17.4375Z" fill="#005DAC"/>
<path d="M13.0394 21.3125H9.6875C9.15178 21.3125 8.71875 20.8785 8.71875 20.3438C8.71875 19.809 9.15178 19.375 9.6875 19.375H13.0394C13.5751 19.375 14.0081 19.809 14.0081 20.3438C14.0081 20.8785 13.5751 21.3125 13.0394 21.3125Z" fill="#005DAC"/>
<path d="M13.0394 27.125H8.71875C6.04791 27.125 3.875 24.9521 3.875 22.2812V5.8125C3.875 3.14166 6.04791 0.96875 8.71875 0.96875H20.3438C23.0146 0.96875 25.1875 3.14166 25.1875 5.8125V13.7562C25.1875 14.291 24.7545 14.725 24.2188 14.725C23.683 14.725 23.25 14.291 23.25 13.7562V5.8125C23.25 4.21019 21.9461 2.90625 20.3438 2.90625H8.71875C7.11644 2.90625 5.8125 4.21019 5.8125 5.8125V22.2812C5.8125 23.8836 7.11644 25.1875 8.71875 25.1875H13.0394C13.5751 25.1875 14.0081 25.6215 14.0081 26.1562C14.0081 26.691 13.5751 27.125 13.0394 27.125Z" fill="#005DAC"/>
<path d="M22.2812 30.0312C18.5428 30.0312 15.5 26.9894 15.5 23.25C15.5 19.5106 18.5428 16.4688 22.2812 16.4688C26.0197 16.4688 29.0625 19.5106 29.0625 23.25C29.0625 26.9894 26.0197 30.0312 22.2812 30.0312ZM22.2812 18.4062C19.6104 18.4062 17.4375 20.5792 17.4375 23.25C17.4375 25.9208 19.6104 28.0938 22.2812 28.0938C24.9521 28.0938 27.125 25.9208 27.125 23.25C27.125 20.5792 24.9521 18.4062 22.2812 18.4062Z" fill="#005DAC"/>
<path d="M21.6351 25.7038C21.3871 25.7038 21.1391 25.6088 20.9502 25.4199L19.6588 24.1286C19.2801 23.7498 19.2801 23.1376 19.6588 22.7588C20.0376 22.38 20.6499 22.38 21.0287 22.7588L21.6351 23.3652L23.5338 21.4674C23.9126 21.0887 24.5249 21.0887 24.9037 21.4674C25.2824 21.8462 25.2824 22.4594 24.9037 22.8372L22.32 25.4209C22.1311 25.6098 21.8831 25.7038 21.6351 25.7038Z" fill="#005DAC"/>
</svg>
