<svg width="42" height="42" viewBox="0 0 42 42" fill="none" xmlns="http://www.w3.org/2000/svg">
<path d="M20.3438 15.0938C20.5178 15.0938 20.6847 15.1629 20.8078 15.286C20.9309 15.409 21 15.576 21 15.75H22.3125C22.3125 15.2279 22.1051 14.7271 21.7359 14.3579C21.3667 13.9887 20.8659 13.7813 20.3438 13.7812C19.8216 13.7813 19.3208 13.9887 18.9516 14.3579C18.5824 14.7271 18.375 15.2279 18.375 15.75H19.6875C19.6875 15.576 19.7566 15.409 19.8797 15.286C20.0028 15.1629 20.1697 15.0938 20.3438 15.0938Z" fill="#005DAC"/>
<path d="M12.4688 13.7812C11.9466 13.7813 11.4458 13.9887 11.0766 14.3579C10.7074 14.7271 10.5 15.2279 10.5 15.75H11.8125C11.8125 15.576 11.8816 15.409 12.0047 15.286C12.1278 15.1629 12.2947 15.0938 12.4688 15.0938C12.6428 15.0938 12.8097 15.1629 12.9328 15.286C13.0559 15.409 13.125 15.576 13.125 15.75H14.4375C14.4375 15.2279 14.2301 14.7271 13.8609 14.3579C13.4917 13.9887 12.9909 13.7813 12.4688 13.7812Z" fill="#005DAC"/>
<path d="M18.375 19.6875H17.0625C17.0625 19.8615 16.9934 20.0285 16.8703 20.1515C16.7472 20.2746 16.5803 20.3438 16.4062 20.3438C16.2322 20.3438 16.0653 20.2746 15.9422 20.1515C15.8191 20.0285 15.75 19.8615 15.75 19.6875H14.4375C14.4375 20.2096 14.6449 20.7104 15.0141 21.0796C15.3833 21.4488 15.8841 21.6562 16.4062 21.6562C16.9284 21.6562 17.4292 21.4488 17.7984 21.0796C18.1676 20.7104 18.375 20.2096 18.375 19.6875Z" fill="#005DAC"/>
<path d="M38.7188 24.9375H21.6562C21.2194 24.9386 20.7954 25.0849 20.4509 25.3534C20.1063 25.6219 19.8609 25.9973 19.7531 26.4206L19.6875 26.4009V24.2812C21.042 23.713 22.2271 22.8051 23.1284 21.6452C24.0296 20.4853 24.6166 19.1126 24.8325 17.6597C25.3856 17.5694 25.9059 17.3377 26.3432 16.9873C26.7805 16.6368 27.1199 16.1793 27.3285 15.6592C27.537 15.139 27.6078 14.5739 27.5338 14.0184C27.4598 13.4629 27.2437 12.9359 26.9062 12.4884V11.8125C26.9062 9.02773 25.8 6.35701 23.8309 4.38788C21.8617 2.41875 19.191 1.3125 16.4062 1.3125C13.6215 1.3125 10.9508 2.41875 8.98163 4.38788C7.0125 6.35701 5.90625 9.02773 5.90625 11.8125V12.4884C5.48278 13.0502 5.25255 13.734 5.25 14.4375C5.2507 15.2033 5.52538 15.9435 6.02437 16.5244C4.69438 16.8026 3.50042 17.5296 2.64258 18.5833C1.78475 19.6371 1.31516 20.9537 1.3125 22.3125V27.5625C1.3125 27.7365 1.38164 27.9035 1.50471 28.0265C1.62778 28.1496 1.7947 28.2188 1.96875 28.2188H3.28125C4.84694 28.2163 6.34781 27.5933 7.45492 26.4862C8.56203 25.3791 9.18507 23.8782 9.1875 22.3125V20.9344C10.1238 22.429 11.499 23.5979 13.125 24.2812V26.4009L4.73156 28.6388C4.31535 28.7544 3.94836 29.003 3.68653 29.3465C3.42469 29.6901 3.28237 30.1099 3.28125 30.5419V40.0312C3.28125 40.2053 3.35039 40.3722 3.47346 40.4953C3.59653 40.6184 3.76345 40.6875 3.9375 40.6875H40.0312C40.2053 40.6875 40.3722 40.6184 40.4953 40.4953C40.6184 40.3722 40.6875 40.2053 40.6875 40.0312V26.9062C40.6859 26.3846 40.478 25.8847 40.1091 25.5159C39.7403 25.147 39.2404 24.9391 38.7188 24.9375ZM26.25 14.4375C26.2481 14.8427 26.1209 15.2374 25.886 15.5675C25.651 15.8976 25.3197 16.147 24.9375 16.2816V12.5869C25.2114 12.6849 25.4618 12.8392 25.6725 13.0397C26.0416 13.4114 26.2491 13.9137 26.25 14.4375ZM7.875 22.3125C7.87361 23.5304 7.38918 24.698 6.52799 25.5592C5.66679 26.4204 4.49916 26.9049 3.28125 26.9062H2.625V22.3125C2.62639 21.0946 3.11082 19.927 3.97201 19.0658C4.83321 18.2046 6.00084 17.7201 7.21875 17.7188H7.875V22.3125ZM7.875 16.2881C7.56222 16.1774 7.28249 15.9895 7.06178 15.7418C6.84107 15.4941 6.68655 15.1946 6.61257 14.8711C6.53858 14.5477 6.54754 14.2108 6.6386 13.8918C6.72966 13.5728 6.89988 13.2819 7.13344 13.0462C7.3445 12.8413 7.5975 12.6846 7.875 12.5869V16.2881ZM8.28844 11.1825C7.92708 11.2024 7.57187 11.2846 7.23844 11.4253C7.33821 9.05977 8.34737 6.82406 10.0554 5.18446C11.7635 3.54487 14.0386 2.62797 16.4062 2.625C18.7736 2.6291 21.048 3.54637 22.7558 5.18574C24.4637 6.8251 25.4732 9.06015 25.5741 11.4253C25.2077 11.2709 24.8164 11.1842 24.4191 11.1694L16.4062 8.81344V5.90625H15.0938V8.42625L13.7812 8.03906V5.90625H12.4688V8.19656L8.28844 11.1825ZM9.1875 16.4062V12.1472L13.2431 9.25313L23.625 12.3047V16.4062C23.625 18.3208 22.8645 20.1569 21.5107 21.5107C20.1569 22.8645 18.3208 23.625 16.4062 23.625C14.4917 23.625 12.6556 22.8645 11.3018 21.5107C9.94804 20.1569 9.1875 18.3208 9.1875 16.4062ZM4.59375 39.375V30.5419C4.594 30.3973 4.64162 30.2567 4.72932 30.1418C4.81702 30.0268 4.93998 29.9438 5.07937 29.9053L10.5 28.4616V32.865C9.80499 32.9817 9.15409 33.2829 8.61542 33.7373C8.07675 34.1917 7.67009 34.7826 7.438 35.448C7.2059 36.1134 7.15691 36.829 7.29613 37.5198C7.43535 38.2107 7.75767 38.8514 8.22937 39.375H4.59375ZM19.6875 39.375H13.7812C13.6072 39.375 13.4403 39.3059 13.3172 39.1828C13.1941 39.0597 13.125 38.8928 13.125 38.7188V38.0625H19.6875V39.375ZM19.6875 36.75H12.4688C12.2947 36.75 12.1278 36.8191 12.0047 36.9422C11.8816 37.0653 11.8125 37.2322 11.8125 37.4062V38.7188C11.8143 38.9426 11.8542 39.1646 11.9306 39.375H11.1562C10.4601 39.375 9.79238 39.0984 9.30009 38.6062C8.80781 38.1139 8.53125 37.4462 8.53125 36.75C8.53125 36.0538 8.80781 35.3861 9.30009 34.8938C9.79238 34.4016 10.4601 34.125 11.1562 34.125C11.3303 34.125 11.4972 34.0559 11.6203 33.9328C11.7434 33.8097 11.8125 33.6428 11.8125 33.4688V32.1562H19.6875V36.75ZM19.6875 30.8438H11.8125V28.1072L13.9519 27.5428C14.0917 27.5052 14.2152 27.4223 14.303 27.3072C14.3909 27.192 14.4381 27.0511 14.4375 26.9062V24.7013C15.7311 25.0162 17.0814 25.0162 18.375 24.7013V26.9062C18.3762 27.0506 18.4242 27.1907 18.5118 27.3054C18.5993 27.4202 18.7217 27.5035 18.8606 27.5428L19.6875 27.7594V30.8438ZM39.375 39.375H21V26.9062C21 26.7322 21.0691 26.5653 21.1922 26.4422C21.3153 26.3191 21.4822 26.25 21.6562 26.25H38.7188C38.8928 26.25 39.0597 26.3191 39.1828 26.4422C39.3059 26.5653 39.375 26.7322 39.375 26.9062V39.375Z" fill="#005DAC"/>
<path d="M30.1875 34.125C30.9124 34.125 31.5 33.5374 31.5 32.8125C31.5 32.0876 30.9124 31.5 30.1875 31.5C29.4626 31.5 28.875 32.0876 28.875 32.8125C28.875 33.5374 29.4626 34.125 30.1875 34.125Z" fill="#005DAC"/>
<path d="M22.9688 36.75H24.2812V38.0625H22.9688V36.75Z" fill="#005DAC"/>
<path d="M25.5938 36.75H26.9062V38.0625H25.5938V36.75Z" fill="#005DAC"/>
<path d="M28.2188 36.75H29.5312V38.0625H28.2188V36.75Z" fill="#005DAC"/>
<path d="M30.8438 36.75H32.1562V38.0625H30.8438V36.75Z" fill="#005DAC"/>
<path d="M33.4688 36.75H34.7812V38.0625H33.4688V36.75Z" fill="#005DAC"/>
<path d="M36.0938 36.75H37.4062V38.0625H36.0938V36.75Z" fill="#005DAC"/>
</svg>
