<svg width="40" height="40" viewBox="0 0 40 40" fill="none" xmlns="http://www.w3.org/2000/svg">
<g clip-path="url(#clip0_164_384)">
<path d="M39.6568 27.4522L36.5585 24.3539V13.7265L38.5812 12.9973C39.0456 12.8298 39.3552 12.3894 39.3556 11.8957C39.356 11.4022 39.047 10.9612 38.5828 10.7932L20.0768 4.09117C19.819 3.99782 19.5365 3.99782 19.2788 4.09117L0.772824 10.7932C0.310446 10.9607 0.00188204 11.3989 7.21692e-06 11.8907C-0.00171137 12.3824 0.30365 12.8229 0.7647 12.9938L7.59444 15.5237V23.2461C7.59444 23.4858 7.66787 23.7198 7.80496 23.9163C7.88035 24.0244 8.59442 24.9996 10.4227 25.9198C12.7324 27.0825 15.7618 27.672 19.4266 27.672C23.0887 27.672 26.1334 27.0837 28.4761 25.9233C30.3224 25.0088 31.0602 24.0438 31.1384 23.9368C31.2846 23.7363 31.3634 23.4945 31.3634 23.2463V15.5994L34.2151 14.5713V24.3539L31.1168 27.4522C30.897 27.672 30.7735 27.97 30.7735 28.2807C30.7735 28.5915 30.897 28.8896 31.1168 29.1092L34.2151 32.2075V34.807C34.2151 35.4541 34.7397 35.9787 35.3868 35.9787C36.034 35.9787 36.5586 35.4541 36.5586 34.807V32.2075L39.6568 29.1092C40.1144 28.6518 40.1144 27.9097 39.6568 27.4522ZM19.6778 6.43915L34.7358 11.8925L19.4321 17.4098L4.57855 11.9074L19.6778 6.43915ZM29.0198 22.7791C25.014 26.3836 13.1106 25.9703 9.93796 22.7909V16.3919L19.0195 19.7562C19.1636 19.779 19.2997 19.9033 19.824 19.7597L29.0199 16.4444L29.0198 22.7791ZM35.3868 30.0651L33.6023 28.2807L35.3868 26.4963L37.1711 28.2807L35.3868 30.0651Z" fill="#005DAC"/>
</g>
<defs>
<clipPath id="clip0_164_384">
<rect width="40" height="40" fill="white"/>
</clipPath>
</defs>
</svg>
