<svg width="36" height="36" viewBox="0 0 36 36" fill="none" xmlns="http://www.w3.org/2000/svg">
<path d="M33.707 6.26685H2.29303C1.02867 6.26685 0 7.29552 0 8.55988V27.4399C0 28.7043 1.02867 29.7329 2.29303 29.7329H33.707C34.9713 29.7329 36 28.7043 36 27.4399V8.55988C36 7.29552 34.9713 6.26685 33.707 6.26685ZM34.4713 27.4398C34.4713 27.8613 34.1284 28.2042 33.707 28.2042H2.29303C1.87158 28.2042 1.52866 27.8613 1.52866 27.4398V8.55981C1.52866 8.13835 1.87158 7.79544 2.29303 7.79544H33.707C34.1284 7.79544 34.4713 8.13835 34.4713 8.55981V27.4398Z" fill="#005DAC"/>
<path d="M29.6794 12.9731H21.4764C21.0542 12.9731 20.712 13.3154 20.712 13.7375C20.712 14.1597 21.0542 14.5019 21.4764 14.5019H29.6794C30.1016 14.5019 30.4438 14.1597 30.4438 13.7375C30.4438 13.3154 30.1016 12.9731 29.6794 12.9731Z" fill="#005DAC"/>
<path d="M29.6794 17.2356H21.4764C21.0542 17.2356 20.712 17.5778 20.712 18C20.712 18.422 21.0542 18.7643 21.4764 18.7643H29.6794C30.1016 18.7643 30.4438 18.422 30.4438 18C30.4438 17.5778 30.1016 17.2356 29.6794 17.2356Z" fill="#005DAC"/>
<path d="M29.6794 21.4983H21.4764C21.0542 21.4983 20.712 21.8406 20.712 22.2627C20.712 22.6847 21.0542 23.027 21.4764 23.027H29.6794C30.1016 23.027 30.4438 22.6847 30.4438 22.2627C30.4438 21.8406 30.1016 21.4983 29.6794 21.4983Z" fill="#005DAC"/>
<path d="M14.115 20.4078C14.0996 20.4067 12.7006 20.465 12.3228 18.9516C12.8333 18.5497 13.2617 17.9914 13.5678 17.3246C13.5905 17.3268 13.6131 17.3296 13.6356 17.3296C13.844 17.3295 14.0458 17.2346 14.1784 17.0643C14.8203 16.2398 15.1541 15.1694 15.1184 14.0501C15.0441 11.7295 13.4297 9.90012 11.4402 9.8786C11.3858 9.87642 11.3373 9.87783 11.2982 9.87923C11.2972 9.87923 11.2963 9.8793 11.2953 9.8793C10.8127 9.67012 10.3042 9.57211 9.78011 9.58934C8.65989 9.62512 7.63207 10.18 6.88619 11.1519C6.17146 12.083 5.80014 13.2947 5.84071 14.5639C5.8476 14.7787 5.86462 14.9767 5.8919 15.1643C5.96594 15.7047 6.115 16.2228 6.33494 16.7039C6.44062 16.9352 6.66534 17.0894 6.91931 17.1045C6.98842 17.109 7.05628 17.1019 7.12153 17.0862C7.4328 17.8577 7.90312 18.4998 8.47195 18.948C8.10161 20.4589 6.69445 20.4069 6.67905 20.4079C5.17514 20.4571 3.96667 21.695 3.96667 23.2106V25.9959C3.96667 26.3759 4.27464 26.6839 4.65461 26.6839H16.1394C16.5194 26.6839 16.8273 26.3759 16.8273 25.9959V23.2106C16.8274 21.6948 15.6189 20.457 14.115 20.4078ZM7.26349 15.0348C7.26032 15.0138 7.2573 14.9926 7.25435 14.9715C7.23382 14.83 7.22123 14.6821 7.21603 14.5196C7.18551 13.5675 7.456 12.669 7.97772 11.9895C8.46794 11.3507 9.12389 10.9867 9.82427 10.9642C9.8474 10.9635 10.3972 10.9199 10.8596 11.1932C10.9564 11.2505 11.0751 11.2676 11.1869 11.2648C11.2011 11.2645 11.4072 11.2541 11.4176 11.2541C12.6502 11.2622 13.6936 12.5361 13.7434 14.0939C13.7492 14.2724 13.742 14.4487 13.7226 14.6212C13.2673 13.8397 12.5911 13.2346 11.7863 12.8962C11.6133 12.8236 11.4181 12.8246 11.246 12.8992C11.0738 12.9739 10.9396 13.1157 10.8745 13.2917C10.8214 13.4353 10.7569 13.5752 10.6829 13.7077C10.5022 14.0308 10.1327 14.2212 9.71845 14.2082C9.63604 14.2054 9.55279 14.2053 9.47088 14.2079C9.06778 14.2208 8.67466 14.2977 8.29968 14.4374C7.92513 14.5789 7.57701 14.7797 7.26349 15.0348ZM8.2222 16.0333C8.3965 15.9045 8.58803 15.8092 8.78301 15.7257C9.13851 15.5733 9.61889 15.5816 9.67085 15.5834C10.557 15.6135 11.3659 15.1989 11.8161 14.4925C12.1671 14.7615 12.457 15.1237 12.6592 15.553C12.4462 17.0968 11.4853 18.2713 10.3951 18.2713C9.42236 18.2713 8.54936 17.3513 8.2222 16.0333ZM9.73385 19.5696C9.94914 19.6204 10.1701 19.6471 10.3951 19.6471C10.6221 19.6471 10.8444 19.6202 11.0604 19.5698C11.2821 20.2777 11.7478 20.8785 12.358 21.2745C12.0645 22.0821 11.288 22.6483 10.3971 22.6483C9.50617 22.6483 8.72971 22.0821 8.43616 21.2744C9.04647 20.8784 9.51215 20.2776 9.73385 19.5696ZM5.34262 25.3079V23.2105C5.34262 22.4224 5.9838 21.7812 6.77193 21.7812C6.78768 21.7812 7.03863 21.7668 7.14614 21.7523C7.63593 23.0884 8.92202 24.0242 10.397 24.0242C11.872 24.0242 13.1581 23.0884 13.6479 21.7523C13.7556 21.7668 14.0063 21.7812 14.0221 21.7812C14.8103 21.7812 15.4514 22.4224 15.4514 23.2105V25.3079H5.34262Z" fill="#005DAC"/>
</svg>
