<svg width="42" height="42" viewBox="0 0 42 42" fill="none" xmlns="http://www.w3.org/2000/svg">
<path d="M31.4992 0H10.4997C4.7254 0 0 4.7254 0 10.4997V31.5003C0 37.2731 4.7254 42 10.4997 42H31.4992C37.2736 42 41.999 37.2731 41.999 31.5003V10.4997C41.999 4.7254 37.2736 0 31.4992 0ZM38.4989 31.5003C38.4989 35.3589 35.36 38.4999 31.4992 38.4999H10.4997C6.64058 38.4999 3.50009 35.3589 3.50009 31.5003V10.4997C3.50009 6.64006 6.64058 3.50009 10.4997 3.50009H31.4992C35.36 3.50009 38.4989 6.64006 38.4989 10.4997V31.5003Z" fill="#005DAC"/>
<path d="M32.3758 12.2499C33.8255 12.2499 35.0007 11.0746 35.0007 9.62494C35.0007 8.17522 33.8255 7 32.3758 7C30.926 7 29.7508 8.17522 29.7508 9.62494C29.7508 11.0746 30.926 12.2499 32.3758 12.2499Z" fill="#005DAC"/>
<path d="M20.9993 10.5C15.1992 10.5 10.4996 15.2002 10.4996 20.9997C10.4996 26.7972 15.1992 31.5005 20.9993 31.5005C26.7978 31.5005 31.4991 26.7972 31.4991 20.9997C31.4991 15.2002 26.7978 10.5 20.9993 10.5ZM20.9993 28.0004C17.1338 28.0004 13.9997 24.8663 13.9997 20.9997C13.9997 17.1332 17.1338 14.0001 20.9993 14.0001C24.8648 14.0001 27.999 17.1332 27.999 20.9997C27.999 24.8663 24.8648 28.0004 20.9993 28.0004Z" fill="#005DAC"/>
</svg>
