<svg width="32" height="32" viewBox="0 0 32 32" fill="none" xmlns="http://www.w3.org/2000/svg">
<path d="M26 28.5H6C3.243 28.5 1 26.257 1 23.5C1 23.1548 1.27981 22.875 1.625 22.875H12.875C13.2202 22.875 13.5 23.1548 13.5 23.5V24.125C13.5 24.4959 13.8017 24.7976 14.1725 24.7976H17.8274C18.1983 24.7976 18.5 24.4959 18.5 24.125V23.5C18.5 23.1548 18.7798 22.875 19.125 22.875H30.375C30.7202 22.875 31 23.1548 31 23.5C31 26.257 28.757 28.5 26 28.5ZM2.30206 24.125C2.60044 25.8963 4.14512 27.25 6 27.25H26C27.8549 27.25 29.3995 25.8963 29.6979 24.125H19.75C19.75 25.1851 18.8876 26.0476 17.8274 26.0476H14.1725C13.1124 26.0476 12.25 25.1851 12.25 24.125H2.30206Z" fill="#005DAC"/>
<path d="M27.4543 24.125C27.1091 24.125 26.8293 23.8452 26.8293 23.5C26.8293 23.1548 27.1091 22.875 27.4543 22.875C28.3755 22.875 29.125 22.1255 29.125 21.2043V6.42075C29.125 5.4995 28.3755 4.75 27.4543 4.75H4.54575C3.6245 4.75 2.875 5.4995 2.875 6.42075V21.2042C2.875 22.1255 3.6245 22.875 4.54575 22.875C4.89094 22.875 5.17075 23.1548 5.17075 23.5C5.17075 23.8452 4.89094 24.125 4.54575 24.125C2.93525 24.125 1.625 22.8148 1.625 21.2042V6.42075C1.625 4.81025 2.93525 3.5 4.54575 3.5H27.4543C29.0648 3.5 30.375 4.81025 30.375 6.42075V21.2043C30.375 22.8148 29.0648 24.125 27.4543 24.125Z" fill="#005DAC"/>
<path d="M27.25 21.625H4.75C4.40481 21.625 4.125 21.3452 4.125 21V6.625C4.125 6.27981 4.40481 6 4.75 6H27.25C27.5952 6 27.875 6.27981 27.875 6.625V21C27.875 21.3452 27.5952 21.625 27.25 21.625ZM5.375 20.375H26.625V7.25H5.375V20.375Z" fill="#005DAC"/>
<path d="M16.625 17.25H7.25C6.90481 17.25 6.625 16.9702 6.625 16.625C6.625 16.2798 6.90481 16 7.25 16H16.625C16.9702 16 17.25 16.2798 17.25 16.625C17.25 16.9702 16.9702 17.25 16.625 17.25Z" fill="#005DAC"/>
<path d="M16.625 14.75H7.25C6.90481 14.75 6.625 14.4702 6.625 14.125C6.625 13.7798 6.90481 13.5 7.25 13.5H16.625C16.9702 13.5 17.25 13.7798 17.25 14.125C17.25 14.4702 16.9702 14.75 16.625 14.75Z" fill="#005DAC"/>
<path d="M16.625 12.25H7.25C6.90481 12.25 6.625 11.9702 6.625 11.625C6.625 11.2798 6.90481 11 7.25 11H16.625C16.9702 11 17.25 11.2798 17.25 11.625C17.25 11.9702 16.9702 12.25 16.625 12.25Z" fill="#005DAC"/>
</svg>
