<svg width="42" height="42" viewBox="0 0 42 42" fill="none" xmlns="http://www.w3.org/2000/svg">
<path d="M12.4688 15.0938C12.4688 14.5716 12.2613 14.0708 11.8921 13.7016C11.5229 13.3324 11.0221 13.125 10.5 13.125C9.97786 13.125 9.4771 13.3324 9.10788 13.7016C8.73867 14.0708 8.53125 14.5716 8.53125 15.0938H9.84375C9.84375 14.9197 9.91289 14.7528 10.036 14.6297C10.159 14.5066 10.326 14.4375 10.5 14.4375C10.674 14.4375 10.841 14.5066 10.964 14.6297C11.0871 14.7528 11.1562 14.9197 11.1562 15.0938H12.4688Z" fill="#005DAC"/>
<path d="M18.375 14.4375C18.549 14.4375 18.716 14.5066 18.839 14.6297C18.9621 14.7528 19.0312 14.9197 19.0312 15.0938H20.3438C20.3438 14.5716 20.1363 14.0708 19.7671 13.7016C19.3979 13.3324 18.8971 13.125 18.375 13.125C17.8529 13.125 17.3521 13.3324 16.9829 13.7016C16.6137 14.0708 16.4063 14.5716 16.4062 15.0938H17.7188C17.7188 14.9197 17.7879 14.7528 17.911 14.6297C18.034 14.5066 18.201 14.4375 18.375 14.4375Z" fill="#005DAC"/>
<path d="M17.7188 19.0312H16.4062C16.4062 19.1947 15.708 19.6875 14.4375 19.6875C13.167 19.6875 12.4688 19.1947 12.4688 19.0312H11.1562C11.1562 20.1534 12.5665 21 14.4375 21C16.3085 21 17.7188 20.1534 17.7188 19.0312Z" fill="#005DAC"/>
<path d="M38.7188 24.9375H21.6562C21.1346 24.9391 20.6347 25.147 20.2659 25.5159C19.897 25.8847 19.6891 26.3846 19.6875 26.9063V26.9259L17.7188 26.4009V24.2747C19.0763 23.7128 20.265 22.8086 21.169 21.6504C22.073 20.4923 22.6614 19.1196 22.8769 17.6663C23.5421 17.5476 24.1554 17.2294 24.6356 16.7541C25.2487 16.1389 25.5932 15.306 25.5938 14.4375V8.53126C25.5913 6.96557 24.9683 5.4647 23.8612 4.35759C22.7541 3.25048 21.2532 2.62744 19.6875 2.62501H17.6466C16.7913 1.78226 15.6382 1.31067 14.4375 1.31251H9.1875C7.62181 1.31494 6.12094 1.93798 5.01383 3.04509C3.90672 4.1522 3.28368 5.65307 3.28125 7.21876V14.4375C3.28054 15.2107 3.55366 15.9592 4.05219 16.5502C4.55071 17.1412 5.24243 17.5366 6.00469 17.6663C6.21155 19.1209 6.79606 20.4959 7.69994 21.6543C8.60383 22.8126 9.79552 23.7139 11.1562 24.2681V26.4009L2.76281 28.6388C2.3466 28.7544 1.97961 29.003 1.71778 29.3466C1.45594 29.6901 1.31362 30.1099 1.3125 30.5419V40.0313C1.3125 40.2053 1.38164 40.3722 1.50471 40.4953C1.62778 40.6184 1.7947 40.6875 1.96875 40.6875H40.0312C40.2053 40.6875 40.3722 40.6184 40.4953 40.4953C40.6184 40.3722 40.6875 40.2053 40.6875 40.0313V26.9063C40.6859 26.3846 40.478 25.8847 40.1091 25.5159C39.7403 25.147 39.2404 24.9391 38.7188 24.9375ZM18.8409 28.0613L16.0978 36.75H15.0938V29.8003L17.2594 27.6347L18.8409 28.0613ZM14.4375 28.6059L12.4688 26.6372V24.7013C13.7624 25.0163 15.1126 25.0163 16.4062 24.7013V26.6372L14.4375 28.6059ZM23.7103 15.8288C23.5006 16.0339 23.247 16.1887 22.9688 16.2816V12.5869C23.2815 12.6976 23.5613 12.8855 23.782 13.1332C24.0027 13.3809 24.1572 13.6804 24.2312 14.0039C24.3052 14.3273 24.2962 14.6642 24.2051 14.9832C24.1141 15.3023 23.9439 15.5931 23.7103 15.8288ZM19.6875 3.93751C20.9054 3.93889 22.073 4.42332 22.9342 5.28452C23.7954 6.14571 24.2799 7.31334 24.2812 8.53126V11.8322C23.7891 11.4565 23.1989 11.2309 22.5816 11.1825L19.0312 8.22282V5.90626C19.0299 5.22508 18.8775 4.55269 18.585 3.93751H19.6875ZM5.90625 16.2881C5.63236 16.1901 5.382 16.0359 5.17125 15.8353C4.93603 15.6002 4.7642 15.3094 4.67179 14.9899C4.57939 14.6704 4.56941 14.3327 4.64281 14.0084C4.7162 13.684 4.87056 13.3835 5.0915 13.135C5.31243 12.8864 5.59273 12.6978 5.90625 12.5869V16.2881ZM4.59375 11.8322V7.21876C4.59514 6.00084 5.07957 4.83321 5.94076 3.97202C6.80196 3.11082 7.96959 2.62639 9.1875 2.62501H14.4375C15.3077 2.62501 16.1423 2.97071 16.7577 3.58606C17.373 4.20142 17.7188 5.03601 17.7188 5.90626V8.03251L6.42469 11.1694C5.7608 11.1971 5.12154 11.4285 4.59375 11.8322ZM9.33187 21.5119C8.6587 20.8435 8.12519 20.0479 7.76241 19.1713C7.39963 18.2948 7.21483 17.3549 7.21875 16.4063V12.3113L18.2175 9.25313L21.6562 12.1209V16.4063C21.6575 16.6056 21.6487 16.8049 21.63 17.0034V17.01C21.5381 18.1101 21.1949 19.1743 20.6268 20.1208C20.0588 21.0673 19.281 21.8707 18.3534 22.4692C17.4259 23.0677 16.3733 23.4453 15.2768 23.5729C14.1804 23.7004 13.0692 23.5746 12.0291 23.205C11.0116 22.8558 10.0886 22.2764 9.33187 21.5119ZM8.83313 28.6191L10.2769 33.1931L7.42875 32.3794L8.83313 28.6191ZM2.625 39.375V30.5419C2.62622 30.3975 2.6742 30.2575 2.76176 30.1427C2.84932 30.0279 2.97172 29.9446 3.11062 29.9053L7.38281 28.7634L5.94563 32.5828C5.91513 32.668 5.90231 32.7584 5.90795 32.8487C5.9136 32.939 5.93758 33.0271 5.97844 33.1078C6.01916 33.1889 6.07639 33.2606 6.14647 33.3182C6.21654 33.3759 6.2979 33.4182 6.38531 33.4425L9.75187 34.4072L7.46812 36.2381C7.38435 36.3024 7.31775 36.3863 7.27424 36.4825C7.23074 36.5786 7.21167 36.6841 7.21875 36.7894C7.22605 36.8939 7.25776 36.9952 7.31132 37.0853C7.36489 37.1753 7.43882 37.2515 7.52719 37.3078L10.8347 39.375H2.625ZM11.8125 38.4366L9.01031 36.6844L10.9003 35.1684L11.8125 38.0494V38.4366ZM10.0341 28.0613L11.6156 27.6347L13.7812 29.8003V36.75H12.7772L10.0341 28.0613ZM19.6875 39.375H13.7812C13.6072 39.375 13.4403 39.3059 13.3172 39.1828C13.1941 39.0597 13.125 38.8928 13.125 38.7188V38.0625H19.6875V39.375ZM19.6875 36.75H17.4694L17.9747 35.1684L19.6875 36.54V36.75ZM19.6875 34.86L19.1231 34.4072L19.6875 34.2431V34.86ZM19.6875 32.8781L18.5981 33.1931L19.6875 29.7347V32.8781ZM39.375 39.375H21V26.9063C21 26.7322 21.0691 26.5653 21.1922 26.4422C21.3153 26.3191 21.4822 26.25 21.6562 26.25H38.7188C38.8928 26.25 39.0597 26.3191 39.1828 26.4422C39.3059 26.5653 39.375 26.7322 39.375 26.9063V39.375Z" fill="#005DAC"/>
<path d="M30.1875 34.125C30.9124 34.125 31.5 33.5374 31.5 32.8125C31.5 32.0876 30.9124 31.5 30.1875 31.5C29.4626 31.5 28.875 32.0876 28.875 32.8125C28.875 33.5374 29.4626 34.125 30.1875 34.125Z" fill="#005DAC"/>
<path d="M22.9688 36.75H24.2812V38.0625H22.9688V36.75Z" fill="#005DAC"/>
<path d="M25.5938 36.75H26.9062V38.0625H25.5938V36.75Z" fill="#005DAC"/>
<path d="M28.2188 36.75H29.5312V38.0625H28.2188V36.75Z" fill="#005DAC"/>
<path d="M30.8438 36.75H32.1562V38.0625H30.8438V36.75Z" fill="#005DAC"/>
<path d="M33.4688 36.75H34.7812V38.0625H33.4688V36.75Z" fill="#005DAC"/>
<path d="M36.0938 36.75H37.4062V38.0625H36.0938V36.75Z" fill="#005DAC"/>
</svg>
