<svg width="27" height="27" viewBox="0 0 27 27" fill="none" xmlns="http://www.w3.org/2000/svg">
<path d="M26.2124 0.788021C25.9316 0.506391 25.5915 0.290832 25.2169 0.156987C24.8423 0.0231412 24.4427 -0.0256325 24.0469 0.0142058C22.6207 0.152447 21.2873 0.783432 20.276 1.7986L15.7544 6.32022L4.06632 3.75046C3.72044 3.6756 3.36126 3.68928 3.02207 3.79023C2.68288 3.89118 2.37467 4.07613 2.12601 4.32793L0.7574 5.69077C0.58385 5.86183 0.453659 6.07186 0.37766 6.30339C0.301661 6.53491 0.282051 6.78124 0.320462 7.02188C0.358873 7.26251 0.454194 7.4905 0.598495 7.68686C0.742795 7.88322 0.931903 8.04228 1.15008 8.15081L9.66205 12.4183L6.34157 15.7388L2.84208 16.0911C2.53568 16.1247 2.24656 16.25 2.01259 16.4507C1.77862 16.6513 1.61069 16.918 1.53081 17.2157C1.45092 17.5134 1.46279 17.8282 1.56488 18.1191C1.66696 18.4099 1.85449 18.6632 2.10291 18.8456L5.63705 21.3519L8.15484 24.8976C8.3357 25.15 8.58908 25.3414 8.88132 25.4464C9.17356 25.5514 9.49083 25.565 9.79099 25.4855C10.0911 25.4059 10.36 25.2369 10.5618 25.0009C10.7636 24.7649 10.8889 24.473 10.9209 24.1642L11.2732 20.6647L14.5937 17.3442L18.8497 25.8504C18.9581 26.0669 19.1164 26.2546 19.3115 26.398C19.5067 26.5414 19.733 26.6365 19.9721 26.6754C20.2111 26.7143 20.4559 26.6959 20.6864 26.6217C20.917 26.5476 21.1266 26.4198 21.2981 26.2488L22.6783 24.8976C22.9306 24.6492 23.1158 24.341 23.2168 24.0017C23.3178 23.6624 23.3312 23.3031 23.2558 22.9572L20.6918 11.2461L25.2019 6.72445C26.217 5.7132 26.848 4.37976 26.9863 2.95355C27.0265 2.55776 26.9779 2.15797 26.8441 1.78334C26.7102 1.40871 26.4944 1.06867 26.2124 0.788021ZM23.9892 5.49443L19.3694 10.1142C19.1865 10.2947 19.0525 10.5187 18.9798 10.7651C18.9071 11.0116 18.8981 11.2724 18.9536 11.5233L21.5349 23.321C21.5494 23.3824 21.5481 23.4464 21.5309 23.5071C21.5137 23.5677 21.4813 23.6229 21.4367 23.6675L20.2818 24.8225L16.0143 16.3105C15.9061 16.0941 15.7482 15.9064 15.5534 15.7629C15.3587 15.6194 15.1327 15.524 14.894 15.4847C14.8133 15.478 14.7321 15.478 14.6514 15.4847C14.246 15.4859 13.8576 15.6479 13.5715 15.9352L10.0028 19.5039C9.75362 19.754 9.59857 20.0824 9.56388 20.4337L9.25781 23.4654L7.04609 20.3413C6.9458 20.2023 6.82281 20.0813 6.68228 19.9832L3.56392 17.7715L6.59566 17.4655C6.94691 17.4308 7.27537 17.2757 7.52539 17.0266L11.0942 13.4578C11.2651 13.2863 11.3929 13.0766 11.4671 12.8461C11.5412 12.6156 11.5596 12.3707 11.5207 12.1317C11.4818 11.8927 11.3868 11.6663 11.2433 11.4712C11.0999 11.2761 10.9122 11.1178 10.6957 11.0093L2.17799 6.71868L3.33293 5.56373C3.37812 5.52007 3.4334 5.48827 3.49385 5.47114C3.5543 5.45401 3.61805 5.4521 3.67942 5.46556L15.4772 8.04687C15.7276 8.10313 15.9881 8.09503 16.2345 8.02334C16.4809 7.95164 16.7051 7.81868 16.8862 7.63686L21.506 3.01707C22.2375 2.28615 23.2019 1.83459 24.2317 1.74085C24.3706 1.72847 24.5104 1.74671 24.6415 1.79428C24.7725 1.84185 24.8915 1.91759 24.9901 2.01617C25.0886 2.11474 25.1644 2.23374 25.212 2.36477C25.2595 2.4958 25.2778 2.63568 25.2654 2.77453C25.1701 3.80509 24.7164 4.7696 23.9834 5.50021L23.9892 5.49443Z" fill="#005DAC"/>
</svg>
