<svg width="22" height="22" viewBox="0 0 22 22" fill="none" xmlns="http://www.w3.org/2000/svg">
<g clip-path="url(#clip0_164_356)">
<path d="M21.6484 10.1452L13.7034 2.20004C13.4766 1.97324 13.1743 1.84875 12.852 1.84875C12.5293 1.84875 12.2273 1.97342 12.0005 2.20004L11.2791 2.92156C11.0525 3.148 10.9277 3.45045 10.9277 3.77293C10.9277 4.09524 11.0525 4.40789 11.2791 4.63433L15.9141 9.27951H1.18853C0.524597 9.27951 0 9.79928 0 10.4634V11.4834C0 12.1475 0.524597 12.7197 1.18853 12.7197H15.9667L11.2793 17.3908C11.0527 17.6176 10.9278 17.9118 10.9278 18.2343C10.9278 18.5565 11.0527 18.855 11.2793 19.0816L12.0006 19.8008C12.2274 20.0276 12.5295 20.1512 12.8522 20.1512C13.1745 20.1512 13.4768 20.026 13.7036 19.7992L21.6485 11.8542C21.8759 11.6267 22.0009 11.323 22 11.0001C22.0007 10.6762 21.8759 10.3723 21.6484 10.1452Z" fill="black"/>
</g>
<defs>
<clipPath id="clip0_164_356">
<rect width="22" height="22" fill="white"/>
</clipPath>
</defs>
</svg>
