<svg width="45" height="40" viewBox="0 0 45 40" fill="none" xmlns="http://www.w3.org/2000/svg">
<path d="M44.1189 0.713284C43.3949 0.0499734 42.366 -0.171072 41.4334 0.136282L1.86603 13.1793C0.787696 13.5348 0.0564458 14.4974 0.00309616 15.6314C-0.0501656 16.7656 0.587481 17.7926 1.62758 18.2477L11.4129 22.5291C11.4606 22.7506 14.2697 35.7791 14.3652 36.222C14.4878 36.7908 14.7766 37.2975 15.3882 37.4534C16.0068 37.6109 16.4439 37.2728 16.9055 36.9272C17.1624 36.7349 24.1671 31.4899 24.1671 31.4899L32.6563 38.4367C33.1508 38.8415 33.7551 39.0526 34.3713 39.0526C34.6647 39.0525 34.9609 39.0047 35.249 38.907C36.1425 38.604 36.8049 37.8748 37.0208 36.9564L44.928 3.33805C45.1527 2.38224 44.8428 1.3766 44.1189 0.713284ZM17.5381 24.9824C17.5332 24.9938 17.5285 25.0067 17.524 25.0222L15.8871 30.7411L14.0604 22.2688L26.6215 15.2899L17.8394 24.4725C17.701 24.6172 17.5993 24.7921 17.5381 24.9824ZM18.0576 32.7629L18.8011 30.1653L19.5122 27.6807L22.0602 29.7658L18.0576 32.7629ZM42.3552 2.73284L34.4482 36.3512C34.4442 36.3679 34.4389 36.3909 34.4003 36.404C34.3619 36.417 34.3433 36.4022 34.3301 36.3913L25.0409 28.7898C25.0406 28.7896 25.0404 28.7894 25.0402 28.7892L20.7362 25.2672L34.5635 10.8094C35.0151 10.3371 35.0537 9.6058 34.6544 9.08856C34.255 8.57124 33.5376 8.4235 32.9666 8.74096L12.4924 20.1166L2.68701 15.8264C2.65713 15.8133 2.6407 15.8061 2.64307 15.7555C2.64544 15.7052 2.66249 15.6994 2.69343 15.6892L42.2608 2.64626C42.2799 2.64002 42.3015 2.63282 42.3334 2.66182C42.3652 2.691 42.3599 2.71315 42.3552 2.73284Z" fill="#005DAC"/>
</svg>
