<svg width="34" height="34" viewBox="0 0 34 34" fill="none" xmlns="http://www.w3.org/2000/svg">
<path d="M3.6324 19.214C3.65383 19.2162 3.67527 19.217 3.6967 19.217C4.05222 19.217 4.3619 18.9605 4.42399 18.6035C4.46686 18.3574 5.53857 12.5657 11.0871 12.5657H21.4347V15.5221C21.4347 15.8148 21.6069 16.0794 21.8752 16.1984C22.1428 16.3167 22.4547 16.2664 22.6712 16.0691L30.8015 8.67794C30.9552 8.5375 31.0432 8.33942 31.0432 8.13099C31.0432 7.92256 30.9552 7.72448 30.8015 7.58405L22.6712 0.192902C22.4547 -0.00444134 22.142 -0.0554402 21.8752 0.0635572C21.6069 0.182555 21.4347 0.447158 21.4347 0.739847V4.43542H11.0871C6.68051 4.43542 2.95685 7.82056 2.95685 11.8266V18.4786C2.95685 18.8622 3.25028 19.1815 3.6324 19.214ZM4.43508 11.8266C4.43508 8.62176 7.48171 5.91365 11.0871 5.91365H22.1738C22.5826 5.91365 22.9129 5.58252 22.9129 5.17453V2.41098L29.2058 8.13099L22.9129 13.851V11.8266C22.9129 11.4186 22.5826 11.0874 22.1738 11.0874H11.0871C7.64062 11.0874 5.60583 12.9323 4.43508 14.7631V11.8266Z" fill="#005DAC"/>
<path d="M30.3676 14.7867C29.987 14.7505 29.6418 15.0181 29.5761 15.3972C29.5324 15.6434 28.4615 21.4351 22.9129 21.4351H13.3044V18.4786C13.3044 18.1918 13.1381 17.9309 12.8787 17.809C12.6186 17.6878 12.3126 17.7269 12.0923 17.911L3.22293 25.3021C3.05441 25.4425 2.95685 25.6502 2.95685 25.8697C2.95685 26.0893 3.05441 26.297 3.22293 26.4374L12.0923 33.8285C12.2276 33.9416 12.3961 34 12.5653 34C12.6718 34 12.7789 33.9771 12.8787 33.9305C13.1381 33.8086 13.3044 33.5477 13.3044 33.2609V29.5653H22.9129C27.3203 29.5653 31.0432 26.1802 31.0432 22.1742V15.5221C31.0432 15.1385 30.7498 14.8192 30.3676 14.7867ZM29.565 22.1742C29.565 25.379 26.5191 28.0871 22.9129 28.0871H12.5653C12.1573 28.0871 11.8262 28.4182 11.8262 28.8262V31.6829L4.85046 25.8697L11.8262 20.0566V22.1742C11.8262 22.5822 12.1573 22.9133 12.5653 22.9133H22.9129C26.3594 22.9133 28.3942 21.0685 29.565 19.2377V22.1742Z" fill="#005DAC"/>
</svg>
