<svg width="29" height="29" viewBox="0 0 29 29" fill="none" xmlns="http://www.w3.org/2000/svg">
<g clip-path="url(#clip0_164_480)">
<path fill-rule="evenodd" clip-rule="evenodd" d="M14.4929 1.69839C9.62002 1.69839 5.56808 5.48011 5.13372 10.2469H7.64275C8.11176 10.2469 8.49195 10.6272 8.49195 11.0961V21.3431C8.49195 21.8121 8.11176 22.1923 7.64275 22.1923H4.24597C3.77698 22.1923 3.39678 21.8121 3.39678 21.3431V20.7319C3.07805 20.7609 2.70962 20.7508 2.32877 20.6492C1.68866 20.4785 1.07418 20.0641 0.640921 19.2987C0.223819 18.5619 0 17.5466 0 16.1913C0 14.8367 0.223577 13.8231 0.642632 13.0897C1.07886 12.3263 1.69823 11.9193 2.34162 11.7584C2.71789 11.6643 3.0815 11.6591 3.39678 11.6918V11.0961C3.39678 4.99921 8.39595 0 14.4929 0C20.5899 0 25.5891 4.99921 25.5891 11.0961V11.6918C25.9043 11.6591 26.268 11.6643 26.6442 11.7584C27.2876 11.9193 27.907 12.3263 28.3432 13.0897C28.7623 13.8231 28.9859 14.8367 28.9859 16.1913C28.9859 17.5466 28.7621 18.5619 28.3449 19.2987C27.9117 20.0641 27.2972 20.4785 26.6571 20.6492C26.2763 20.7508 25.9078 20.7609 25.5891 20.7319V21.3431V23.0415C25.5891 25.3865 23.6881 27.2875 21.3431 27.2875H18.5939C18.2442 28.277 17.3005 28.9859 16.1913 28.9859H14.4929C13.086 28.9859 11.9453 27.8452 11.9453 26.4383C11.9453 25.0313 13.086 23.8907 14.4929 23.8907H16.1913C17.3005 23.8907 18.2442 24.5996 18.5939 25.5891H21.3431C22.7501 25.5891 23.8907 24.4485 23.8907 23.0415V22.1923H21.3431C20.8741 22.1923 20.4939 21.8121 20.4939 21.3431V11.0961C20.4939 10.6272 20.8741 10.2469 21.3431 10.2469H23.8521C23.4177 5.48011 19.3658 1.69839 14.4929 1.69839ZM17.0405 26.4383C17.0405 25.9693 16.6603 25.5891 16.1913 25.5891H14.4929C14.0239 25.5891 13.6437 25.9693 13.6437 26.4383C13.6437 26.9072 14.024 27.2875 14.4929 27.2875H16.1913C16.6603 27.2875 17.0405 26.9072 17.0405 26.4383ZM5.09517 19.6623C5.09542 19.6502 5.09542 19.6381 5.09517 19.626V12.8129C5.09542 12.8011 5.09542 12.7893 5.09517 12.7775V11.9453H6.79356V20.4939H5.09517V19.6623ZM3.39678 13.4075V19.0201C3.1876 19.0561 2.96602 19.0614 2.7664 19.0082C2.55732 18.9524 2.3226 18.8219 2.11896 18.4621C1.89917 18.0738 1.69839 17.3836 1.69839 16.1913C1.69839 14.9984 1.89941 14.3136 2.11725 13.9324C2.31792 13.5812 2.54774 13.4575 2.75354 13.4061C2.9561 13.3554 3.18272 13.3657 3.39678 13.4075ZM25.5891 19.0201V13.4075C25.8031 13.3657 26.0298 13.3554 26.2323 13.4061C26.4381 13.4575 26.6679 13.5812 26.8686 13.9324C27.0865 14.3136 27.2875 14.9984 27.2875 16.1913C27.2875 17.3836 27.0867 18.0738 26.8669 18.4621C26.6633 18.8219 26.4286 18.9524 26.2195 19.0082C26.0198 19.0614 25.7983 19.0561 25.5891 19.0201ZM23.8907 19.6623V20.4939H22.1923V11.9453H23.8907V12.7775C23.8904 12.7893 23.8904 12.8011 23.8907 12.8129V19.626C23.8904 19.6381 23.8904 19.6502 23.8907 19.6623Z" fill="#005DAC"/>
</g>
<defs>
<clipPath id="clip0_164_480">
<rect width="29" height="29" fill="white"/>
</clipPath>
</defs>
</svg>
