<svg width="15" height="15" viewBox="0 0 15 15" fill="none" xmlns="http://www.w3.org/2000/svg">
<path d="M15 14.0625C15 14.5803 14.5803 15 14.0625 15H0.9375C0.419736 15 0 14.5803 0 14.0625C0 13.5447 0.419736 13.125 0.9375 13.125H14.0625C14.5803 13.125 15 13.5447 15 14.0625ZM6.8371 11.0926C7.02018 11.2757 7.26006 11.3672 7.5 11.3672C7.73988 11.3672 7.97988 11.2757 8.1629 11.0926L11.4845 7.77103C11.8506 7.4049 11.8506 6.81132 11.4845 6.4452C11.1184 6.07907 10.5248 6.07907 10.1587 6.4452L8.4375 8.16639V0.9375C8.4375 0.419736 8.01776 0 7.5 0C6.98224 0 6.5625 0.419736 6.5625 0.9375V8.16639L4.84131 6.4452C4.47519 6.07907 3.8816 6.07907 3.51548 6.4452C3.14936 6.81132 3.14936 7.4049 3.51548 7.77103L6.8371 11.0926Z" fill="#005DAC"/>
</svg>
