<svg width="31" height="31" viewBox="0 0 31 31" fill="none" xmlns="http://www.w3.org/2000/svg">
<g clip-path="url(#clip0_164_386)">
<path d="M29.1836 14.8484V11.1936C29.1836 9.39803 27.7549 7.93067 25.9746 7.86662V5.62329C25.9746 4.4548 25.024 3.50415 23.8555 3.50415H18.0213L17.2679 1.41002C17.0758 0.875995 16.687 0.44926 16.173 0.208466C15.6591 -0.0323899 15.0823 -0.0580618 14.5491 0.136051L3.96219 3.98931C3.4295 4.18319 3.00452 4.57305 2.76548 5.08709C2.52644 5.60113 2.50216 6.17736 2.69718 6.70969L3.12252 7.87067C1.38271 7.97826 0 9.42715 0 11.1936V27.6624C0 29.4986 1.49387 30.9924 3.33008 30.9924H25.8535C27.6897 30.9924 29.1836 29.4986 29.1836 27.6624V23.8865C30.2091 23.7391 31 22.855 31 21.7893V16.9456C31 15.8799 30.2091 14.9958 29.1836 14.8484ZM29.1836 21.7893C29.1836 21.9562 29.0478 22.092 28.8809 22.092H24.0371C22.5348 22.092 21.3125 20.8698 21.3125 19.3674C21.3125 17.8651 22.5348 16.6428 24.0371 16.6428H28.8809C29.0478 16.6428 29.1836 16.7786 29.1836 16.9456V21.7893ZM4.40273 6.08484C4.36513 5.98221 4.39268 5.89557 4.41247 5.85301C4.43227 5.8105 4.48077 5.73355 4.58346 5.69619L15.1703 1.84293C15.2731 1.80557 15.3598 1.83336 15.4023 1.85328C15.4449 1.8732 15.5217 1.922 15.5587 2.02493L16.0909 3.50421H15.6816C14.5131 3.50421 13.5625 4.45486 13.5625 5.62335V7.86359H5.05439L4.40273 6.08484ZM24.1582 5.62329V7.86353H15.3789V5.62329C15.3789 5.45637 15.5147 5.32056 15.6816 5.32056H23.8555C24.0224 5.32056 24.1582 5.45637 24.1582 5.62329ZM25.8535 29.176H3.33008C2.49544 29.176 1.81641 28.497 1.81641 27.6624V11.1936C1.81641 10.359 2.49544 9.67993 3.33008 9.67993H25.8535C26.6882 9.67993 27.3672 10.359 27.3672 11.1936V14.8264H24.0371C21.5332 14.8264 19.4961 16.8635 19.4961 19.3674C19.4961 21.8713 21.5332 23.9084 24.0371 23.9084H27.3672V27.6624C27.3672 28.497 26.6882 29.176 25.8535 29.176Z" fill="#005DAC"/>
<path d="M24.0371 20.2759C24.5387 20.2759 24.9453 19.8693 24.9453 19.3677C24.9453 18.8661 24.5387 18.4595 24.0371 18.4595C23.5355 18.4595 23.1289 18.8661 23.1289 19.3677C23.1289 19.8693 23.5355 20.2759 24.0371 20.2759Z" fill="#005DAC"/>
</g>
<defs>
<clipPath id="clip0_164_386">
<rect width="31" height="31" fill="white"/>
</clipPath>
</defs>
</svg>
